<svg width="50" height="50" viewBox="0 0 50 50" fill="none" xmlns="http://www.w3.org/2000/svg">
<path d="M50 0H0V50H50V0Z" fill="none" stroke="currentColor" stroke-width="1"/>
<path d="M8.68698 24.646L7.97998 25.354L15.96 33.333L7.97998 41.313L8.68698 42.02L17.374 33.333L8.68698 24.646Z" fill="currentColor"/>
<path d="M17.02 24.646L9.03998 16.667L17.02 8.68698L16.313 7.97998L7.62598 16.667L16.313 25.354L24.293 33.333L16.313 41.313L17.02 42.02L25.707 33.333L17.02 24.646Z" fill="currentColor"/>
<path d="M25.354 24.646L17.374 16.667L25.354 8.68698L24.646 7.97998L15.96 16.667L24.646 25.354L32.626 33.333L24.646 41.313L25.354 42.02L34.04 33.333L25.354 24.646Z" fill="currentColor"/>
<path d="M33.687 24.646L25.707 16.667L33.687 8.68698L32.98 7.97998L24.293 16.667L32.98 25.354L40.96 33.333L32.98 41.313L33.687 42.02L42.374 33.333L33.687 24.646Z" fill="currentColor"/>
<path d="M41.313 25.354L42.02 24.646L34.04 16.667L42.02 8.68698L41.313 7.97998L32.626 16.667L41.313 25.354Z" fill="currentColor"/>
</svg>
