<svg width="50" height="50" viewBox="0 0 50 50" fill="none" xmlns="http://www.w3.org/2000/svg">
<path d="M50 0H0V50H50V0Z" fill="none" stroke="currentColor" stroke-width="1" />
<path d="M41.167 16.667H42.167V8.33898C42.167 8.33698 42.167 8.33498 42.167 8.33298C42.167 8.33198 42.167 8.33099 42.167 8.32999V7.83398H41.668H41.667H33.335V8.83398H41.168V16.667H41.167Z" fill="currentColor"/>
<path d="M8.83301 33.333H7.83301V41.663C7.83301 41.664 7.83301 41.665 7.83301 41.666C7.83301 41.668 7.83301 41.67 7.83301 41.672V42.166H8.33001C8.33101 42.166 8.33201 42.166 8.33301 42.166C8.33401 42.166 8.33501 42.166 8.33601 42.166H16.667V41.166H8.83301V33.333Z" fill="currentColor"/>
<path d="M42.128 24.809C42.116 24.779 42.1 24.749 42.082 24.722C42.064 24.695 42.043 24.669 42.02 24.647C41.997 24.623 41.972 24.602 41.944 24.584C41.917 24.566 41.888 24.551 41.858 24.538C41.828 24.526 41.796 24.516 41.764 24.51C41.7 24.497 41.633 24.497 41.569 24.51C41.537 24.516 41.506 24.526 41.475 24.538C41.445 24.551 41.416 24.566 41.389 24.584C41.362 24.602 41.336 24.623 41.313 24.647C41.29 24.669 41.269 24.695 41.251 24.722C41.233 24.749 41.217 24.779 41.205 24.809C41.193 24.839 41.183 24.87 41.177 24.902C41.17 24.935 41.167 24.967 41.167 25C41.167 25.033 41.17 25.065 41.177 25.098C41.183 25.13 41.193 25.161 41.205 25.191C41.217 25.221 41.233 25.25 41.251 25.277C41.269 25.305 41.29 25.33 41.313 25.353C41.336 25.377 41.362 25.398 41.389 25.416C41.416 25.434 41.445 25.449 41.475 25.462C41.506 25.474 41.537 25.484 41.569 25.49C41.601 25.497 41.634 25.5 41.667 25.5C41.699 25.5 41.732 25.497 41.764 25.49C41.796 25.484 41.828 25.474 41.858 25.462C41.888 25.449 41.917 25.434 41.944 25.416C41.972 25.398 41.997 25.377 42.02 25.353C42.043 25.33 42.064 25.305 42.082 25.277C42.1 25.25 42.116 25.221 42.128 25.191C42.141 25.161 42.151 25.13 42.157 25.098C42.163 25.065 42.167 25.033 42.167 25C42.167 24.967 42.163 24.935 42.157 24.902C42.151 24.87 42.141 24.839 42.128 24.809Z" fill="currentColor"/>
<path d="M42.167 41.661V33.333H41.167V41.166H33.334V42.166H41.662C41.664 42.166 41.665 42.166 41.667 42.166C41.668 42.166 41.669 42.166 41.67 42.166H42.167V41.672C42.167 41.67 42.167 41.668 42.167 41.666C42.167 41.665 42.167 41.663 42.167 41.661Z" fill="currentColor"/>
<path d="M33.525 25.462C33.555 25.449 33.584 25.434 33.611 25.416C33.638 25.398 33.664 25.377 33.687 25.353C33.71 25.33 33.731 25.305 33.749 25.277C33.767 25.25 33.783 25.221 33.795 25.191C33.808 25.161 33.817 25.13 33.823 25.098C33.83 25.065 33.833 25.033 33.833 25C33.833 24.967 33.83 24.935 33.823 24.902C33.817 24.87 33.808 24.839 33.795 24.809C33.783 24.779 33.767 24.749 33.749 24.722C33.731 24.695 33.71 24.669 33.687 24.647C33.664 24.623 33.638 24.602 33.611 24.584C33.584 24.566 33.555 24.551 33.525 24.538C33.494 24.526 33.463 24.516 33.431 24.51C33.367 24.497 33.3 24.497 33.236 24.51C33.204 24.516 33.172 24.526 33.142 24.538C33.112 24.551 33.083 24.566 33.056 24.584C33.028 24.602 33.003 24.623 32.98 24.647C32.957 24.669 32.936 24.695 32.918 24.722C32.9 24.749 32.884 24.779 32.872 24.809C32.859 24.839 32.85 24.87 32.843 24.902C32.837 24.935 32.833 24.967 32.833 25C32.833 25.033 32.837 25.065 32.843 25.098C32.85 25.13 32.859 25.161 32.872 25.191C32.884 25.221 32.9 25.25 32.918 25.277C32.936 25.305 32.957 25.33 32.98 25.353C33.003 25.377 33.028 25.398 33.056 25.416C33.083 25.434 33.112 25.449 33.142 25.462C33.172 25.474 33.204 25.484 33.236 25.49C33.268 25.497 33.301 25.5 33.333 25.5C33.366 25.5 33.399 25.497 33.431 25.49C33.463 25.484 33.494 25.474 33.525 25.462Z" fill="currentColor"/>
<path d="M25.462 24.809C25.449 24.779 25.434 24.749 25.416 24.722C25.398 24.695 25.377 24.669 25.354 24.647C25.331 24.623 25.305 24.602 25.278 24.584C25.25 24.566 25.221 24.551 25.191 24.538C25.161 24.526 25.13 24.516 25.098 24.51C25.033 24.497 24.967 24.497 24.902 24.51C24.87 24.516 24.839 24.526 24.809 24.538C24.779 24.551 24.75 24.566 24.722 24.584C24.695 24.602 24.669 24.623 24.646 24.647C24.623 24.669 24.602 24.695 24.584 24.722C24.566 24.749 24.551 24.779 24.538 24.809C24.526 24.839 24.516 24.87 24.51 24.902C24.503 24.935 24.5 24.967 24.5 25C24.5 25.033 24.503 25.065 24.51 25.098C24.516 25.13 24.526 25.161 24.538 25.191C24.551 25.221 24.566 25.25 24.584 25.277C24.602 25.305 24.623 25.33 24.646 25.353C24.669 25.377 24.695 25.398 24.722 25.416C24.75 25.434 24.779 25.449 24.809 25.462C24.839 25.474 24.87 25.484 24.902 25.49C24.935 25.497 24.967 25.5 25 25.5C25.033 25.5 25.065 25.497 25.098 25.49C25.13 25.484 25.161 25.474 25.191 25.462C25.221 25.449 25.25 25.434 25.278 25.416C25.305 25.398 25.331 25.377 25.354 25.353C25.377 25.33 25.398 25.305 25.416 25.277C25.434 25.25 25.449 25.221 25.462 25.191C25.474 25.161 25.484 25.13 25.49 25.098C25.497 25.065 25.5 25.033 25.5 25C25.5 24.967 25.497 24.935 25.49 24.902C25.484 24.87 25.474 24.839 25.462 24.809Z" fill="currentColor"/>
<path d="M25.462 33.142C25.449 33.112 25.434 33.083 25.416 33.056C25.397 33.028 25.377 33.003 25.354 32.98C25.26 32.887 25.132 32.833 25 32.833C24.868 32.833 24.739 32.887 24.646 32.98C24.623 33.003 24.602 33.028 24.584 33.056C24.566 33.083 24.551 33.112 24.538 33.142C24.526 33.172 24.516 33.204 24.51 33.236C24.503 33.268 24.5 33.301 24.5 33.333C24.5 33.366 24.503 33.399 24.51 33.431C24.516 33.463 24.526 33.494 24.538 33.524C24.551 33.555 24.566 33.584 24.584 33.611C24.602 33.638 24.623 33.664 24.646 33.687C24.74 33.78 24.868 33.833 25 33.833C25.132 33.833 25.26 33.78 25.354 33.687C25.377 33.664 25.397 33.638 25.416 33.611C25.434 33.584 25.449 33.555 25.462 33.524C25.474 33.494 25.484 33.463 25.49 33.431C25.497 33.399 25.5 33.366 25.5 33.333C25.5 33.301 25.497 33.268 25.49 33.236C25.484 33.204 25.474 33.172 25.462 33.142Z" fill="currentColor"/>
<path d="M25.462 41.4751C25.449 41.4451 25.434 41.4161 25.416 41.3891C25.397 41.3621 25.377 41.3361 25.354 41.3131C25.237 41.1971 25.064 41.1431 24.902 41.1761C24.87 41.1831 24.839 41.1921 24.809 41.2051C24.779 41.2171 24.75 41.2331 24.723 41.2511C24.695 41.2691 24.67 41.2901 24.647 41.3131C24.623 41.3361 24.603 41.3621 24.584 41.3891C24.566 41.4161 24.551 41.4451 24.538 41.4751C24.526 41.5061 24.516 41.5371 24.51 41.5691C24.503 41.6011 24.5 41.6341 24.5 41.6671C24.5 41.6991 24.503 41.7321 24.51 41.7641C24.516 41.7961 24.526 41.8281 24.538 41.8581C24.551 41.8881 24.566 41.9171 24.584 41.9441C24.603 41.9721 24.623 41.9971 24.647 42.0201C24.67 42.0431 24.695 42.0641 24.723 42.0821C24.75 42.1001 24.779 42.1161 24.809 42.1281C24.839 42.1411 24.87 42.1511 24.902 42.1571C24.935 42.1631 24.967 42.1671 25 42.1671C25.132 42.1671 25.26 42.1131 25.354 42.0201C25.377 41.9971 25.397 41.9721 25.416 41.9441C25.434 41.9171 25.449 41.8881 25.462 41.8581C25.474 41.8281 25.484 41.7961 25.49 41.7641C25.497 41.7321 25.5 41.6991 25.5 41.6671C25.5 41.6341 25.497 41.6011 25.49 41.5691C25.484 41.5371 25.474 41.5061 25.462 41.4751Z" fill="currentColor"/>
<path d="M17.128 24.809C17.116 24.779 17.1 24.749 17.082 24.722C17.064 24.695 17.043 24.669 17.02 24.647C16.904 24.53 16.731 24.477 16.569 24.51C16.537 24.516 16.506 24.526 16.475 24.538C16.445 24.551 16.416 24.566 16.389 24.584C16.362 24.602 16.336 24.623 16.313 24.647C16.29 24.669 16.269 24.695 16.251 24.722C16.233 24.749 16.217 24.779 16.205 24.809C16.192 24.839 16.183 24.87 16.176 24.902C16.17 24.935 16.167 24.967 16.167 25C16.167 25.033 16.17 25.065 16.176 25.098C16.183 25.13 16.192 25.161 16.205 25.191C16.217 25.221 16.233 25.25 16.251 25.277C16.269 25.305 16.29 25.33 16.313 25.353C16.336 25.377 16.362 25.398 16.389 25.416C16.416 25.434 16.445 25.449 16.475 25.462C16.506 25.474 16.537 25.484 16.569 25.49C16.601 25.497 16.634 25.5 16.667 25.5C16.798 25.5 16.927 25.447 17.02 25.353C17.043 25.33 17.064 25.305 17.082 25.277C17.1 25.25 17.116 25.221 17.128 25.191C17.141 25.161 17.15 25.13 17.157 25.098C17.163 25.065 17.167 25.033 17.167 25C17.167 24.967 17.163 24.935 17.157 24.902C17.15 24.87 17.141 24.839 17.128 24.809Z" fill="currentColor"/>
<path d="M7.87201 25.191C7.88401 25.221 7.90001 25.25 7.91801 25.277C7.93601 25.305 7.95701 25.33 7.98001 25.353C8.00301 25.377 8.02801 25.398 8.05601 25.416C8.08301 25.434 8.11201 25.449 8.14201 25.462C8.17201 25.474 8.20401 25.484 8.23601 25.49C8.26801 25.497 8.30101 25.5 8.33301 25.5C8.36601 25.5 8.39901 25.497 8.43101 25.49C8.46301 25.484 8.49401 25.474 8.52501 25.462C8.55501 25.449 8.58401 25.434 8.61101 25.416C8.63801 25.398 8.66401 25.377 8.68701 25.353C8.71001 25.33 8.73101 25.305 8.74901 25.277C8.76701 25.25 8.78301 25.221 8.79501 25.191C8.80801 25.161 8.81701 25.13 8.82401 25.098C8.83001 25.065 8.83301 25.033 8.83301 25C8.83301 24.967 8.83001 24.935 8.82401 24.902C8.81701 24.87 8.80801 24.839 8.79501 24.809C8.78301 24.779 8.76701 24.749 8.74901 24.722C8.73101 24.695 8.71001 24.669 8.68701 24.647C8.66401 24.623 8.63801 24.602 8.61101 24.584C8.58401 24.566 8.55501 24.551 8.52501 24.538C8.49401 24.526 8.46301 24.516 8.43101 24.51C8.36701 24.497 8.30001 24.497 8.23601 24.51C8.20401 24.516 8.17201 24.526 8.14201 24.538C8.11201 24.551 8.08301 24.566 8.05601 24.584C8.02801 24.602 8.00301 24.623 7.98001 24.647C7.95701 24.669 7.93601 24.695 7.91801 24.722C7.90001 24.749 7.88401 24.779 7.87201 24.809C7.85901 24.839 7.85001 24.87 7.84301 24.902C7.83701 24.935 7.83301 24.967 7.83301 25C7.83301 25.033 7.83701 25.065 7.84301 25.098C7.85001 25.13 7.85901 25.161 7.87201 25.191Z" fill="currentColor"/>
<path d="M25.278 16.251C25.25 16.233 25.221 16.218 25.191 16.205C25.161 16.193 25.13 16.183 25.098 16.177C24.935 16.144 24.763 16.197 24.646 16.313C24.553 16.406 24.5 16.535 24.5 16.667C24.5 16.699 24.503 16.732 24.51 16.764C24.516 16.796 24.526 16.828 24.538 16.858C24.551 16.888 24.566 16.917 24.584 16.944C24.603 16.972 24.623 16.997 24.646 17.02C24.74 17.113 24.868 17.167 25 17.167C25.033 17.167 25.065 17.163 25.098 17.157C25.13 17.151 25.161 17.141 25.191 17.128C25.221 17.116 25.251 17.1 25.278 17.082C25.305 17.064 25.331 17.043 25.354 17.02C25.377 16.997 25.398 16.972 25.416 16.944C25.434 16.917 25.449 16.888 25.462 16.858C25.474 16.828 25.484 16.796 25.49 16.764C25.497 16.732 25.5 16.699 25.5 16.667C25.5 16.535 25.447 16.406 25.354 16.313C25.331 16.29 25.305 16.269 25.278 16.251Z" fill="currentColor"/>
<path d="M25.462 8.142C25.449 8.112 25.434 8.083 25.416 8.056C25.398 8.028 25.377 8.003 25.354 7.98C25.33 7.957 25.305 7.936 25.277 7.918C25.25 7.9 25.221 7.884 25.191 7.872C25.161 7.859 25.13 7.849 25.098 7.843C25.033 7.83 24.967 7.83 24.902 7.843C24.87 7.849 24.839 7.859 24.809 7.872C24.779 7.884 24.75 7.9 24.722 7.918C24.695 7.936 24.669 7.957 24.646 7.98C24.553 8.073 24.5 8.202 24.5 8.333C24.5 8.366 24.503 8.399 24.51 8.431C24.516 8.463 24.526 8.494 24.538 8.525C24.551 8.555 24.566 8.584 24.584 8.611C24.602 8.638 24.623 8.664 24.646 8.687C24.669 8.71 24.695 8.731 24.722 8.749C24.75 8.767 24.779 8.782 24.809 8.795C24.839 8.807 24.87 8.817 24.902 8.823C24.935 8.83 24.967 8.833 25 8.833C25.033 8.833 25.065 8.83 25.098 8.823C25.13 8.817 25.161 8.807 25.191 8.795C25.221 8.782 25.25 8.767 25.277 8.749C25.305 8.731 25.33 8.71 25.354 8.687C25.447 8.594 25.5 8.465 25.5 8.333C25.5 8.301 25.497 8.268 25.49 8.236C25.484 8.204 25.474 8.172 25.462 8.142Z" fill="currentColor"/>
<path d="M7.83301 8.33601V16.666H8.83301V8.83301H16.666V7.83301H7.83301V8.32901C7.83301 8.33001 7.83301 8.33101 7.83301 8.33201C7.83301 8.33301 7.83301 8.33501 7.83301 8.33601Z" fill="currentColor"/>
</svg>
