<svg width="50" height="50" viewBox="0 0 50 50" fill="none" xmlns="http://www.w3.org/2000/svg">
<path d="M50 0H0V50H50V0Z" fill="none" stroke="currentColor" stroke-width="1"/>
<path d="M33.59 32.904C29.613 30.52 25.5 28.055 25.5 25C25.5 21.945 29.613 19.48 33.59 17.096C37.806 14.569 42.166 11.956 42.166 8.33401H41.166C41.166 11.389 37.053 13.854 33.076 16.238C30.83 17.584 28.544 18.954 26.898 20.488C27.632 19.288 28.579 18.152 29.551 16.987C31.657 14.463 33.834 11.853 33.834 8.33301H32.834C32.834 11.49 30.866 13.849 28.783 16.346C27.568 17.802 26.331 19.287 25.5 20.958V8.33301H24.5V20.958C23.669 19.287 22.432 17.802 21.217 16.346C19.134 13.849 17.166 11.49 17.166 8.33301H16.166C16.166 11.853 18.343 14.463 20.449 16.987C21.421 18.153 22.368 19.288 23.102 20.488C21.455 18.954 19.169 17.583 16.924 16.238C12.946 13.854 8.83398 11.389 8.83398 8.33401H7.83398C7.83398 11.956 12.194 14.569 16.41 17.096C20.387 19.48 24.5 21.945 24.5 25C24.5 28.055 20.387 30.52 16.41 32.904C12.194 35.431 7.83398 38.044 7.83398 41.666H8.83398C8.83398 38.611 12.947 36.146 16.924 33.762C19.17 32.416 21.456 31.046 23.102 29.511C22.368 30.711 21.421 31.847 20.449 33.012C18.343 35.536 16.166 38.146 16.166 41.666H17.166C17.166 38.509 19.134 36.15 21.217 33.653C22.432 32.197 23.669 30.712 24.5 29.041V41.666H25.5V29.041C26.331 30.712 27.568 32.197 28.783 33.653C30.866 36.15 32.834 38.509 32.834 41.666H33.834C33.834 38.146 31.657 35.536 29.551 33.012C28.579 31.846 27.632 30.711 26.898 29.511C28.545 31.045 30.831 32.416 33.076 33.762C37.054 36.146 41.166 38.611 41.166 41.666H42.166C42.167 38.045 37.807 35.432 33.59 32.904Z" fill="currentColor"/>
</svg>
