<svg width="58" height="58" viewBox="0 0 58 58" fill="none" xmlns="http://www.w3.org/2000/svg">
<path d="M36.3161 40.3583H42.422L32.675 15.0621H25.9241L16.1771 40.3583H22.2833L23.8762 36.0734H33.0858L31.4187 31.3319H25.3548L29.2994 20.4475L36.3161 40.3583ZM56.4505 21.6297C56.2335 20.8483 55.4265 20.3893 54.6418 20.6072C53.8602 20.8242 53.4021 21.6339 53.6191 22.4155C54.2318 24.622 54.5423 26.9028 54.5423 29.1944C54.5423 43.1713 43.1713 54.5419 29.1944 54.5419C15.2176 54.5419 3.84677 43.1713 3.84677 29.1944C3.84677 15.2173 15.2176 3.84654 29.1944 3.84654C35.1153 3.84654 40.8443 5.94988 45.3659 9.69293C45.19 10.1128 45.0923 10.5736 45.0923 11.0571C45.0923 13.0095 46.675 14.5922 48.6274 14.5922C50.5798 14.5922 52.1625 13.0095 52.1625 11.0571C52.1625 9.10467 50.5798 7.52197 48.6274 7.52197C48.2515 7.52197 47.8898 7.58186 47.5499 7.69058C42.4584 3.35154 35.9374 0.908325 29.1944 0.908325C13.5975 0.908325 0.908325 13.5973 0.908325 29.1944C0.908325 44.7914 13.5975 57.4803 29.1944 57.4803C44.7914 57.4803 57.4806 44.7914 57.4806 29.1944C57.4806 26.6372 57.1343 24.0919 56.4505 21.6297Z" fill="currentColor"/>
</svg>
