<svg width="74" height="73" viewBox="0 0 74 73" fill="none" xmlns="http://www.w3.org/2000/svg">
<path d="M53.1909 21.0084C53.474 21.2179 53.7431 21.4396 54.006 21.6645L58.2586 18.4045L58.3911 18.2361C57.7397 17.5932 57.0403 16.9853 56.2841 16.4265C46.5257 9.22882 31.7802 12.2415 23.3512 23.1567C14.9217 34.0715 15.9993 48.7526 25.7577 55.9517C33.725 61.8285 45.0153 60.8966 53.4796 54.4162L53.4702 54.3997L49.4226 51.2971C43.1508 55.2377 35.3698 55.5214 29.7412 51.3701C22.2451 45.8416 21.4176 34.5624 27.8925 26.1774C34.3685 17.7936 45.6948 15.4795 53.1909 21.0084Z" fill="currentColor"/>
</svg>
