<svg width="56" height="58" viewBox="0 0 56 58" fill="none" xmlns="http://www.w3.org/2000/svg">
<path d="M6.48747 42.5397L8.46082 43.7136L30.4447 4.48364L28.4714 3.30976L6.48747 42.5397Z" fill="currentColor"/>
<path d="M50.0035 39.4058H6.03564V41.7535H50.0035V39.4058Z" fill="currentColor"/>
<path d="M6.90567 40.7247L28.8978 53.807L30.0372 51.7739L8.04502 38.6915L6.90567 40.7247Z" fill="currentColor"/>
<path d="M26.0102 6.62879L48.0023 19.7111L49.1417 17.678L27.1495 4.59564L26.0102 6.62879Z" fill="currentColor"/>
<path d="M6.91168 17.6691L8.05103 19.7022L30.0432 6.61988L28.9038 4.58673L6.91168 17.6691Z" fill="currentColor"/>
<path d="M25.6131 4.48419L47.597 43.7142L49.5704 42.5403L27.5865 3.31031L25.6131 4.48419Z" fill="currentColor"/>
<path d="M10.0577 16.1121H7.77905V42.2768H10.0577V16.1121Z" fill="currentColor"/>
<path d="M48.2738 16.1121H45.9951V42.2768H48.2738V16.1121Z" fill="currentColor"/>
<path d="M27.5147 51.0374L28.5099 52.8134L47.6371 41.4353L46.6419 39.6593L27.5147 51.0374Z" fill="currentColor"/>
<path d="M51.2937 43.0405C49.9759 45.4024 47.0383 46.2086 44.7459 44.8508C42.4535 43.4931 41.671 40.4665 42.9888 38.1046C44.3066 35.7427 47.2442 34.9365 49.5366 36.2943C51.8428 37.6661 52.6252 40.6786 51.2937 43.0405Z" fill="currentColor"/>
<path d="M13.0502 20.2843C11.7324 22.6462 8.79477 23.4524 6.50235 22.0947C4.20993 20.7369 3.42748 17.7103 4.74528 15.3484C6.06308 12.9865 9.00068 12.1804 11.2931 13.5381C13.5855 14.91 14.368 17.9225 13.0502 20.2843Z" fill="currentColor"/>
<path d="M4.75993 43.0405C3.44213 40.6786 4.22457 37.6661 6.517 36.2943C8.80942 34.9365 11.7333 35.7427 13.0648 38.1046C14.3826 40.4665 13.6002 43.4789 11.3077 44.8508C9.0016 46.2086 6.07773 45.4024 4.75993 43.0405Z" fill="currentColor"/>
<path d="M43.0027 20.2843C41.6849 17.9225 42.4674 14.91 44.7598 13.5381C47.0522 12.1804 49.9761 12.9865 51.3076 15.3484C52.6254 17.7103 51.843 20.7228 49.5505 22.0947C47.2581 23.4524 44.3205 22.6462 43.0027 20.2843Z" fill="currentColor"/>
<path d="M28.0263 56.8866C25.377 56.8866 23.2356 54.6802 23.2356 51.9506C23.2356 49.221 25.377 47.0147 28.0263 47.0147C30.6757 47.0147 32.8171 49.221 32.8171 51.9506C32.8171 54.6661 30.6757 56.8866 28.0263 56.8866Z" fill="currentColor"/>
<path d="M28.0263 11.3742C25.377 11.3742 23.2356 9.16792 23.2356 6.43831C23.2356 3.7087 25.377 1.50238 28.0263 1.50238C30.6757 1.50238 32.8171 3.7087 32.8171 6.43831C32.8171 9.16792 30.6757 11.3742 28.0263 11.3742Z" fill="currentColor"/>
</svg>
