<svg width="56" height="58" viewBox="0 0 56 58" fill="none" xmlns="http://www.w3.org/2000/svg">
<path fill-rule="evenodd" clip-rule="evenodd" d="M55.0699 13.4891C55.0901 13.5632 55.1004 13.6397 55.1006 13.7165V25.6532C55.1006 25.8064 55.0598 25.9569 54.9823 26.0895C54.9048 26.2221 54.7933 26.332 54.6592 26.4082L44.5462 32.1764V43.6095C44.5462 43.9206 44.3792 44.2078 44.1069 44.3645L22.9968 56.4035C22.9485 56.4307 22.8958 56.4481 22.8431 56.4666C22.8233 56.4731 22.8047 56.4851 22.7838 56.4905C22.6362 56.529 22.4811 56.529 22.3335 56.4905C22.3094 56.484 22.2874 56.4709 22.2644 56.4622C22.216 56.4448 22.1655 56.4296 22.1194 56.4035L1.01373 44.3645C0.879651 44.2882 0.768245 44.1782 0.690741 44.0456C0.613236 43.9131 0.572372 43.7626 0.572266 43.6095L0.572266 7.79924C0.572266 7.72091 0.583247 7.64475 0.603014 7.57077C0.609603 7.54575 0.624978 7.52291 0.633763 7.49788C0.650235 7.45219 0.66561 7.40541 0.689769 7.36298C0.706242 7.33469 0.730402 7.31185 0.750169 7.28574C0.775426 7.25092 0.798488 7.21502 0.828138 7.18456C0.853396 7.15954 0.886341 7.14104 0.914894 7.11928C0.94674 7.09317 0.975293 7.06489 1.01153 7.04422H1.01263L11.566 1.02472C11.6996 0.948539 11.8511 0.908447 12.0053 0.908447C12.1594 0.908447 12.3109 0.948539 12.4445 1.02472L22.9979 7.04422H23.0001C23.0353 7.06598 23.0649 7.09317 23.0968 7.1182C23.1253 7.13996 23.1572 7.15954 23.1824 7.18347C23.2132 7.21502 23.2351 7.25092 23.2615 7.28574C23.2802 7.31185 23.3054 7.33469 23.3208 7.36298C23.346 7.4065 23.3603 7.45219 23.3779 7.49788C23.3867 7.52291 23.4021 7.54575 23.4086 7.57186C23.4289 7.646 23.4392 7.72244 23.4394 7.79924V30.1659L32.2335 25.1495V13.7154C32.2335 13.6392 32.2445 13.562 32.2643 13.4891C32.2719 13.463 32.2862 13.4401 32.295 13.4151C32.3126 13.3694 32.328 13.3226 32.3521 13.2802C32.3686 13.2519 32.3927 13.2291 32.4114 13.203C32.4378 13.1682 32.4597 13.1323 32.4905 13.1018C32.5157 13.0768 32.5476 13.0583 32.5761 13.0365C32.6091 13.0104 32.6376 12.9821 32.6728 12.9615H32.6739L43.2284 6.94195C43.3619 6.86567 43.5134 6.82552 43.6676 6.82552C43.8218 6.82552 43.9733 6.86567 44.1069 6.94195L54.6603 12.9615C54.6976 12.9832 54.7262 13.0104 54.7591 13.0354C54.7866 13.0572 54.8184 13.0768 54.8437 13.1007C54.8744 13.1323 54.8964 13.1682 54.9227 13.203C54.9425 13.2291 54.9667 13.2519 54.982 13.2802C55.0073 13.3226 55.0216 13.3694 55.0391 13.4151C55.049 13.4401 55.0633 13.463 55.0699 13.4891ZM53.3414 25.1495V15.2233L49.6482 17.3295L44.5462 20.2397V30.1659L53.3425 25.1495H53.3414ZM42.788 43.1057V33.173L37.7694 36.0125L23.4383 44.1153V54.1417L42.788 43.1057ZM2.33153 9.30602V43.1057L21.679 54.1406V44.1164L11.5715 38.4494L11.5682 38.4472L11.5638 38.4451C11.5298 38.4255 11.5012 38.3972 11.4694 38.3733C11.4419 38.3515 11.4101 38.3341 11.3859 38.3102L11.3837 38.3069C11.3552 38.2797 11.3354 38.246 11.3112 38.2155C11.2893 38.1861 11.2629 38.1611 11.2453 38.1307L11.2443 38.1274C11.2245 38.0947 11.2124 38.0556 11.1981 38.0186C11.1839 37.986 11.1652 37.9555 11.1564 37.9207V37.9196C11.1454 37.8783 11.1432 37.8347 11.1388 37.7923C11.1344 37.7597 11.1256 37.727 11.1256 37.6944V37.6922V14.3225L6.02466 11.4112L2.33153 9.30711V9.30602ZM12.0064 2.78498L3.21336 7.79924L12.0042 12.8135L20.7961 7.79815L12.0042 2.78498H12.0064ZM16.5791 34.0781L21.6801 31.169V9.30602L17.987 11.4122L12.8849 14.3225V36.1854L16.5791 34.0781ZM43.6676 8.70222L34.8757 13.7165L43.6676 18.7307L52.4584 13.7154L43.6676 8.70222ZM42.788 20.2397L37.6859 17.3295L33.9928 15.2233V25.1495L39.0938 28.0586L42.788 30.1659V20.2397ZM22.5576 42.6086L35.4533 35.3151L41.8996 31.6705L33.1142 26.6595L22.999 32.4288L13.7799 37.6868L22.5576 42.6086Z" fill="currentColor"/>
</svg>
