<svg width="100" height="70" viewBox="0 0 100 70" fill="none" xmlns="http://www.w3.org/2000/svg">
<path d="M86.6152 33.7714C86.6152 28.9362 80.5592 24.3539 71.2742 21.5123C73.4169 12.0501 72.4646 4.5221 68.2685 2.11194C67.3013 1.54659 66.1705 1.27879 64.9355 1.27879V4.59649C65.6199 4.59649 66.1705 4.73038 66.6317 4.9833C68.6554 6.14375 69.5333 10.5624 68.8488 16.2456C68.6852 17.6441 68.4173 19.117 68.09 20.6196C65.1735 19.9055 61.9893 19.355 58.6413 18.9979C56.6326 16.2456 54.5494 13.7462 52.4514 11.5592C57.3021 7.05128 61.8554 4.58161 64.9503 4.58161V1.26392C60.8584 1.26392 55.5017 4.17992 50.0855 9.23828C44.6692 4.20967 39.3125 1.32343 35.2206 1.32343V4.64112C38.3007 4.64112 42.8688 7.09591 47.7196 11.5741C45.6364 13.7611 43.5533 16.2456 41.5743 18.9979C38.2114 19.355 35.0272 19.9055 32.1108 20.6345C31.7685 19.1467 31.5156 17.7036 31.337 16.32C30.6377 10.6368 31.5007 6.21814 33.5094 5.04281C33.9558 4.77502 34.5361 4.656 35.2206 4.656V1.3383C33.9707 1.3383 32.8399 1.6061 31.8578 2.17145C27.6766 4.58161 26.7392 12.0948 28.8967 21.5271C19.6415 24.3836 13.6152 28.951 13.6152 33.7714C13.6152 38.6066 19.6713 43.1888 28.9562 46.0304C26.8136 55.4926 27.7659 63.0206 31.962 65.4308C32.9291 65.9961 34.06 66.2639 35.3099 66.2639C39.4018 66.2639 44.7585 63.3479 50.1748 58.2895C55.591 63.3182 60.9477 66.2044 65.0396 66.2044C66.2895 66.2044 67.4204 65.9366 68.4024 65.3713C72.5836 62.9611 73.5211 55.4479 71.3635 46.0156C80.5889 43.174 86.6152 38.5917 86.6152 33.7714ZM67.2418 23.848C66.6913 25.7672 66.0068 27.7459 65.233 29.7247C64.623 28.5345 63.9832 27.3443 63.2838 26.1541C62.5993 24.9638 61.8702 23.8034 61.1411 22.6727C63.254 22.9851 65.2926 23.372 67.2418 23.848ZM60.4269 39.6926C59.2663 41.7011 58.0759 43.6054 56.8409 45.3758C54.6238 45.5692 52.377 45.6734 50.1152 45.6734C47.8684 45.6734 45.6216 45.5692 43.4194 45.3907C42.1843 43.6203 40.9791 41.7308 39.8185 39.7373C38.6876 37.7883 37.6609 35.8096 36.7235 33.816C37.646 31.8224 38.6876 29.8288 39.8036 27.8798C40.9642 25.8714 42.1546 23.9671 43.3896 22.1966C45.6067 22.0032 47.8535 21.8991 50.1152 21.8991C52.3621 21.8991 54.6089 22.0032 56.8111 22.1817C58.0461 23.9522 59.2514 25.8416 60.412 27.8352C61.5429 29.7842 62.5696 31.7629 63.507 33.7565C62.5696 35.7501 61.5429 37.7437 60.4269 39.6926ZM65.233 37.7585C66.0365 39.7521 66.721 41.7457 67.2865 43.6798C65.3372 44.1559 63.2838 44.5576 61.156 44.87C61.8851 43.7244 62.6142 42.5491 63.2987 41.344C63.9832 40.1538 64.623 38.9487 65.233 37.7585ZM50.145 53.6329C48.7612 52.2046 47.3774 50.6127 46.0084 48.8721C47.3476 48.9316 48.7165 48.9762 50.1004 48.9762C51.4991 48.9762 52.8829 48.9464 54.2369 48.8721C52.8977 50.6127 51.5139 52.2046 50.145 53.6329ZM39.0745 44.87C36.9615 44.5576 34.923 44.1708 32.9738 43.6947C33.5243 41.7755 34.2088 39.7968 34.9825 37.818C35.5926 39.0083 36.2324 40.1985 36.9318 41.3887C37.6311 42.5789 38.3454 43.7393 39.0745 44.87ZM50.0706 13.9098C51.4544 15.3381 52.8382 16.93 54.2072 18.6706C52.868 18.6111 51.4991 18.5665 50.1152 18.5665C48.7165 18.5665 47.3327 18.5963 45.9787 18.6706C47.3178 16.93 48.7017 15.3381 50.0706 13.9098ZM39.0596 22.6727C38.3305 23.8183 37.6014 24.9936 36.9169 26.1987C36.2324 27.3889 35.5926 28.5791 34.9825 29.7693C34.179 27.7757 33.4946 25.7821 32.9291 23.848C34.8784 23.3868 36.9318 22.9851 39.0596 22.6727ZM25.5934 41.2994C20.326 39.0529 16.9185 36.1071 16.9185 33.7714C16.9185 31.4356 20.326 28.4749 25.5934 26.2433C26.8731 25.6928 28.2718 25.2019 29.7151 24.7407C30.5633 27.6567 31.6792 30.6917 33.0631 33.8011C31.6941 36.8956 30.593 39.9158 29.7598 42.8169C28.2867 42.3557 26.888 41.8499 25.5934 41.2994ZM33.5987 62.5594C31.5751 61.399 30.6972 56.9803 31.3816 51.2971C31.5453 49.8986 31.8132 48.4257 32.1405 46.9231C35.0569 47.6372 38.2412 48.1877 41.5891 48.5448C43.5979 51.2971 45.6811 53.7965 47.7791 55.9835C42.9283 60.4914 38.3751 62.9611 35.2801 62.9611C34.6105 62.9462 34.0451 62.8123 33.5987 62.5594ZM68.8935 51.2227C69.5928 56.9059 68.7298 61.3246 66.721 62.4999C66.2746 62.7677 65.6943 62.8867 65.0098 62.8867C61.9297 62.8867 57.3617 60.4319 52.5109 55.9538C54.594 53.7668 56.6772 51.2822 58.6562 48.5299C62.019 48.1728 65.2033 47.6223 68.1197 46.8934C68.462 48.396 68.7298 49.8391 68.8935 51.2227ZM74.6222 41.2994C73.3425 41.8499 71.9438 42.3408 70.5005 42.802C69.6523 39.886 68.5364 36.851 67.1525 33.7416C68.5215 30.6471 69.6226 27.6269 70.4558 24.7258C71.9289 25.187 73.3276 25.6928 74.637 26.2433C79.9045 28.4898 83.3119 31.4356 83.3119 33.7714C83.2971 36.1071 79.8896 39.0678 74.6222 41.2994Z" fill="currentColor"/>
<path d="M49.1152 41.2639C52.7051 41.2639 55.6152 37.9061 55.6152 33.7639C55.6152 29.6218 52.7051 26.2639 49.1152 26.2639C45.5254 26.2639 42.6152 29.6218 42.6152 33.7639C42.6152 37.9061 45.5254 41.2639 49.1152 41.2639Z" fill="currentColor"/>
</svg>
