<svg width="56" height="56" viewBox="0 0 56 56" fill="none" xmlns="http://www.w3.org/2000/svg">
<path d="M4.4596 28.0265C4.4596 37.3492 9.85624 45.4057 17.6818 49.2236L6.49076 18.4413C5.18903 21.3705 4.4596 24.612 4.4596 28.0265ZM43.7579 26.838C43.7579 23.9272 42.7164 21.9114 41.8232 20.3424C40.6339 18.4023 39.5192 16.7594 39.5192 14.8193C39.5192 12.6542 41.1549 10.6388 43.4588 10.6388C43.5628 10.6388 43.6615 10.6518 43.7628 10.6577C39.5889 6.81872 34.028 4.47484 27.9202 4.47484C19.7241 4.47484 12.5133 8.69651 8.31836 15.0909C8.86878 15.1074 9.38751 15.1191 9.82811 15.1191C12.282 15.1191 16.0805 14.8202 16.0805 14.8202C17.3452 14.7453 17.4943 16.6101 16.231 16.7603C16.231 16.7603 14.96 16.9104 13.5458 16.9848L22.0892 42.4963L27.2233 27.0379L23.5681 16.9839C22.3048 16.9095 21.108 16.7594 21.108 16.7594C19.8438 16.685 19.992 14.7444 21.2562 14.8193C21.2562 14.8193 25.1306 15.1182 27.4358 15.1182C29.8893 15.1182 33.6882 14.8193 33.6882 14.8193C34.9538 14.7444 35.1025 16.6092 33.8387 16.7594C33.8387 16.7594 32.5651 16.9095 31.1535 16.9839L39.6317 42.3022L41.9718 34.4518C42.9861 31.1941 43.7579 28.8543 43.7579 26.838ZM28.3318 30.0867L21.2928 50.621C23.3945 51.2412 25.6172 51.5805 27.9202 51.5805C30.6522 51.5805 33.2722 51.1063 35.7109 50.2454C35.648 50.1446 35.5908 50.0375 35.544 49.921L28.3318 30.0867ZM48.5059 16.7266C48.6068 17.4769 48.6639 18.2822 48.6639 19.1485C48.6639 21.5385 48.2193 24.2253 46.8801 27.5847L39.7139 48.3851C46.6886 44.3019 51.3799 36.7159 51.3799 28.027C51.3803 23.9322 50.3384 20.0816 48.5059 16.7266ZM27.9202 0.572266C12.8409 0.572266 0.572266 12.8882 0.572266 28.0265C0.572266 43.1667 12.8409 55.4822 27.9202 55.4822C42.999 55.4822 55.2694 43.1667 55.2694 28.0265C55.269 12.8882 42.999 0.572266 27.9202 0.572266ZM27.9202 54.2237C13.5324 54.2237 1.82623 42.4716 1.82623 28.0265C1.82623 13.5824 13.532 1.83115 27.9202 1.83115C42.3075 1.83115 54.0128 13.5824 54.0128 28.0265C54.0128 42.4716 42.3075 54.2237 27.9202 54.2237Z" fill="currentColor"/>
</svg>
