
<svg viewBox="0 0 173 45" fill="none" xmlns="http://www.w3.org/2000/svg">
  <path fill-rule="evenodd" clip-rule="evenodd" d="M40.67 21.05a20 20 0 1 1-40 0 20 20 0 0 1 40 0zM27 18.03h-4.85l1.62-9.13h-1.62l-8.21 13.6c-.66 1.12.21 1.47.21 1.47l4.92.03-1.48 9.09h1.55l8.35-13.9c.53-1.16-.5-1.16-.5-1.16z" fill="#fff"/>
  <path d="M70.83 42H72l-3.1-7.8h-1.24l-3.1 7.8h1.15l.82-2.18H70l.84 2.18zm-2.58-6.68l1.35 3.5h-2.68l1.33-3.5zm6.31 5.3c.09.61.7 1.55 2.16 1.55 1.3 0 1.93-.9 1.93-1.64 0-.79-.5-1.37-1.46-1.58l-.86-.18c-.4-.1-.6-.32-.6-.64 0-.37.35-.7.88-.7.83 0 1.05.6 1.1.87l.91-.34c-.11-.47-.56-1.42-2.01-1.42-1.04 0-1.88.77-1.88 1.68 0 .74.5 1.3 1.32 1.48l.9.2c.44.1.68.35.68.68 0 .38-.32.7-.9.7-.75 0-1.17-.44-1.23-.98l-.94.33zm5.74-1.81c.05-.68.58-1.35 1.44-1.35.94 0 1.43.6 1.46 1.35h-2.9zm3.05 1.38c-.2.59-.63 1.06-1.48 1.06-.9 0-1.58-.66-1.6-1.6h3.98l.02-.33c0-1.65-.9-2.78-2.54-2.78-1.33 0-2.53 1.14-2.53 2.8 0 1.8 1.25 2.82 2.66 2.82a2.4 2.4 0 0 0 2.38-1.67l-.89-.3zm4.84-3.54c-.06 0-.2-.03-.34-.03-.54 0-1.2.2-1.59 1.01v-.92h-1.01V42h1.03v-2.65c0-1.17.59-1.63 1.46-1.63l.45.03v-1.1zm5.45.06h-1.11L91 40.79l-1.5-4.08h-1.17L90.48 42h1.05l2.1-5.3zM95.3 42v-5.3h-1.03V42h1.03zm-1.26-7.3c0 .41.33.74.74.74.42 0 .75-.33.75-.73a.74.74 0 1 0-1.49 0zm4.9 2.8c.9 0 1.28.6 1.41 1.12l.94-.4c-.22-.8-.95-1.68-2.36-1.68-1.5 0-2.66 1.16-2.66 2.8 0 1.61 1.14 2.82 2.68 2.82 1.37 0 2.13-.89 2.38-1.64l-.91-.4a1.44 1.44 0 0 1-1.47 1.09c-.86 0-1.62-.65-1.62-1.86 0-1.23.77-1.85 1.6-1.85zm3.88 1.31c.04-.68.57-1.35 1.44-1.35.94 0 1.43.6 1.45 1.35h-2.9zm3.05 1.38c-.2.59-.63 1.06-1.49 1.06-.89 0-1.57-.66-1.6-1.6h3.99l.02-.33c0-1.65-.91-2.78-2.54-2.78-1.33 0-2.53 1.14-2.53 2.8 0 1.8 1.24 2.82 2.66 2.82a2.4 2.4 0 0 0 2.38-1.67l-.9-.3zM111.2 42v-.77c.33.57.93.91 1.71.91 1.58 0 2.47-1.24 2.47-2.81 0-1.54-.83-2.77-2.44-2.77-.88 0-1.5.42-1.74.9v-3.42h-1.03V42h1.03zm3.12-2.67c0 1.14-.62 1.89-1.56 1.89-.91 0-1.58-.75-1.58-1.9 0-1.14.67-1.85 1.58-1.85.95 0 1.56.71 1.56 1.86zm3.14 4.88l3.44-7.5h-1.11l-1.59 3.65-1.65-3.65h-1.19l2.28 4.7-1.32 2.8h1.14zm12.3-10h-1.28l-2 3.05-1.97-3.06h-1.3l2.64 3.9-2.67 3.9h1.27l2.01-3.05 1.97 3.05h1.29l-2.62-3.9 2.65-3.9zm7.95 6.16l-2-6.17h-1.13l-1.96 6.1-1.72-6.1h-1.1l2.25 7.8h1.08l2-6.33 2.04 6.33h1.11l2.23-7.8h-1.11l-1.69 6.17zm4.69-2.53v-2.67h1.56c.93 0 1.5.53 1.5 1.35 0 .8-.57 1.32-1.5 1.32h-1.56zm1.75.97c1.45 0 2.41-.98 2.41-2.3 0-1.3-.96-2.3-2.4-2.3h-2.84V42h1.07v-3.19h1.76zM76.99 24h3.6L74.1 6.98h-3.84L63.74 24h3.5l1.42-3.89h6.91L77 24zm-4.87-13.34l2.35 6.43h-4.7l2.35-6.43zM101.75 24V6.98h-4.51l-5 12.3-5.1-12.3h-4.38V24h3.17V12.17L90.83 24h2.76l4.9-11.93V24h3.26zm7.22-9.26V9.86h2.62c1.66 0 2.66.94 2.66 2.45 0 1.47-1 2.43-2.66 2.43h-2.62zm3.03 2.85c3.36 0 5.6-2.2 5.6-5.3 0-3.07-2.24-5.3-5.6-5.3h-6.36V24h3.31v-6.4H112zM123.48 24V6.98h-3.36V24h3.36zm16.27 0v-3.17h-9.12l9-10.75v-3.1h-12.96v3.15h8.54l-8.85 10.65V24h13.39zm13.62 0v-3.12h-7.34v-3.94h6.65V14h-6.65V10.1h7.34V6.98h-10.65V24h10.65zm6.63-3.07V10.06h2.66c2.79 0 5.09 1.75 5.09 5.44 0 3.7-2.33 5.43-5.11 5.43H160zm2.76 3.07c4.85 0 8.42-3.12 8.42-8.5 0-5.37-3.55-8.52-8.4-8.52h-6.1V24h6.08z" fill="#fff"/>
</svg>
