<svg xmlns="http://www.w3.org/2000/svg" viewBox="0 0 152 41" fill="currentColor">
  <path fill="none" d="M1 11v15.7c0 .9.3 1.8.9 2.6l7.9 10.1c.5.7 1.6.7 2.1 0l7.9-10.1c.6-.7.9-1.6.9-2.6V11c0-5.4-4.4-9.8-9.8-9.8C5.4 1.2 1 5.6 1 11z"/><path d="M34.9 27.5l5.8-13c.4-.9 1.1-1.4 2.1-1.4h.2c1 0 1.7.5 2.1 1.4l5.8 13c.1.3.2.5.2.7 0 1-.8 1.8-1.7 1.8-.9 0-1.4-.5-1.8-1.3l-1.1-2.6h-7.3L38 28.8c-.3.7-.9 1.1-1.7 1.1-.9 0-1.7-.8-1.7-1.7.1-.2.2-.5.3-.7zm10.2-4.6l-2.3-5.5-2.3 5.5h4.6zM54.7 15c0-1 .8-1.8 1.8-1.8h5.8c2.1 0 3.7.6 4.8 1.7.9.9 1.4 2.2 1.4 3.8 0 2.6-1.3 4.2-3.3 5l2.5 3.1c.4.5.6.8.6 1.4 0 1-.9 1.7-1.7 1.7-.8 0-1.4-.4-1.8-.9l-3.6-4.5h-2.9v3.6c0 1-.8 1.8-1.8 1.8s-1.8-.8-1.8-1.8V15zm7.3 6.3c1.8 0 2.8-.9 2.8-2.3 0-1.6-1.1-2.4-2.9-2.4h-3.6v4.8H62zM76.8 16.6h-3.5c-.9 0-1.7-.8-1.7-1.7s.8-1.7 1.7-1.7H84c.9 0 1.7.8 1.7 1.7s-.8 1.7-1.7 1.7h-3.5v11.5c0 1-.8 1.8-1.8 1.8s-1.8-.8-1.8-1.8V16.6zM88.6 15c0-1 .8-1.8 1.8-1.8h5.9c1.9 0 3.4.5 4.3 1.5.8.8 1.1 1.7 1.1 2.8 0 1.9-1 2.9-2.2 3.6 1.9.7 3.1 1.8 3.1 4.1 0 3-2.5 4.5-6.2 4.5h-6.1c-1 0-1.8-.8-1.8-1.8V15zm6.9 4.9c1.6 0 2.6-.5 2.6-1.8 0-1.1-.9-1.7-2.4-1.7h-3.6v3.5h3.4zm1 6.7c1.6 0 2.6-.6 2.6-1.8 0-1.1-.8-1.8-2.7-1.8h-4.2v3.6h4.3zM106.4 28V15c0-1 .8-1.8 1.8-1.8h9.2c.9 0 1.6.7 1.6 1.6 0 .9-.7 1.6-1.6 1.6H110v3.4h4.7c.9 0 1.6.7 1.6 1.6 0 .9-.7 1.6-1.6 1.6H110v3.5h7.5c.9 0 1.6.7 1.6 1.6 0 .9-.7 1.6-1.6 1.6h-9.3c-1 .1-1.8-.7-1.8-1.7zM123 28V15c0-1 .8-1.8 1.8-1.8h9.2c.9 0 1.6.7 1.6 1.6 0 .9-.7 1.6-1.6 1.6h-7.4v3.4h4.7c.9 0 1.6.7 1.6 1.6 0 .9-.7 1.6-1.6 1.6h-4.7v3.5h7.5c.9 0 1.6.7 1.6 1.6 0 .9-.7 1.6-1.6 1.6h-9.3c-1 .1-1.8-.7-1.8-1.7zM139.7 28c-.4-.3-.7-.8-.7-1.4 0-.9.8-1.7 1.7-1.7.5 0 .8.2 1 .3 1.3.9 2.6 1.5 4.2 1.5 1.5 0 2.4-.6 2.4-1.6 0-.9-.6-1.4-3.3-2.1-3.3-.9-5.5-1.8-5.5-5.1 0-3 2.4-5 5.8-5 2 0 3.8.5 5.3 1.5.4.2.8.7.8 1.4 0 .9-.8 1.7-1.7 1.7-.4 0-.6-.1-.9-.3-1.2-.7-2.3-1.1-3.5-1.1-1.4 0-2.1.6-2.1 1.4 0 1.1.7 1.4 3.6 2.2 3.4.9 5.3 2.1 5.3 5 0 3.3-2.5 5.1-6.1 5.1-2.3.2-4.5-.4-6.3-1.8z"/><g><path fill="none" d="M5.2 33.5l4.6 5.8c.5.7 1.6.7 2.1 0l4.6-5.8H5.2z"/></g><g><circle cx="13.6" cy="8.5" r="1.6"/></g><g><circle cx="8.4" cy="8.5" r="1.6"/></g><path d="M21.6 11C21.6 5 16.7.2 10.8.2S0 5 0 11v15.7c0 1.1.4 2.3 1.1 3.2l7.9 10c.4.6 1.1.9 1.8.9s1.4-.3 1.8-.9l7.9-10.1c.7-.9 1.1-2 1.1-3.2V11zM11.1 38.7c-.2.2-.3.2-.5 0l-3.3-4.2h7.1l-3.3 4.2zm4.8-6.2H5.7l-3-3.9c-.4-.6-.7-1.2-.7-2V11c0-4.9 4-8.8 8.8-8.8s8.8 4 8.8 8.8v2.5h-14v2h14v3.9h-14v2h14v3.9h-14v2h14c-.1.5-.3 1-.6 1.4l-3.1 3.8z"/>
</svg>
