<svg xmlns="http://www.w3.org/2000/svg" viewBox="0 0 34 54" id="icon-crest-light">
	<g fill="#FFF" fill-rule="evenodd">
		<path d="M16.66422 15.99938c5.37452 2.57468 12.14898.98525 15.45724-.05196V41.1043c.1345 5.84626-3.81362 7.81574-7.6629 8.694-2.71325.61845-4.82333 1.1768-7.79434 2.61645-2.97204-1.43966-5.0811-1.998-7.79434-2.61645-3.8503-.87826-7.7974-2.84774-7.66291-8.694V15.94742c3.30826 1.03721 10.0817 2.62664 15.45725.05196zm14.85713.74887V41.1043c.17932 5.00468-2.96797 7.09234-7.0628 8.07351-2.54818.60928-4.73875 1.10547-7.79433 2.57468-3.0566-1.4692-5.24616-1.9654-7.79434-2.57468-4.09585-.98117-7.24314-3.06883-7.06382-8.0735V16.74824c2.80597.8314 9.50095 2.36683 14.85816-.0917 5.3572 2.45853 12.05116.9231 14.85713.0917z"></path>
		<path d="M16.66422 14.68505c5.5457 2.92415 12.6095.96283 16.64932-.33827l.00305 26.74528c.24453 6.6848-4.80294 9.08016-8.89675 9.94416-2.63581.5563-4.7846 1.2634-7.75562 2.70509-2.97204-1.4417-5.11982-2.1488-7.75563-2.7051-4.0938-.864-9.14118-3.25935-8.89777-9.94415l.00407-26.74528c4.0388 1.3011 11.1026 3.26242 16.64933.33827zm16.05175.46236c-3.7912 1.27562-10.76026 2.87728-16.05226.1946-5.29099 2.68268-12.25902 1.08102-16.05227-.1946L.60838 41.10205C.43212 47.24378 4.8968 49.54439 8.9091 50.4145c2.63174.57159 4.78257 1.22264 7.7546 2.66332 2.97204-1.44068 5.1239-2.09173 7.75563-2.66332 4.0123-.87011 8.47596-3.17072 8.2997-9.31245l-.00306-25.95464z"></path>
		<path d="M4.8102 24.28482l1.4529 1.08.2751-.36883.33113.24656-.53593.72136-1.78607-1.32656zM6.96418 21.9623l.35457-.29852 1.8411 1.35713-.35865.3026-.30362-.23331-.34132.2863.18034.33826-.33419.28121-1.03823-2.03366zm1.2583.90273l-.23637.20071-.30974-.51452-.18034-.28834.00408-.00306.25472.22415.46766.38106zM10.5883 20.3313c.07336.1508.03668.29446-.11208.36782l-.23943-.48804c.14773-.08253.28019-.02547.3515.12023zm.45645 1.55072l-.38411.18951-.98117-1.99698.38615-.19053c.15385-.0754.28936-.13449.46664-.09373.18442.04075.34336.1834.42487.34947.08864.17728.08864.34438-.0112.5186.20376-.00102.3892.17015.47478.34234.19359.39532-.01528.70506-.37596.88132zm-.03566-.7346c.08151.1671.04585.3291-.11615.39838l-.26592-.54c.15384-.08253.30566-.01529.38207.14162zM13.68545 18.58955c.38412-.07947.82834.14774.9985.96487.16913.81815-.14876 1.20328-.53287 1.28275-.38514.07948-.82936-.14773-.99951-.96588-.16914-.81714.14977-1.20227.53388-1.28174zm-.07336 1.18698c-.03973-.19358-.13041-.72849.1559-.7886.28527-.05808.4167.46868.45644.66226.03668.17321.13042.7285-.15588.78759-.2863.06011-.41978-.48804-.45646-.66125zM17.17518 20.54629l-.43913-.02242.11003-2.22215.4422.02242c.28018.01426.77943.06826.74988.6755-.01223.24351-.12023.4483-.34438.55834l.33623 1.03008-.46257-.02241-.3352-1.04536h-.00612l-.05094 1.026zm.09271-1.86046l.0591.00408c.2211-.00204.2914.13143.28324.2914-.00917.18237-.09475.3138-.29547.30362l-.07641-.00611.02954-.59299zM20.8915 18.9055l.44219.13653-.14672 2.28328-.4483-.13856.03158-.38208-.42588-.13245-.18646.3352-.41671-.12939 1.1503-1.97253zm-.0805 1.54664l-.29648-.09068.26592-.53898.14468-.3077.0051.00204-.05197.33623-.06724.5991zM26.08304 21.62782l-.9231 1.10445c-.108.1294-.2863.31075-.1029.4646.16505.13755.26898.01325.378-.11207l.9832-1.1768.33725.28121-1.04026 1.24608c-.1508.18136-.42895.47173-.91597.0652-.31483-.26286-.38003-.56649-.11309-.88641l1.05962-1.2685.33725.28224zM29.0131 24.79354l-.33113.24555-.20785-.27917-1.45597 1.07898-.26184-.35355 1.45596-1.07898-.2048-.27713.33114-.24657zM28.4843 42.13467c-.13143.45645-.94652 3.27362-1.09732 3.7963-6.81928-2.62052-13.14747-2.6083-20.99071.0428.03362-.64393.13041-2.47483.13041-2.47483s-.84464-.89763-1.23894-1.31638c7.28694-2.83245 15.89638-2.85487 23.19657-.04789zM8.51389 44.32025l-.42486.11003-.55529-2.1549.42895-.11004c.27203-.0703.76517-.16608.91596.42283.06113.23638.01834.46358-.162.63577l.62558.88336-.4483.11513-.62966-.89762-.00611.00102.25573.99442zm-.46358-1.80238l.14875.57362.07336-.0163c.1946-.04993.23842-.20072.19359-.378-.04076-.15385-.14774-.26083-.35865-.1946l-.05705.01528zm2.5758-.94388l.07845.4055-.43811.0856.09271.47479.38616-.07438.07845.4055-.38615.07438.09577.49212.4432-.08559.07846.40551-.87419.16913L9.757 41.7421l.8691-.16811zm2.53565 1.54348l.216.16811-.1997.24657-.1946-.162c-.10392.10596-.23026.1671-.38513.18645-.3892.05197-.81611-.20785-.92513-1.03517-.108-.82834.2374-1.18901.6266-1.23894.38921-.05196.81612.20683.92412 1.03517.03464.26083.04075.56343-.06216.79981zm-.6154-.5023l.22722.19358c.01834-.13041.00713-.26286-.01529-.42996-.02547-.19664-.11513-.73154-.4055-.69385-.28936.03872-.23944.57872-.21397.77536.02344.17525.11615.73155.40653.69385.03974-.0051.06826-.0214.09985-.05196l-.29547-.23842.19664-.2486zm1.9224-1.51628l.0917 1.4366c.01121.16812.00612.42283.24453.40755.21499-.01426.20378-.17626.19767-.3403l-.09782-1.53136.43812-.02955.10392 1.62102c.01528.23536.01325.6368-.61947.67755-.40857.0265-.66532-.14977-.69181-.56547l-.10596-1.64853.43913-.0275zm2.32293-.08793l.02649 2.22521-.43914.0051-.02649-2.22521.43914-.0051zm1.89499.03566l-.01325.41366-.44524-.01528-.01732.48294.39226.01427-.01324.41264-.39227-.01325-.0163.50129.45034.01528-.01325.41366-.89049-.03057.07336-2.22418.8854.02954zm1.84853.63843c-.0815-.08457-.18442-.15793-.30464-.16914-.13551-.01222-.22823.06317-.23944.19868-.0326.36374.63374.44321.58076 1.04332-.03464.39329-.28732.67042-.69793.63476-.12328-.01121-.27305-.06215-.36679-.1457l.03668-.41672c.0968.0805.19155.13653.32196.14672.1406.01223.26083-.07132.27408-.21804.01426-.17117-.11513-.24758-.23128-.34641-.2374-.19359-.37902-.37189-.3505-.69487.03057-.34947.2588-.63374.63578-.60113.14162.0112.26389.06113.37902.14264l-.0377.42589zm2.17467.19827c-.05298-.02344-.10494-.03872-.15996-.04687-.3831-.05502-.5991.26796-.648.60623-.04789.32705.06011.75498.44015.80898.05502.00917.11208.00203.17117-.00714l-.06011.4106c-.06827.01835-.13653.01937-.20683.00918-.62763-.09068-.89253-.7071-.80898-1.28581.07845-.54612.52166-1.05453 1.11464-.96793.07641.01121.14671.03566.216.07234l-.05808.40042zm1.3717-.17138l.4534.09476.06725 2.28634-.45951-.09578-.00306-.3841-.4371-.09069-.15486.35151-.4269-.09068.96078-2.07136zm.06521 1.54664l.0112-.60215.01937-.3403-.0051-.00102-.11513.31993-.21294.5614.3026.06214zm2.53576-.39613c-.06419-.09781-.15283-.1885-.26898-.2211-.13042-.03566-.23434.02038-.27102.15182-.09781.35252.54204.55018.38208 1.13094-.10495.38106-.40348.60724-.80084.49823-.12022-.03363-.25777-.11106-.3352-.20887l.1131-.40347c.08048.09577.16403.1681.28935.20275.13653.03668.26898-.02445.30872-.16607.04585-.16608-.06827-.2639-.16404-.38208-.19868-.2323-.30566-.43302-.22008-.74581.09272-.33827.37087-.5777.7346-.47785.13654.0377.24861.10902.34642.20887l-.11411.41264zM9.76322 39.01653c.69792-.43404 1.20023-1.0525 1.34185-1.65872.01528-.06826.02547-.13653.03158-.2048.77027 1.05556 1.83295 1.88288 3.06883 2.3648-2.06422.16608-4.10705.51962-6.08468 1.05962-.38615-.44422-.7397-.918-1.05554-1.41826.15996.15487.36883.26592.61743.324.60419.14162 1.3826-.0326 2.08053-.46664z"></path>
		<path d="M16.6961 21.72522c6.2742 0 11.37974 5.10453 11.37974 11.37973 0 2.80597-1.02192 5.37657-2.7112 7.36234-1.98476-.51452-4.03167-.84158-6.0959-.98218 2.52374-1.02091 4.30982-3.49574 4.30982-6.38016 0-3.79426-3.08819-6.88245-6.88245-6.88245-3.79529 0-6.88246 3.0882-6.88246 6.88245 0 1.02091.22415 1.98883.62457 2.862-.07642-.03362-.15996-.0601-.24759-.0815-.47988-.11208-1.06879-.02446-1.6414.23332l-.216-.45748-.57158.27102.23434.49314c-.63883.42894-1.09426 1.01275-1.22773 1.58433-.05502.23434-.05197.45646.00407.6582-.92717-1.6465-1.45596-3.54363-1.45596-5.56303 0-6.2752 5.10453-11.37973 11.37974-11.37973zm-1.0535 1.94655h.96079l.29649-.90272.28426.90272h.99951l-.78147.6052.31789.972-.8151-.61437-.84362.56445.3352-.9557-.75395-.57158zm-4.4921 1.97385l.74175-.6103-.3454-.8854.7937.51657.7723-.6368-.21906.96487.864.54713-1.01988.04483-.29242.972-.34947-.9506-.94551.0377zm9.30197.30973l.74071-.61132-.3454-.8854.79473.51657.77128-.63475-.21906.96283.864.54815-1.0209.04381-.2914.972-.34947-.9506-.9445.03871zM8.11612 29.53912l.27713-.92004-.77943-.54407.94652-.01325.2863-.95671.35559.92309 1.02192-.02547-.82222.60419.29649.96996-.81815-.59604-.76415.55834zm15.63972.09445l.27611-.92004-.77943-.54305.94653-.01325.28732-.95774.35457.9231 1.02192-.02547-.82223.60419.29751.97098-.81815-.59604-.76415.55732zM7.48615 34.04904l-.21702-.93634-.94653-.08457.81612-.4809-.2262-.97404.7662.62558.8752-.52879-.41467.93227.7397.69384-1.00563-.11105-.38717.864zm18.20574.07264l-.216-.93634-.94652-.08456.81509-.48193-.22415-.97403.76517.6266.8752-.52981-.41467.93328.7397.69385-1.00665-.11106-.38717.864z"></path>
		<path d="M10.48886 37.21446c-.1029.43913-.50842.9231-1.0586 1.26441-.5502.34234-1.1656.4911-1.6037.3892-.18544-.0438-.31891-.12837-.3943-.25063-.0754-.12125-.0917-.27713-.04891-.46359.09271-.39124.42487-.81815.88743-1.14826l.15487.3291.57158-.27103-.17626-.37392c.44015-.1946.8854-.26796 1.2257-.1885.18645.04382.31788.12737.3943.24861.0754.12227.0917.27815.04789.4646zM8.3686 13.44743l2.08765-2.08766h1.77385l-2.08358 2.08358zM11.67207 13.44743l2.08664-2.08766h1.77487l-2.08359 2.08358zM14.97544 13.44743l2.08766-2.08766h1.77385l-2.08358 2.08358zM18.27922 13.44743l2.08766-2.08766h1.77385l-2.08358 2.08358zM21.5823 13.44743l2.08765-2.08766h1.77487l-2.08359 2.08358zM6.66026 13.44518c-.57566 0-1.0423-.46562-1.0423-1.04128 0-.57668.46664-1.04332 1.0423-1.04332h2.12841l-2.08358 2.0846h-.04483zM26.86023 11.36028c.57566 0 1.04332.46562 1.04332 1.0423 0 .57566-.46766 1.0423-1.04332 1.0423h-2.1274l2.08359-2.0846h.04381zM20.49608 36.76045c-.21091.07743-.76212.17524-1.88287-.22925-.7774-.27815-1.36936-.12124-1.74023.0703v-6.60226l.02038-.02038c.02241-.02343.5563-.56547 1.5069-.22415 1.03212.37189 1.69132.378 2.09582.29242v6.71332zm-5.7831-.22925c-1.12075.4045-1.67298.30668-1.88389.22925v-6.71332c.40551.08558 1.06472.07947 2.09785-.29242.94959-.34132 1.48348.20072 1.50487.22415l.02038.02038v6.60227c-.36985-.19155-.96181-.34846-1.7392-.0703zm5.8911-7.19422c.02241-.02038.5237-.47581.5237-.47581v8.2192l-.09578.09272c-.11208.11004-.77026.62355-2.63174-.04585-.9506-.34132-1.48449.20072-1.5069.22415l-.2323.2374-.22925-.2374c-.0214-.02343-.55528-.56547-1.50487-.22415-1.86249.6694-2.52068.15589-2.63377.04585l-.09577-.09272.00713-8.21207.51758.46868c.00714.0051.49008.3617 1.99087-.17729.94755-.3403 1.62-.0326 1.95011.19563.33012-.22823 1.00155-.53593 1.95012-.19563 1.50283.54102 1.98577.18136 1.99087.17729zM22.04965 4.15494S19.099 6.43823 18.77806 6.68581c.12634.38819 1.35 4.12438 1.35 4.12438s-3.132-2.3597-3.45906-2.60728c-.34132.22822-3.5314 2.36173-3.5314 2.36173s1.26238-3.59966 1.40095-3.99498c-.33011-.24962-3.18702-2.41472-3.18702-2.41472h4.05102c.12838-.39328 1.26442-3.85641 1.26442-3.85641s1.0912 3.45905 1.21652 3.85641h4.16616zm-3.21076 4.85267l-.83853-2.5594s1.32249-1.02396 2.106-1.63019h-2.71019s-.45136-1.43354-.74174-2.35256c-.30056.918-.77128 2.35256-.77128 2.35256h-2.55634c.76415.57974 1.998 1.51506 1.998 1.51506s-.56649 1.61592-.9017 2.57366c.84464-.56547 2.268-1.5171 2.268-1.5171s1.32453.99748 2.14778 1.61797z"></path>
		<path d="M13.2508 31.43707v-.2751s.89559-.0489 1.39382-.22313c.4972-.17422.83343-.31177 1.26849 0v.3729s-.26287-.51045-1.19412-.1243c-.66022.27408-1.46819.24963-1.46819.24963zM13.2508 32.48232v-.27407s.89559-.0489 1.39382-.22415c.4972-.1732.83343-.31178 1.26849 0v.37392s-.26287-.51147-1.19412-.1243c-.66022.27408-1.46819.2486-1.46819.2486zM13.2508 33.52748v-.27306s.89559-.04992 1.39382-.22415c.4972-.17422.83343-.31177 1.26849 0v.3729s-.26287-.51045-1.19412-.1243c-.66022.27408-1.46819.2486-1.46819.2486zM13.2508 34.57345v-.27408s.89559-.04992 1.39382-.22313c.4972-.17524.83343-.31177 1.26849 0v.3729s-.26287-.51146-1.19412-.1243c-.66022.27306-1.46819.2486-1.46819.2486zM13.2508 35.61932v-.27408s.89559-.04992 1.39382-.22313c.4972-.17423.83343-.31177 1.26849 0v.37189s-.26287-.51148-1.19412-.12329c-.66022.27306-1.46819.2486-1.46819.2486zM20.09617 31.43707s-.81.02445-1.47023-.24962c-.93124-.38616-1.19411.1243-1.19411.1243v-.3729c.43506-.31178.7723-.17423 1.26951 0 .49823.17422 1.39483.22312 1.39483.22312v.2751zM20.09617 32.48232s-.81.02548-1.47023-.2486c-.93124-.38717-1.19411.1243-1.19411.1243v-.37392c.43506-.31178.7723-.1732 1.26951 0 .49823.17524 1.39483.22415 1.39483.22415v.27407zM20.09617 33.52748s-.81.02547-1.47023-.2486c-.93124-.38616-1.19411.1243-1.19411.1243v-.3729c.43506-.31178.7723-.17423 1.26951 0 .49823.17422 1.39483.22414 1.39483.22414v.27306zM20.09617 34.57345s-.81.02445-1.47023-.2486c-.93124-.38717-1.19411.1243-1.19411.1243v-.3729c.43506-.31178.7723-.17525 1.26951 0 .49823.1732 1.39483.22312 1.39483.22312v.27408zM20.09617 35.61932s-.81.02445-1.47023-.2486c-.93124-.3882-1.19411.12328-1.19411.12328v-.3719c.43506-.31176.7723-.17422 1.26951 0 .49823.17322 1.39483.22314 1.39483.22314v.27408z"></path>
	</g>
</svg>
