<svg id="logo-stacked" viewBox="0 0 988 253">
  <g fill="none" fill-rule="evenodd">
    <path d="M345.23 111.4h-1.73a10.95 10.95 0 0 0-1.84-1.67c-.69-.5-1.77-.75-3.23-.75-1.15 0-2.39.21-3.73.63l-4.6 1.44a57.2 57.2 0 0 1-5.8 1.44c-2.16.42-4.54.63-7.13.63a38.8 38.8 0 0 1-14.1-2.65 38.2 38.2 0 0 1-12.94-8.62 49.7 49.7 0 0 1-9.44-13.35c-2.53-5.13-3.79-11.08-3.79-17.83 0-5.75 1.03-11.23 3.1-16.45a44.2 44.2 0 0 1 8.63-13.8 41.5 41.5 0 0 1 13-9.49 37.96 37.96 0 0 1 16.33-3.5c2.38 0 4.49.22 6.33.68 1.84.46 3.49.98 4.94 1.56 1.46.57 2.8 1.1 4.03 1.55 1.23.46 2.42.7 3.57.7 1.54 0 2.63-.26 3.28-.76.65-.5 1.24-1.05 1.79-1.67h1.71v23h-1.26a71.38 71.38 0 0 0-2.64-8.62 24.64 24.64 0 0 0-4.49-7.53 21.34 21.34 0 0 0-7.3-5.3c-2.96-1.33-6.62-2-11-2-4.06 0-7.54.63-10.46 1.9a22.15 22.15 0 0 0-7.37 5.05 24.8 24.8 0 0 0-4.77 7.37 45.2 45.2 0 0 0-2.7 8.85 69.65 69.65 0 0 0-1.2 9.43c-.2 3.19-.3 6.2-.3 9.03 0 8.06.66 14.73 1.96 20.02 1.31 5.29 3.13 9.47 5.47 12.54a18.74 18.74 0 0 0 8.46 6.44 31.05 31.05 0 0 0 10.92 1.84c5.13 0 9.28-.73 12.42-2.19a21.06 21.06 0 0 0 7.6-5.7 25.21 25.21 0 0 0 4.36-7.93c1-2.95 1.88-5.88 2.65-8.8h1.27v24.5zm41.1-30.14c.15-1.08.23-2.07.23-3V75.4c0-2.6-.25-4.75-.76-6.44a10.63 10.63 0 0 0-2.06-4.03c-.88-1-1.96-1.7-3.22-2.12a12.83 12.83 0 0 0-4.09-.64c-2.61 0-4.76.52-6.44 1.55a11.47 11.47 0 0 0-4.03 4.2c-1 1.77-1.74 3.8-2.24 6.1-.5 2.3-.82 4.72-.98 7.25h23.58zm-23.7 1.6c0 .77-.02 1.56-.06 2.37a71.64 71.64 0 0 0 .4 10.98c.3 2.76.98 5.25 2.02 7.48a13.91 13.91 0 0 0 4.6 5.52c2.03 1.46 4.73 2.18 8.1 2.18 3.38 0 6.16-.5 8.35-1.49a15.29 15.29 0 0 0 7.99-7.94 50.68 50.68 0 0 0 1.38-3.56l1.72.34c-.22.85-.67 2.05-1.32 3.62a16.75 16.75 0 0 1-3.1 4.72 18.85 18.85 0 0 1-5.76 4.14c-2.41 1.2-5.53 1.79-9.37 1.79-3.83 0-7.38-.62-10.64-1.85a23.85 23.85 0 0 1-13.98-13.52 27.82 27.82 0 0 1-1.95-10.63c0-3.38.67-6.65 2.01-9.84a27.72 27.72 0 0 1 13.75-14.37 23.27 23.27 0 0 1 10.12-2.25c2.15 0 4.45.39 6.9 1.15 2.46.77 4.74 2.01 6.85 3.74 2.1 1.72 3.87 4 5.29 6.85 1.41 2.83 2.13 6.36 2.13 10.58h-35.43zm38.33 26.92h8.86V63.66h-8.86v-1.61h18.52v12.3h.24c.45-1 1.12-2.26 2-3.8a20.02 20.02 0 0 1 9.38-8.22 20.4 20.4 0 0 1 8.4-1.55c5.06 0 9.18 1.23 12.37 3.68 3.18 2.46 4.77 6.37 4.77 11.74v33.58h8.85v1.61h-27.6v-1.6h8.86V72.62c0-3-.71-5.45-2.13-7.36-1.43-1.92-3.63-2.88-6.62-2.88-2.45 0-4.8.54-7.01 1.61a18.44 18.44 0 0 0-5.87 4.49 21.3 21.3 0 0 0-3.97 6.78 24.53 24.53 0 0 0-1.43 8.52v26h8.85v1.6h-27.6v-1.6zm63.05-47.73h8.86V47.2c.62.23 1.2.42 1.73.57.53.16 1.46.23 2.76.23 1.15 0 2.15-.13 3-.4.84-.27 1.64-.7 2.4-1.32v15.76h16.34v1.6h-16.33v37.62c0 2.15.2 3.9.63 5.24a7.9 7.9 0 0 0 1.67 3.1 5 5 0 0 0 2.24 1.44c.8.23 1.59.34 2.36.34 2.69 0 4.85-.97 6.5-2.93a14.2 14.2 0 0 0 3.16-6.73l1.61.58c-.23 1-.57 2.1-1.04 3.33a11.24 11.24 0 0 1-5.86 6.27c-1.54.73-3.45 1.1-5.75 1.1-5.76 0-9.76-1.12-12.02-3.34-2.26-2.22-3.4-5.37-3.4-9.43V63.66h-8.86v-1.61zm74.74 19.2c.15-1.07.23-2.06.23-2.98v-2.88c0-2.6-.25-4.75-.75-6.44a10.62 10.62 0 0 0-2.06-4.03c-.89-1-1.96-1.7-3.23-2.12a12.84 12.84 0 0 0-4.08-.64c-2.61 0-4.76.52-6.44 1.55a11.47 11.47 0 0 0-4.03 4.2c-1 1.77-1.74 3.8-2.24 6.1-.5 2.3-.83 4.72-.98 7.25h23.58zm-23.7 1.62c0 .76-.02 1.55-.05 2.36a71.64 71.64 0 0 0 .4 10.98c.3 2.76.98 5.25 2.01 7.48a13.92 13.92 0 0 0 4.6 5.52c2.04 1.46 4.74 2.18 8.12 2.18 3.37 0 6.15-.5 8.34-1.49a15.3 15.3 0 0 0 7.99-7.94 51.18 51.18 0 0 0 1.38-3.56l1.72.34a32.7 32.7 0 0 1-1.32 3.62 16.77 16.77 0 0 1-3.1 4.72 18.87 18.87 0 0 1-5.76 4.14c-2.41 1.2-5.54 1.79-9.37 1.79-3.83 0-7.38-.62-10.64-1.85a23.87 23.87 0 0 1-13.98-13.52 27.84 27.84 0 0 1-1.95-10.63c0-3.38.67-6.65 2.01-9.84A27.72 27.72 0 0 1 519.2 62.8a23.27 23.27 0 0 1 10.12-2.25c2.14 0 4.44.39 6.9 1.15a20.4 20.4 0 0 1 6.85 3.74c2.1 1.72 3.87 4 5.29 6.85 1.41 2.83 2.12 6.36 2.12 10.58h-35.42zm38.58 26.91h8.85V63.66h-8.85v-1.61h18.52v11.62h.22c.31-1.16.8-2.46 1.5-3.92a17 17 0 0 1 7.3-7.59 13.14 13.14 0 0 1 6.27-1.38c1.76 0 3.3.3 4.6.87 1.3.57 2.38 1.3 3.22 2.18a8.1 8.1 0 0 1 1.84 3.05c.38 1.15.58 2.3.58 3.45 0 2.53-.58 4.22-1.73 5.06a6.64 6.64 0 0 1-4.02 1.27c-3.38 0-5.06-1.08-5.06-3.22 0-.7.07-1.25.22-1.67.16-.42.33-.84.52-1.27.2-.42.37-.9.52-1.44.15-.53.23-1.3.23-2.3 0-2.45-1.34-3.68-4.03-3.68-1.22 0-2.52.46-3.9 1.38a14.48 14.48 0 0 0-3.86 4.03 25.4 25.4 0 0 0-2.99 6.38c-.8 2.5-1.2 5.35-1.2 8.57v26.34h10v1.61h-28.75v-1.6zm74.7 0h8.86V63.66h-8.86v-1.61h8.86v-6.1c0-2.68.13-5 .4-6.96.26-1.95.63-3.68 1.09-5.18a19.43 19.43 0 0 1 3.68-6.96c2-2.53 4.49-4.73 7.47-6.6a17.64 17.64 0 0 1 9.55-2.83c2.54 0 4.7.37 6.5 1.1 1.8.73 3.28 1.63 4.43 2.7 1.15 1.07 2 2.24 2.53 3.5.54 1.27.8 2.4.8 3.4 0 1.46-.42 2.8-1.26 4.03-.84 1.23-2.26 1.84-4.25 1.84-1 0-2.13-.23-3.4-.7-1.27-.45-1.9-1.45-1.9-2.98 0-1.3.37-2.48 1.1-3.51a5.95 5.95 0 0 0 1.09-3.5c0-1.7-.69-2.83-2.07-3.4-1.38-.58-2.8-.86-4.26-.86-3.14 0-5.87 1.37-8.17 4.13-2.3 2.77-3.45 7.06-3.45 12.89v15.99h14.27v1.6h-14.27v46.13h10.47v1.61h-29.21v-1.6zm46.4-23c0 5.44.42 9.77 1.27 13 .84 3.22 1.95 5.7 3.33 7.42a9.57 9.57 0 0 0 4.84 3.39c1.83.54 3.79.8 5.86.8 2.07 0 4.02-.26 5.86-.8a9.58 9.58 0 0 0 4.84-3.4c1.37-1.72 2.5-4.2 3.33-7.41.85-3.23 1.27-7.56 1.27-13 0-4.6-.31-8.46-.92-11.56a21.74 21.74 0 0 0-2.82-7.6 10.9 10.9 0 0 0-4.77-4.2 16.77 16.77 0 0 0-6.79-1.26c-2.6 0-4.87.42-6.79 1.27-1.91.84-3.5 2.24-4.77 4.2a21.72 21.72 0 0 0-2.82 7.59c-.62 3.1-.92 6.96-.92 11.56zm-11.5 0c0-3.76.82-7.25 2.47-10.47a28.99 28.99 0 0 1 14.95-13.8c3.19-1.3 6.31-1.96 9.38-1.96 3.07 0 6.2.65 9.38 1.96a29.23 29.23 0 0 1 14.95 13.8 22.61 22.61 0 0 1 2.47 10.47c0 3.6-.77 7-2.3 10.18a28.63 28.63 0 0 1-14.6 13.97 24.89 24.89 0 0 1-9.9 2.08c-3.38 0-6.67-.7-9.9-2.08a28.69 28.69 0 0 1-14.6-13.97 23.17 23.17 0 0 1-2.3-10.18zm55.58 23h8.85V63.66h-8.85v-1.61h18.52v11.62h.23c.3-1.16.8-2.46 1.5-3.92a17 17 0 0 1 7.3-7.59 13.14 13.14 0 0 1 6.27-1.38c1.75 0 3.3.3 4.6.87 1.3.57 2.37 1.3 3.22 2.18a8.1 8.1 0 0 1 1.84 3.05 11 11 0 0 1 .57 3.45c0 2.53-.57 4.22-1.72 5.06a6.64 6.64 0 0 1-4.03 1.27c-3.37 0-5.06-1.08-5.06-3.22 0-.7.07-1.25.23-1.67.15-.42.32-.84.52-1.27.2-.42.36-.9.52-1.44.15-.53.22-1.3.22-2.3 0-2.45-1.33-3.68-4.02-3.68-1.23 0-2.53.46-3.91 1.38a14.5 14.5 0 0 0-3.86 4.03 25.44 25.44 0 0 0-2.99 6.38c-.8 2.5-1.2 5.35-1.2 8.57v26.34h10v1.61h-28.75v-1.6zm55.67-80.29h35.54v1.61h-12.77l25.54 66.72 25.19-66.72h-12.54v-1.6h24.85v1.6h-10.35L819 113.12h-2.88L784.83 31.1h-10.35v-1.6zm100.8 51.77c.15-1.08.23-2.07.23-3V75.4c0-2.6-.25-4.75-.75-6.44a10.61 10.61 0 0 0-2.07-4.03c-.88-1-1.96-1.7-3.22-2.12a12.84 12.84 0 0 0-4.08-.64c-2.61 0-4.76.52-6.45 1.55a11.48 11.48 0 0 0-4.02 4.2 21.6 21.6 0 0 0-2.24 6.1c-.5 2.3-.83 4.72-.98 7.25h23.58zm-23.7 1.6c0 .77-.02 1.56-.05 2.37a71.89 71.89 0 0 0 .4 10.98c.3 2.76.97 5.25 2.01 7.48a13.91 13.91 0 0 0 4.6 5.52c2.03 1.46 4.74 2.18 8.11 2.18 3.37 0 6.16-.5 8.34-1.49a15.29 15.29 0 0 0 8-7.94 51.1 51.1 0 0 0 1.37-3.56l1.73.34c-.23.85-.67 2.05-1.32 3.62a16.77 16.77 0 0 1-3.1 4.72 18.87 18.87 0 0 1-5.76 4.14c-2.41 1.2-5.54 1.79-9.37 1.79-3.84 0-7.39-.62-10.64-1.85a23.85 23.85 0 0 1-13.98-13.52 27.82 27.82 0 0 1-1.96-10.63c0-3.38.67-6.65 2.02-9.84a27.7 27.7 0 0 1 13.74-14.37 23.27 23.27 0 0 1 10.12-2.25c2.15 0 4.45.39 6.91 1.15 2.45.77 4.73 2.01 6.84 3.74 2.11 1.72 3.88 4 5.3 6.85 1.41 2.83 2.12 6.36 2.12 10.58h-35.43zm47.21-47.61c0-1.7.6-3.13 1.78-4.32a5.88 5.88 0 0 1 4.32-1.78c1.68 0 3.13.6 4.32 1.78a5.9 5.9 0 0 1 1.78 4.32c0 1.68-.6 3.12-1.78 4.3a5.88 5.88 0 0 1-4.32 1.79c-1.7 0-3.13-.6-4.32-1.78a5.87 5.87 0 0 1-1.78-4.31zm-7.47 74.53h8.86V63.66h-8.86v-1.61h18.75v47.73h8.85v1.61h-27.6v-1.6zm31.6 0h8.85V63.66h-8.86v-1.61h18.52v12.3h.24c.45-1 1.12-2.26 2-3.8a19.99 19.99 0 0 1 9.38-8.22 20.4 20.4 0 0 1 8.4-1.55c5.06 0 9.18 1.23 12.36 3.68 3.19 2.46 4.77 6.37 4.77 11.74v33.58h8.86v1.61h-27.6v-1.6h8.86V72.62c0-3-.72-5.45-2.13-7.36-1.43-1.92-3.63-2.88-6.62-2.88-2.45 0-4.8.54-7.01 1.61a18.45 18.45 0 0 0-5.87 4.49 21.33 21.33 0 0 0-3.97 6.78 24.53 24.53 0 0 0-1.43 8.52v26h8.85v1.6h-27.6v-1.6zm-618.14 55.1h10.6c2.13 0 4.1-.27 5.86-.8a10.22 10.22 0 0 0 4.54-2.82 13.55 13.55 0 0 0 2.94-5.47c.68-2.3 1.03-5.21 1.03-8.74 0-3.98-.52-7.19-1.56-9.6a13.06 13.06 0 0 0-4.01-5.47 13.33 13.33 0 0 0-5.53-2.41 32.6 32.6 0 0 0-6.04-.58c-1.38 0-2.78.02-4.2.06-1.42.04-2.62.14-3.63.29v35.54zm-24.26 43.14h12.77v-78.68h-12.77v-1.61h21.85a62.26 62.26 0 0 0 5.52-.23c.93 0 1.85-.02 2.77-.06a84.58 84.58 0 0 1 14.72.7 19.9 19.9 0 0 1 9.66 4.3 17.6 17.6 0 0 1 5.69 7.02 18.76 18.76 0 0 1 1.67 7.36c0 1.15-.21 2.63-.63 4.43a15 15 0 0 1-2.76 5.52 20.68 20.68 0 0 1-6.16 5.18c-2.67 1.57-6.25 2.63-10.7 3.16v.23c1.24.16 2.9.45 5 .86a29.5 29.5 0 0 1 6.45 2.13c2.19 1 4.2 2.32 6.04 3.97a13.41 13.41 0 0 1 3.91 6.39c.46 1.53.79 3.27.98 5.23.2 1.95.35 3.97.46 6.04a565 565 0 0 0 .35 5.98c.12 1.92.32 3.53.63 4.83.47 2 1.18 3.8 2.18 5.4 1 1.62 2.61 2.42 4.83 2.42 1 0 2.04-.19 3.11-.57 1.07-.38 2.04-1 2.88-1.84l1.04 1.26c-.39.31-.83.63-1.33.98-.5.35-1.13.67-1.9.98-.77.3-1.7.55-2.82.75-1.1.19-2.47.28-4.07.28-3.08 0-5.63-.38-7.66-1.15a11.34 11.34 0 0 1-4.9-3.39 14.52 14.52 0 0 1-2.7-5.52 44.1 44.1 0 0 1-1.2-7.65l-.8-10.47c-.31-3.83-1.08-6.82-2.3-8.97a12.7 12.7 0 0 0-4.32-4.72c-1.65-1-3.35-1.59-5.11-1.78-1.77-.2-3.3-.29-4.6-.29h-11.52v41.53h12.78v1.6h-37.04v-1.6zm161.71-14.5h1.27c.54 1.84 1.23 3.7 2.07 5.58a19.7 19.7 0 0 0 3.4 5.18 16.78 16.78 0 0 0 5.23 3.85c2.07 1 4.56 1.5 7.47 1.5 2.46 0 4.64-.75 6.56-2.25 1.92-1.49 2.88-3.92 2.88-7.3 0-2.91-.75-4.96-2.25-6.15a17.59 17.59 0 0 0-5.23-2.82l-8.97-3.1c-1.15-.4-2.4-.87-3.74-1.45a13.5 13.5 0 0 1-3.74-2.41 11.74 11.74 0 0 1-2.82-3.97 15.14 15.14 0 0 1-1.1-6.21c0-2.15.43-4.14 1.28-5.98a15.4 15.4 0 0 1 8.68-8.05 18.63 18.63 0 0 1 6.62-1.15c1.68 0 3.04.13 4.08.4a31.98 31.98 0 0 1 4.78 1.61c.6.27 1.33.4 2.18.4.84 0 1.45-.3 1.84-.92h1.26v13.11h-1.26a51.28 51.28 0 0 0-1.84-4.89 19.82 19.82 0 0 0-2.48-4.2 10.03 10.03 0 0 0-3.56-2.87 11.34 11.34 0 0 0-5-1.03c-3.69 0-6.55.82-8.57 2.47a8.09 8.09 0 0 0-3.05 6.61c0 2.46.86 4.32 2.59 5.58 1.72 1.27 4.27 2.44 7.64 3.5l8.4 2.77a24.22 24.22 0 0 1 8.86 5.06c2.3 2.15 3.45 4.99 3.45 8.52 0 2.06-.4 4.1-1.21 6.1-.8 1.99-2 3.73-3.56 5.22a18.18 18.18 0 0 1-5.75 3.63 20.53 20.53 0 0 1-7.77 1.38c-1.69 0-3.24-.18-4.66-.52a57.35 57.35 0 0 1-3.91-1.1c-1.2-.37-2.29-.74-3.28-1.08-1-.35-1.91-.52-2.76-.52-.85 0-1.46.17-1.84.52-.38.34-.7.7-.92 1.09h-1.27v-16.1zm56.71-33.24h8.86v-14.84c.61.23 1.19.43 1.72.58.54.15 1.46.23 2.76.23 1.15 0 2.15-.14 3-.4.84-.27 1.64-.71 2.41-1.33v15.76h16.34v1.61h-16.34v37.62c0 2.14.21 3.89.63 5.23a7.93 7.93 0 0 0 1.67 3.1c.7.73 1.44 1.21 2.24 1.44.8.23 1.6.35 2.36.35 2.69 0 4.85-.98 6.5-2.93 1.65-1.96 2.7-4.2 3.16-6.73l1.61.57c-.22 1-.57 2.11-1.03 3.34a11.24 11.24 0 0 1-5.86 6.27c-1.54.73-3.46 1.09-5.75 1.09-5.76 0-9.77-1.11-12.03-3.34-2.26-2.22-3.4-5.37-3.4-9.43v-36.58h-8.85v-1.61zm66.2 24.73c0 5.45.41 9.78 1.26 13 .84 3.22 1.95 5.7 3.33 7.42a9.6 9.6 0 0 0 4.84 3.4c1.83.53 3.79.8 5.86.8 2.07 0 4.02-.27 5.86-.8a9.59 9.59 0 0 0 4.84-3.4c1.37-1.73 2.49-4.2 3.33-7.42.84-3.22 1.27-7.55 1.27-13 0-4.6-.31-8.45-.92-11.56a21.72 21.72 0 0 0-2.82-7.59 10.91 10.91 0 0 0-4.78-4.2 16.76 16.76 0 0 0-6.78-1.26c-2.6 0-4.87.42-6.79 1.26-1.92.85-3.5 2.24-4.77 4.2a21.74 21.74 0 0 0-2.82 7.6c-.62 3.1-.92 6.95-.92 11.55zm-11.51 0c0-3.75.82-7.25 2.47-10.47a28.98 28.98 0 0 1 14.95-13.8c3.18-1.3 6.31-1.95 9.38-1.95 3.07 0 6.2.65 9.38 1.95a29.21 29.21 0 0 1 14.95 13.8 22.61 22.61 0 0 1 2.47 10.47c0 3.6-.77 7-2.3 10.18a28.61 28.61 0 0 1-14.6 13.98 24.9 24.9 0 0 1-9.9 2.07c-3.38 0-6.67-.7-9.9-2.07a28.72 28.72 0 0 1-14.6-13.98 23.2 23.2 0 0 1-2.3-10.18zm70.86 23h8.85V161.9h-8.85v-1.61H643v11.62h.23c.3-1.15.8-2.45 1.5-3.91a16.97 16.97 0 0 1 7.3-7.6 13.14 13.14 0 0 1 6.26-1.37c1.76 0 3.3.28 4.6.86 1.3.57 2.38 1.3 3.23 2.18.84.89 1.45 1.9 1.84 3.05.38 1.15.57 2.3.57 3.45 0 2.53-.57 4.22-1.72 5.06a6.63 6.63 0 0 1-4.03 1.27c-3.37 0-5.06-1.07-5.06-3.22 0-.7.07-1.25.23-1.67.15-.42.32-.84.51-1.27.2-.41.37-.9.52-1.43.16-.54.23-1.3.23-2.3 0-2.46-1.34-3.68-4.02-3.68-1.23 0-2.53.45-3.91 1.38a14.52 14.52 0 0 0-3.86 4.02 25.5 25.5 0 0 0-2.99 6.39c-.8 2.49-1.2 5.34-1.2 8.56v26.35h10v1.6H624.5v-1.6zm95.67-26.56h-.23c-.16 1-1.42 1.99-3.8 2.99l-8.62 3.45c-2.46 1-4.34 2.4-5.64 4.2a11.15 11.15 0 0 0-1.96 6.72c0 1.16.12 2.35.35 3.57a9.1 9.1 0 0 0 1.26 3.28 6.98 6.98 0 0 0 2.6 2.36c1.1.61 2.54.92 4.3.92 2.54 0 4.59-.54 6.16-1.61a10.57 10.57 0 0 0 3.57-4.03c.8-1.6 1.33-3.35 1.6-5.23.27-1.88.4-3.59.4-5.12v-11.5zm20.13 26.91a15.7 15.7 0 0 1-3.57 2.02c-1.38.57-3.07.86-5.06.86-3.68 0-6.35-.79-8-2.36-1.64-1.57-2.77-3.78-3.39-6.61h-.23c-.3.69-.73 1.55-1.26 2.58a10.4 10.4 0 0 1-2.48 3 13.61 13.61 0 0 1-4.43 2.41 21.3 21.3 0 0 1-7.01.98c-3.22 0-5.79-.36-7.7-1.1a12.54 12.54 0 0 1-4.5-2.7 7.86 7.86 0 0 1-2.13-3.62 15.27 15.27 0 0 1-.51-3.74c0-2.68.53-4.83 1.61-6.44a11.96 11.96 0 0 1 4.2-3.85 27.83 27.83 0 0 1 5.75-2.36 191.83 191.83 0 0 0 12.65-4.14 11.04 11.04 0 0 0 3.85-2.25c.93-.88 1.56-1.99 1.9-3.33a23 23 0 0 0 .52-5.47c0-1.84-.11-3.49-.34-4.94-.23-1.46-.66-2.7-1.27-3.74a5.9 5.9 0 0 0-2.64-2.36c-1.16-.54-2.7-.8-4.6-.8-2.54 0-4.63.44-6.27 1.32-1.65.88-2.48 2.32-2.48 4.31 0 1.3.12 2.6.35 3.85.23 1.27.35 2.21.35 2.82 0 1.08-.4 1.98-1.15 2.7-.77.74-1.89 1.1-3.34 1.1-2.53 0-4.1-.46-4.72-1.38a6.3 6.3 0 0 1-.92-3.57c0-1.68.38-3.3 1.15-4.83.77-1.53 1.9-2.89 3.4-4.08a16.75 16.75 0 0 1 5.63-2.82c2.26-.69 4.85-1.03 7.77-1.03 3.52 0 6.48.44 8.85 1.32 2.38.88 4.3 2.07 5.76 3.56a13.05 13.05 0 0 1 3.1 5.06c.61 1.89.92 3.86.92 5.93v28.64c0 2.23.34 3.72 1.04 4.49.69.76 1.68 1.15 2.99 1.15.84 0 1.72-.15 2.64-.46.92-.3 1.8-.77 2.65-1.38l.92 1.26zm16.04-48.08h8.85v-14.84c.62.23 1.2.43 1.73.58.54.15 1.46.23 2.76.23 1.15 0 2.15-.14 3-.4.84-.27 1.64-.71 2.41-1.33v15.76h16.33v1.61h-16.33v37.62c0 2.14.21 3.89.63 5.23a7.93 7.93 0 0 0 1.67 3.1 5 5 0 0 0 2.24 1.44c.8.23 1.6.35 2.36.35 2.69 0 4.85-.98 6.5-2.93 1.65-1.96 2.7-4.2 3.16-6.73l1.61.57c-.23 1-.57 2.11-1.03 3.34a11.22 11.22 0 0 1-5.87 6.27c-1.54.73-3.45 1.09-5.75 1.09-5.75 0-9.76-1.11-12.02-3.34-2.26-2.22-3.4-5.37-3.4-9.43v-36.58h-8.85v-1.61zm62.77-26.8c0-1.69.6-3.12 1.78-4.32a5.88 5.88 0 0 1 4.32-1.78c1.68 0 3.12.6 4.31 1.78a5.9 5.9 0 0 1 1.78 4.32c0 1.69-.6 3.13-1.78 4.31a5.88 5.88 0 0 1-4.31 1.79c-1.7 0-3.13-.6-4.32-1.79a5.87 5.87 0 0 1-1.78-4.31zm-7.48 74.54h8.86v-46.13h-8.86v-1.61h18.75v47.74h8.86v1.6h-27.6v-1.6zm57.15-23c0 5.44.42 9.77 1.26 13 .84 3.21 1.96 5.68 3.34 7.4a9.59 9.59 0 0 0 4.83 3.4c1.84.54 3.8.8 5.87.8 2.07 0 4.02-.26 5.86-.8a9.58 9.58 0 0 0 4.83-3.4c1.38-1.72 2.5-4.19 3.34-7.4.84-3.23 1.26-7.56 1.26-13 0-4.6-.3-8.46-.91-11.57a21.72 21.72 0 0 0-2.82-7.59 10.9 10.9 0 0 0-4.78-4.2 16.76 16.76 0 0 0-6.78-1.26c-2.61 0-4.88.42-6.79 1.26-1.92.85-3.5 2.24-4.78 4.2a21.7 21.7 0 0 0-2.82 7.6 60.9 60.9 0 0 0-.91 11.55zm-11.5 0c0-3.76.82-7.26 2.47-10.48a29 29 0 0 1 14.95-13.8c3.18-1.3 6.3-1.95 9.38-1.95 3.06 0 6.19.65 9.37 1.95a29.2 29.2 0 0 1 14.95 13.8 22.61 22.61 0 0 1 2.48 10.47c0 3.6-.77 7-2.3 10.18a28.65 28.65 0 0 1-14.61 13.98 24.9 24.9 0 0 1-9.9 2.07c-3.37 0-6.67-.7-9.89-2.07a28.73 28.73 0 0 1-14.6-13.98 23.19 23.19 0 0 1-2.3-10.18zm65.64 23h8.86v-46.13h-8.86v-1.61h18.52v12.3h.24c.45-.99 1.12-2.25 2-3.79a20.4 20.4 0 0 1 9.38-8.22c2.3-1.04 5.1-1.55 8.4-1.55 5.06 0 9.18 1.22 12.36 3.68 3.19 2.45 4.78 6.36 4.78 11.73v33.59h9.9v1.6h-28.65v-1.6h8.86v-37.16c0-2.99-.72-5.44-2.13-7.36-1.43-1.91-3.63-2.88-6.62-2.88-2.45 0-4.8.54-7.01 1.62a18.48 18.48 0 0 0-5.87 4.48 21.32 21.32 0 0 0-3.97 6.79 24.54 24.54 0 0 0-1.43 8.51v26h8.85v1.6h-27.6v-1.6zM408.85 179.8c.15-1.07.23-2.07.23-3v-2.86c0-2.61-.25-4.76-.75-6.45a10.62 10.62 0 0 0-2.07-4.02c-.88-1-1.96-1.71-3.22-2.13a12.84 12.84 0 0 0-4.08-.63c-2.62 0-4.76.51-6.45 1.55a11.47 11.47 0 0 0-4.02 4.2c-1 1.76-1.75 3.8-2.24 6.1-.5 2.3-.83 4.71-.98 7.24h23.58zm-23.7 1.6c0 .78-.02 1.56-.05 2.37a71.66 71.66 0 0 0 .4 10.98c.3 2.77.97 5.26 2 7.48a13.91 13.91 0 0 0 4.6 5.52c2.04 1.46 4.75 2.19 8.12 2.19 3.37 0 6.16-.5 8.34-1.5a15.31 15.31 0 0 0 8-7.94 50.87 50.87 0 0 0 1.37-3.56l1.73.34c-.23.85-.67 2.06-1.32 3.63a16.72 16.72 0 0 1-3.1 4.71 18.84 18.84 0 0 1-5.76 4.14c-2.42 1.2-5.54 1.79-9.37 1.79-3.84 0-7.39-.62-10.64-1.84a23.86 23.86 0 0 1-13.98-13.51 27.83 27.83 0 0 1-1.96-10.65c0-3.37.67-6.65 2.02-9.83a27.7 27.7 0 0 1 13.74-14.38 23.27 23.27 0 0 1 10.12-2.24c2.15 0 4.45.38 6.9 1.15 2.46.76 4.74 2 6.85 3.73 2.1 1.73 3.87 4.01 5.29 6.85s2.13 6.36 2.13 10.58h-35.43zm-248.54 42.45c.58-5.61 49.82-45.9 74.05-87.68l5.91 10.55c-28.57 36.92-58.92 62.25-79.96 77.13zm-43.3-43.84c3.63 3.12 13.8 13.85 16.11 17.4 18 27.52 6.78 55.06 6.78 55.06 2.32-42.87-30.84-66.52-30.84-66.52s5.3-3.9 7.94-5.94zM211.51 10.73C256.23 36.28 249.16 89.4 226.85 135l-4.64-12.95c9.57-20.52 14.8-43.1 10.39-66.26-2.46-12.9-10.94-24.38-22.18-32.54C177.18-.88 125.61-.82 117.41 79.8c0 0-10.49-14.04-12.55-17.2C64.06 0-2.14 35.77 20.4 101.28c8.33 24.23 36.9 46.4 62.6 66.3-.04.06-.1.1-.15.16-2 2.46-3.77 5.1-5.7 7.6-.17.21-.31.43-.44.65-26.63-22.14-54.8-42.27-62.93-55.04-47.09-73.96 36.68-146 99.52-66.78 1.01-19.57 13.85-37.04 30.48-46.68 21-12.18 47.48-8.35 67.75 3.24z" fill="currentColor"></path>
    <path d="M168.37 9.29c-2.97 7.45-28.48 60.07-28.89 60.98-10.24 23.46-10.17 17.69-20.7 38.17-13.27 25.8-25.35 52.1-45.25 73.08-20.69 23.07-6.23 13.75 4.9 4.91l.07.05c12.75-11.77 22.7-18.8 28.08-18.03 9.02 1.3 8.8-2.78 6.9-12.13-3.47-17 9.65-29.78 24.72-40.8 14.51-10.62 28.27-22.45 30.8-33.75l6.84-20.18c1.5-4.46 4.94-5.72 9.62-11.96C228.63-8 199.69 45.49 182.8 60.2c-3.79 3.3-4.93 7.64-4.93 17.2l-.01.49c.2.03.38.1.5.28l5.55 7.96 1.58 2.26c12.76 17.94 8.45 15.37 18.83 32.23 13.9 22.58 28.9 44.39 34.5 70.55 3.9 15.24 5.57 11.83 6.21-.06-3.78-17.92-4.94-30.94-1.36-35.14 5.3-6.22 2.13-7.85-5.83-10.5-14.47-4.8-17.8-20.23-18.88-36.38-1.05-15.56-3.37-31.07-10.67-37.9l-6.94-8.94c-2.32-2.98-3.51-7.1-1.13-13.35 1.75-4.59 5.39-8.9 9.89-13.11 4.52-4.21 7.51-6.5 7.51-6.5s1.67 1.66 2.4 2.48c.72.76 2.07 2.4 2.07 2.4-.14 2.2-14.03 9.22-17.07 17.06-1.77 2.62-2.98 7.21 4.24 11.38 7.59 4.37 10.21 11.47 12.08 23.6.93 6.1 1.66 15.43 1.56 23.63-.21 16.04 5.69 26.1 16.12 30.25 9.17 3.66 16.31 7.02 13.2 12.37l-3.9 6.72c-1.74 2.99-3 13.69.25 35.63-2.3 19.45-6.4 18.26-12.33-3.59-5.81-23.01-19.63-43.9-34.12-64.62-14.27-20.38-12.07-23.42-24.95-43.29-1.77 7.14-6.92 13.03-15.43 20.4a190.1 190.1 0 0 1-22.06 16.1c-15.68 9.7-22.14 21.64-20.31 34.32 1.61 11.17 2.36 20.16-4.6 20.45l-8.7.35c-3.16.13-11.14 3.74-24.52 14.14l.06.05s-8.6 7.2-9.99 8.07c-17.94 8.7-19.53 4.18-7.38-10.07.29.26 6.41-7.1 6.41-7.1l.2.08c17.58-19.47 29.5-44.53 40.88-70.1 12.25-27.5 16.29-26.1 29.52-54.06.67-1.44 15.89-37.4 20.37-45.79 0 0 3.8-.79 6.75-.86" fill="currentColor"></path>
  </g>

</svg>
