<svg width="392" height="58" viewBox="0 0 392 58" fill="none" xmlns="http://www.w3.org/2000/svg">
<path fill-rule="evenodd" clip-rule="evenodd" d="M360.969 26.99H372.983C372.983 25.3733 372.432 24.0896 371.328 23.1456C370.224 22.2015 368.774 21.7295 366.976 21.7295C365.256 21.7295 363.825 22.1856 362.684 23.0931C361.54 23.9984 360.969 25.2981 360.969 26.99ZM381.029 23.4283C381.732 25.1316 382.082 26.9695 382.082 28.9396C382.082 29.4982 382.064 29.9771 382.024 30.3761C381.985 30.782 381.907 31.3749 381.789 32.1593H361.093C361.093 32.9938 361.206 33.7782 361.43 34.5216C361.656 35.2626 362.006 35.9125 362.483 36.4689C362.96 37.0253 363.601 37.4608 364.404 37.7732C365.206 38.0878 366.183 38.2475 367.336 38.2475C368.975 38.2475 370.206 37.9556 371.029 37.3741C371.847 36.7904 372.414 36.0744 372.728 35.2307H381.732C381.496 36.5715 381.005 37.8279 380.254 38.9954C379.502 40.1629 378.532 41.1889 377.343 42.0668C376.153 42.9493 374.728 43.6493 373.071 44.1646C371.411 44.6845 369.539 44.9399 367.451 44.9399C364.945 44.9399 362.725 44.5591 360.791 43.7907C358.855 43.0222 357.234 41.9619 355.923 40.6052C354.611 39.2439 353.618 37.6569 352.949 35.8373C352.278 34.0176 351.944 32.0635 351.944 29.9771C351.944 27.8884 352.267 25.9434 352.919 24.1443C353.571 22.3452 354.542 20.7673 355.835 19.4197C357.126 18.0698 358.71 16.9981 360.586 16.2137C362.463 15.4293 364.611 15.0371 367.041 15.0371C369.364 15.0371 371.451 15.3928 373.304 16.0997C375.157 16.8065 376.732 17.7848 378.029 19.0161C379.325 20.252 380.328 21.7204 381.029 23.4283Z" fill="white"/>
<path fill-rule="evenodd" clip-rule="evenodd" d="M199.636 32.7907C199.292 33.6732 198.827 34.4325 198.234 35.0755C197.639 35.7162 196.923 36.2316 196.074 36.6283C195.231 37.0183 194.29 37.2144 193.262 37.2144C192.229 37.2144 191.298 37.0183 190.461 36.6283C189.624 36.2316 188.91 35.7162 188.317 35.0755C187.723 34.4325 187.255 33.664 186.914 32.777C186.575 31.8877 186.404 30.9529 186.404 29.9769C186.404 28.9987 186.575 28.0821 186.914 27.2201C187.255 26.3559 187.723 25.5898 188.317 24.9194C188.91 24.249 189.624 23.72 190.461 23.3392C191.298 22.9584 192.229 22.7669 193.262 22.7669C194.311 22.7669 195.256 22.9584 196.09 23.3392C196.925 23.72 197.639 24.249 198.234 24.9194C198.827 25.5898 199.292 26.3559 199.636 27.2201C199.975 28.0821 200.145 28.9987 200.145 29.9769C200.145 30.9711 199.975 31.9083 199.636 32.7907ZM200.145 19.8641C199.348 18.4892 198.156 17.3468 196.57 16.4438C194.986 15.5477 193.114 15.0962 190.957 15.0962C189.02 15.0962 187.22 15.477 185.558 16.2454C183.894 17.0093 182.444 18.0514 181.201 19.3602C179.959 20.6759 178.991 22.2378 178.297 24.0575C177.603 25.8771 177.257 27.8495 177.257 29.9769C177.257 32.1021 177.603 34.0745 178.297 35.8941C178.991 37.7137 179.959 39.2848 181.201 40.605C182.444 41.9253 183.898 42.9674 185.572 43.7335C187.245 44.502 189.039 44.8827 190.957 44.8827C193.174 44.8827 195.081 44.4244 196.674 43.5055C198.269 42.5843 199.424 41.4761 200.145 40.1718V44.1668H209.294V15.8122H200.145V19.8641Z" fill="white"/>
<path fill-rule="evenodd" clip-rule="evenodd" d="M325.181 32.8172C324.838 33.6791 324.372 34.443 323.777 35.1019C323.185 35.7632 322.459 36.2808 321.601 36.6525C320.744 37.0264 319.817 37.2134 318.824 37.2134C317.77 37.2134 316.827 37.0173 315.988 36.6274C315.152 36.2329 314.432 35.7153 313.838 35.0746C313.243 34.4316 312.777 33.6654 312.436 32.7738C312.095 31.8846 311.924 30.9519 311.924 29.976C311.924 29.0365 312.086 28.1268 312.408 27.2443C312.729 26.3641 313.187 25.5911 313.782 24.9185C314.375 24.2481 315.105 23.7214 315.974 23.3383C316.841 22.9552 317.791 22.7637 318.824 22.7637C319.856 22.7637 320.792 22.9552 321.629 23.3383C322.468 23.7214 323.185 24.2481 323.777 24.9185C324.372 25.5911 324.838 26.3573 325.181 27.2169C325.522 28.0789 325.695 28.9978 325.695 29.976C325.695 31.0089 325.522 31.9575 325.181 32.8172ZM325.695 19.8632C324.817 18.2921 323.568 17.1064 321.952 16.3015C320.336 15.4966 318.51 15.0976 316.484 15.0976C314.476 15.0976 312.637 15.4784 310.958 16.2422C309.283 17.0107 307.837 18.0482 306.618 19.3616C305.401 20.6727 304.458 22.2255 303.785 24.0269C303.112 25.8283 302.775 27.7916 302.775 29.919C302.775 32.0419 303.121 33.996 303.815 35.7769C304.504 37.5578 305.467 39.0992 306.708 40.4012C307.943 41.7032 309.407 42.7042 311.092 43.4065C312.777 44.102 314.594 44.4531 316.544 44.4531C318.803 44.4531 320.705 44.0222 322.247 43.1602C323.784 42.2983 324.935 41.2654 325.695 40.0569V44.4873C325.695 46.7904 325.045 48.4641 323.75 49.4993C322.454 50.5368 320.811 51.0589 318.824 51.0589C316.659 51.0589 315.069 50.5869 314.043 49.6406C313.019 48.6944 312.431 47.5953 312.275 46.348H303.125C303.204 47.9191 303.522 49.3967 304.075 50.7853C304.631 52.174 305.527 53.3802 306.765 54.4063C308.001 55.4301 309.628 56.2419 311.648 56.8484C313.665 57.4504 316.152 57.7514 319.116 57.7514C324.416 57.7514 328.365 56.6751 330.956 54.5203C333.547 52.3655 334.842 48.8562 334.842 43.9903V15.8113H325.695V19.8632Z" fill="white"/>
<path fill-rule="evenodd" clip-rule="evenodd" d="M161.352 34.4628C159.558 35.8606 157.249 36.5584 154.425 36.5584C152.493 36.5584 150.755 36.2186 149.204 35.5254C147.657 34.8368 146.331 33.9042 145.229 32.7253C144.13 31.551 143.265 30.1623 142.643 28.573C142.018 26.9837 141.707 25.2895 141.707 23.4904C141.707 21.803 141.991 20.1681 142.555 18.5765C143.12 16.9872 143.939 15.5985 145.01 14.3969C146.082 13.202 147.403 12.2443 148.971 11.5238C150.541 10.8078 152.32 10.4475 154.307 10.4475C155.847 10.4475 157.226 10.6619 158.443 11.0928C159.662 11.5238 160.732 12.1189 161.658 12.876C162.585 13.6307 163.325 14.5246 163.878 15.5461C164.436 16.5699 164.83 17.6872 165.065 18.8912H175.181C174.909 16.5562 174.226 14.3444 173.147 12.258C172.066 10.1739 170.628 8.35655 168.834 6.81284C167.041 5.27369 164.918 4.06062 162.463 3.18045C160.008 2.30257 157.239 1.86019 154.16 1.86019C150.573 1.86019 147.394 2.45306 144.616 3.63878C141.841 4.82677 139.513 6.42292 137.627 8.42268C135.741 10.4247 134.312 12.73 133.342 15.3454C132.369 17.9586 131.885 20.672 131.885 23.4904C131.885 26.3977 132.39 29.159 133.402 31.7608C134.411 34.3671 135.884 36.661 137.816 38.6425C139.748 40.6263 142.104 42.2065 144.881 43.3831C147.657 44.5597 150.799 45.1502 154.307 45.1502C157.212 45.1502 159.87 44.7375 162.285 43.9166C164.704 43.0912 166.799 41.9488 168.574 40.4963C170.344 39.0392 171.801 37.3633 172.942 35.4684C174.083 33.5713 174.849 31.5236 175.24 29.3209H164.948C164.344 31.3503 163.145 33.065 161.352 34.4628Z" fill="white"/>
<path fill-rule="evenodd" clip-rule="evenodd" d="M278.908 26.99C278.908 25.2981 279.482 23.9984 280.623 23.0931C281.764 22.1856 283.198 21.7295 284.917 21.7295C286.713 21.7295 288.163 22.2015 289.267 23.1456C290.369 24.0896 290.922 25.3733 290.922 26.99H278.908ZM295.968 19.0161C294.671 17.7848 293.094 16.8088 291.243 16.0997C289.389 15.3928 287.301 15.0371 284.982 15.0371C282.552 15.0371 280.399 15.4293 278.525 16.2137C276.649 16.9981 275.065 18.0698 273.772 19.4197C272.483 20.7673 271.508 22.3452 270.861 24.1443C270.208 25.9434 269.883 27.8884 269.883 29.9771C269.883 32.0635 270.22 34.0176 270.888 35.8373C271.559 37.6569 272.55 39.2439 273.862 40.6052C275.173 41.9619 276.796 43.0245 278.73 43.7907C280.664 44.5591 282.884 44.9399 285.392 44.9399C287.481 44.9399 289.353 44.6845 291.01 44.1646C292.665 43.6493 294.092 42.9493 295.284 42.0668C296.471 41.1889 297.441 40.1629 298.193 38.9954C298.944 37.8279 299.438 36.5715 299.671 35.2307H290.667C290.353 36.0744 289.786 36.7904 288.968 37.3741C288.147 37.9556 286.914 38.2475 285.272 38.2475C284.122 38.2475 283.145 38.0901 282.345 37.7732C281.543 37.4631 280.902 37.0253 280.425 36.4689C279.945 35.9125 279.595 35.2626 279.371 34.5216C279.145 33.7782 279.032 32.9938 279.032 32.1593H299.728C299.846 31.3749 299.924 30.782 299.963 30.3761C300.003 29.9771 300.021 29.4982 300.021 28.9396C300.021 26.9695 299.671 25.1316 298.97 23.4283C298.264 21.7204 297.266 20.252 295.968 19.0161Z" fill="white"/>
<path fill-rule="evenodd" clip-rule="evenodd" d="M339.431 44.1677H348.58V15.8109H339.431V44.1677Z" fill="white"/>
<path fill-rule="evenodd" clip-rule="evenodd" d="M226.226 16.8626C224.65 17.8864 223.518 19.0698 222.836 20.4129V15.8137H213.686V44.1682H222.836V33.1069C222.836 29.6204 223.596 27.1623 225.118 25.7258C226.635 24.2893 228.693 23.5687 231.286 23.5687C231.849 23.5687 232.351 23.6029 232.789 23.669C233.23 23.7397 233.769 23.8469 234.412 23.9997V15.8137C233.654 15.4876 232.775 15.3257 231.782 15.3257C229.657 15.3257 227.806 15.8387 226.226 16.8626Z" fill="white"/>
<path fill-rule="evenodd" clip-rule="evenodd" d="M348.134 2.32819C347.588 1.8197 346.961 1.42294 346.251 1.13335C345.538 0.848323 344.764 0.702393 343.925 0.702393C342.249 0.702393 340.85 1.24964 339.729 2.34187C338.609 3.43409 338.049 4.78171 338.049 6.38927C338.049 7.17823 338.196 7.91473 338.503 8.60336C338.803 9.29199 339.224 9.90081 339.759 10.4275C340.294 10.9543 340.912 11.367 341.613 11.6634C342.316 11.9598 343.088 12.1081 343.925 12.1081C344.764 12.1081 345.538 11.9598 346.251 11.6634C346.961 11.367 347.588 10.9543 348.134 10.4275C348.68 9.90081 349.098 9.29199 349.39 8.60336C349.683 7.91473 349.831 7.17823 349.831 6.38927C349.831 5.60487 349.683 4.85924 349.39 4.15009C349.098 3.44322 348.68 2.8344 348.134 2.32819Z" fill="white"/>
<path fill-rule="evenodd" clip-rule="evenodd" d="M264.271 18.3409C263.471 17.4038 262.427 16.6285 261.141 16.0151C259.854 15.404 258.218 15.0962 256.231 15.0962C253.951 15.0962 251.991 15.518 250.355 16.3594C248.718 17.2008 247.501 18.3888 246.701 19.9211V15.8144H237.552V44.1667H246.701V29.9176C246.701 27.7332 247.162 25.9956 248.089 24.7027C249.013 23.4144 250.433 22.7646 252.344 22.7646C254.214 22.7646 255.521 23.4144 256.261 24.7027C257.001 25.9956 257.372 27.6397 257.372 29.6303V44.1667H266.521V27.3319C266.521 25.3047 266.376 23.5672 266.081 22.1329C265.79 20.6964 265.186 19.4332 264.271 18.3409Z" fill="white"/>
<path fill-rule="evenodd" clip-rule="evenodd" d="M48.7172 27.6394C49.0583 26.7775 49.524 26.0114 50.1164 25.341C50.7112 24.6729 51.4234 24.1416 52.2602 23.7608C53.097 23.3754 54.0306 23.1862 55.061 23.1862C56.1122 23.1862 57.055 23.3754 57.8895 23.7608C58.7262 24.1416 59.4432 24.6729 60.0356 25.341C60.628 26.0114 61.0936 26.7775 61.4371 27.6394C61.776 28.4991 61.9466 29.4203 61.9466 30.3985C61.9466 31.3927 61.776 32.3321 61.4371 33.2123C61.0936 34.0925 60.628 34.8541 60.0356 35.4948C59.4432 36.1355 58.7216 36.6532 57.8779 37.0476C57.0296 37.4375 56.0937 37.6359 55.061 37.6359C54.0306 37.6359 53.097 37.4375 52.2602 37.0476C51.4234 36.6532 50.7112 36.1355 50.1164 35.4948C49.524 34.8541 49.0583 34.0879 48.7172 33.1986C48.376 32.307 48.2077 31.3722 48.2077 30.3985C48.2077 29.4203 48.376 28.4991 48.7172 27.6394ZM43.0027 41.0266C44.2451 42.3469 45.702 43.3889 47.3733 44.1574C49.0468 44.9212 50.8426 45.3043 52.7558 45.3043C54.9734 45.3043 56.8798 44.846 58.475 43.9248C60.0679 43.0059 61.2251 41.8954 61.9466 40.5934V44.5883H71.0935V16.2338H61.9466V20.2834C61.149 18.9062 59.9572 17.7661 58.3736 16.8631C56.7876 15.967 54.9158 15.5155 52.7558 15.5155C50.8195 15.5155 49.0215 15.9008 47.3594 16.667C45.6974 17.4286 44.2451 18.4707 43.0027 19.7818C41.7602 21.0952 40.792 22.6594 40.0981 24.479C39.402 26.2987 39.0562 28.2711 39.0562 30.3985C39.0562 32.5237 39.402 34.4961 40.0981 36.3134C40.792 38.133 41.7602 39.7041 43.0027 41.0266Z" fill="white"/>
<path fill-rule="evenodd" clip-rule="evenodd" d="M75.4866 44.5858H84.6359V3.39361H75.4866V44.5858Z" fill="white"/>
<path fill-rule="evenodd" clip-rule="evenodd" d="M26.468 28.6414C25.9125 30.1167 25.101 31.4347 24.043 32.593C22.978 33.7514 21.6779 34.6703 20.1403 35.3498C18.5982 36.0293 16.8577 36.3691 14.9076 36.3691H9.70248V11.6652H14.9076C16.8739 11.6652 18.6235 12.0095 20.1541 12.7004C21.6848 13.389 22.978 14.3125 24.043 15.4731C25.101 16.6292 25.9125 17.9517 26.468 19.4362C27.0236 20.9183 27.3025 22.4461 27.3025 24.0171C27.3025 25.627 27.0236 27.1684 26.468 28.6414ZM37.1248 24.0171C37.1248 21.3926 36.6362 18.8456 35.6657 16.3738C34.6929 13.9043 33.2775 11.7062 31.4172 9.78398C29.5593 7.86175 27.2863 6.31804 24.6031 5.15741C21.9176 3.99905 18.8425 3.41987 15.3801 3.41987H0V44.6121H15.3801C18.8425 44.6121 21.9268 44.0352 24.6308 42.8769C27.3348 41.7185 29.6169 40.1771 31.4749 38.2503C33.3328 36.3258 34.739 34.1276 35.6956 31.6559C36.6477 29.1864 37.1248 26.6394 37.1248 24.0171Z" fill="white"/>
<path fill-rule="evenodd" clip-rule="evenodd" d="M98.8615 23.5132C100.007 22.6056 101.436 22.1496 103.156 22.1496C104.952 22.1496 106.404 22.6239 107.506 23.5633C108.61 24.5096 109.163 25.7911 109.163 27.4101H97.1488C97.1488 25.7181 97.7205 24.4184 98.8615 23.5132ZM91.9783 41.0253C93.2899 42.3866 94.9128 43.4469 96.8468 44.2108C98.7809 44.9792 101.001 45.3623 103.506 45.3623C105.595 45.3623 107.469 45.1046 109.127 44.587C110.782 44.0694 112.209 43.3693 113.398 42.4892C114.587 41.609 115.556 40.5829 116.309 39.4154C117.061 38.248 117.552 36.9916 117.787 35.6531H108.781C108.47 36.499 107.902 37.2127 107.082 37.7942C106.261 38.3779 105.03 38.6675 103.389 38.6675C102.239 38.6675 101.261 38.5125 100.459 38.1955C99.6591 37.8808 99.0183 37.4453 98.5411 36.8912C98.0616 36.3326 97.7113 35.685 97.4877 34.9416C97.2617 34.2006 97.1488 33.4139 97.1488 32.5793H117.845C117.962 31.7927 118.041 31.1998 118.08 30.7985C118.117 30.3972 118.137 29.916 118.137 29.3597C118.137 27.3895 117.787 25.5494 117.084 23.8461C116.381 22.1428 115.383 20.6743 114.085 19.4384C112.787 18.2025 111.213 17.2289 109.357 16.5197C107.506 15.8129 105.417 15.4594 103.096 15.4594C100.669 15.4594 98.5158 15.8516 96.6416 16.636C94.7652 17.4204 93.1816 18.4898 91.8884 19.8397C90.5975 21.1873 89.6247 22.7652 88.9746 24.5643C88.3223 26.3634 87.9995 28.3107 87.9995 30.3972C87.9995 32.4836 88.3338 34.4377 89.0046 36.2573C89.6754 38.0747 90.6666 39.664 91.9783 41.0253Z" fill="white"/>
<path fill-rule="evenodd" clip-rule="evenodd" d="M385.164 39.9271H383.613V39.5463H387.14V39.9271H385.593V44.0793H385.164V39.9271Z" fill="white"/>
<path fill-rule="evenodd" clip-rule="evenodd" d="M387.673 39.5463H388.256L389.84 43.5024H389.854L391.398 39.5463H392V44.0793H391.585V40.1323H391.571C391.571 40.1323 391.449 40.4903 391.352 40.7457L390.027 44.0793H389.649L388.307 40.7457C388.213 40.5131 388.084 40.1323 388.084 40.1323H388.072V44.0793H387.673V39.5463Z" fill="white"/>
</svg>
