<svg width="354" height="199" viewBox="0 0 354 199" fill="none" xmlns="http://www.w3.org/2000/svg" style="transform: translateY(-30px);">
<path fill-rule="evenodd" clip-rule="evenodd" d="M310.954 156.268H327.262C327.262 154.067 326.514 152.319 325.015 151.034C323.517 149.749 321.548 149.106 319.108 149.106C316.774 149.106 314.83 149.727 313.282 150.963C311.73 152.195 310.954 153.965 310.954 156.268ZM338.182 151.419C339.137 153.738 339.612 156.24 339.612 158.922C339.612 159.682 339.587 160.334 339.534 160.878C339.481 161.43 339.374 162.237 339.215 163.305H311.123C311.123 164.441 311.276 165.509 311.579 166.521C311.886 167.53 312.362 168.414 313.009 169.172C313.657 169.929 314.527 170.522 315.616 170.947C316.705 171.376 318.031 171.593 319.596 171.593C321.821 171.593 323.491 171.196 324.609 170.404C325.719 169.61 326.489 168.635 326.915 167.486H339.137C338.817 169.312 338.151 171.022 337.131 172.611C336.111 174.201 334.793 175.598 333.179 176.793C331.564 177.994 329.631 178.947 327.381 179.649C325.128 180.356 322.587 180.704 319.752 180.704C316.351 180.704 313.338 180.186 310.713 179.139C308.084 178.093 305.885 176.65 304.104 174.803C302.324 172.95 300.975 170.789 300.068 168.312C299.157 165.835 298.704 163.175 298.704 160.334C298.704 157.491 299.142 154.843 300.027 152.394C300.913 149.945 302.23 147.797 303.985 145.962C305.738 144.124 307.887 142.665 310.434 141.597C312.981 140.53 315.897 139.996 319.195 139.996C322.349 139.996 325.181 140.48 327.697 141.442C330.213 142.405 332.35 143.736 334.111 145.412C335.87 147.095 337.231 149.094 338.182 151.419Z" fill="currentColor"/>
<path fill-rule="evenodd" clip-rule="evenodd" d="M91.9638 164.165C91.4975 165.366 90.8655 166.4 90.0613 167.275C89.2541 168.147 88.2809 168.849 87.1295 169.389C85.9843 169.92 84.7076 170.187 83.3121 170.187C81.9103 170.187 80.6462 169.92 79.5104 169.389C78.3745 168.849 77.4045 168.147 76.6004 167.275C75.7931 166.4 75.1579 165.354 74.6948 164.146C74.2349 162.935 74.0033 161.663 74.0033 160.334C74.0033 159.002 74.2349 157.754 74.6948 156.581C75.1579 155.405 75.7931 154.362 76.6004 153.449C77.4045 152.536 78.3745 151.816 79.5104 151.298C80.6462 150.779 81.9103 150.519 83.3121 150.519C84.7358 150.519 86.0187 150.779 87.1514 151.298C88.2841 151.816 89.2541 152.536 90.0613 153.449C90.8655 154.362 91.4975 155.405 91.9638 156.581C92.4237 157.754 92.6553 159.002 92.6553 160.334C92.6553 161.687 92.4237 162.963 91.9638 164.165ZM92.6553 146.567C91.5726 144.695 89.9549 143.14 87.8022 141.911C85.6526 140.691 83.1118 140.076 80.1831 140.076C77.5547 140.076 75.111 140.595 72.855 141.641C70.5959 142.681 68.6277 144.099 66.9412 145.881C65.2547 147.672 63.9405 149.798 62.9987 152.276C62.0568 154.753 61.5875 157.438 61.5875 160.334C61.5875 163.227 62.0568 165.912 62.9987 168.389C63.9405 170.867 65.2547 173.005 66.9412 174.803C68.6277 176.6 70.6021 178.019 72.8738 179.062C75.1454 180.108 77.5798 180.626 80.1831 180.626C83.1932 180.626 85.7809 180.002 87.943 178.751C90.1083 177.497 91.6759 175.988 92.6553 174.213V179.651H105.074V141.051H92.6553V146.567Z" fill="currentColor"/>
<path fill-rule="evenodd" clip-rule="evenodd" d="M262.376 164.201C261.91 165.374 261.278 166.414 260.471 167.311C259.667 168.211 258.681 168.916 257.517 169.422C256.353 169.931 255.095 170.185 253.747 170.185C252.317 170.185 251.037 169.919 249.898 169.388C248.762 168.851 247.786 168.146 246.979 167.274C246.171 166.398 245.539 165.355 245.076 164.142C244.613 162.931 244.382 161.661 244.382 160.333C244.382 159.054 244.601 157.815 245.039 156.614C245.474 155.416 246.096 154.363 246.904 153.448C247.708 152.535 248.7 151.818 249.879 151.297C251.056 150.775 252.345 150.514 253.747 150.514C255.148 150.514 256.419 150.775 257.555 151.297C258.694 151.818 259.667 152.535 260.471 153.448C261.278 154.363 261.91 155.406 262.376 156.577C262.839 157.75 263.074 159.001 263.074 160.333C263.074 161.739 262.839 163.03 262.376 164.201ZM263.074 146.566C261.882 144.427 260.186 142.813 257.993 141.717C255.799 140.621 253.321 140.078 250.571 140.078C247.845 140.078 245.348 140.596 243.071 141.636C240.796 142.682 238.834 144.095 237.179 145.883C235.527 147.668 234.247 149.782 233.333 152.234C232.419 154.686 231.963 157.359 231.963 160.255C231.963 163.145 232.432 165.805 233.374 168.23C234.309 170.654 235.617 172.753 237.301 174.525C238.978 176.298 240.965 177.66 243.252 178.616C245.539 179.563 248.005 180.041 250.652 180.041C253.719 180.041 256.3 179.455 258.393 178.281C260.48 177.108 262.042 175.702 263.074 174.056V180.088C263.074 183.223 262.192 185.502 260.433 186.911C258.675 188.323 256.444 189.034 253.747 189.034C250.809 189.034 248.65 188.392 247.257 187.103C245.868 185.815 245.07 184.319 244.857 182.621H232.438C232.545 184.76 232.976 186.771 233.727 188.662C234.481 190.552 235.699 192.194 237.379 193.591C239.056 194.985 241.265 196.09 244.006 196.916C246.744 197.735 250.12 198.145 254.144 198.145C261.338 198.145 266.698 196.68 270.215 193.746C273.732 190.813 275.49 186.035 275.49 179.411V141.05H263.074V146.566Z" fill="currentColor"/>
<path fill-rule="evenodd" clip-rule="evenodd" d="M39.9979 166.441C37.5636 168.344 34.4283 169.294 30.5953 169.294C27.9732 169.294 25.6139 168.831 23.5081 167.887C21.4086 166.95 19.6094 165.68 18.1137 164.076C16.6212 162.477 15.4478 160.586 14.603 158.423C13.7551 156.259 13.3326 153.953 13.3326 151.504C13.3326 149.207 13.7175 146.981 14.4841 144.814C15.2507 142.65 16.3615 140.76 17.8165 139.124C19.2715 137.498 21.0644 136.194 23.1921 135.213C25.323 134.238 27.7385 133.748 30.4357 133.748C32.5259 133.748 34.397 134.039 36.0491 134.626C37.7044 135.213 39.1562 136.023 40.4141 137.054C41.6719 138.081 42.6764 139.298 43.4273 140.689C44.1845 142.082 44.7196 143.603 45.0387 145.242H58.7688C58.3995 142.064 57.4734 139.053 56.009 136.212C54.5415 133.375 52.589 130.901 50.1546 128.8C47.7203 126.704 44.8385 125.053 41.5061 123.855C38.1737 122.66 34.4158 122.057 30.2355 122.057C25.3668 122.057 21.0519 122.864 17.2814 124.479C13.5141 126.096 10.3538 128.269 7.79432 130.991C5.23481 133.717 3.29483 136.855 1.97752 140.415C0.657089 143.973 0 147.667 0 151.504C0 155.461 0.68525 159.221 2.05888 162.762C3.42938 166.311 5.42881 169.433 8.0509 172.131C10.673 174.832 13.8708 176.983 17.6413 178.585C21.4086 180.186 25.6734 180.99 30.4357 180.99C34.3783 180.99 37.986 180.428 41.2652 179.311C44.5475 178.187 47.3917 176.632 49.8011 174.655C52.2041 172.671 54.1817 170.389 55.7305 167.81C57.2794 165.227 58.3182 162.44 58.8501 159.441H44.8792C44.0594 162.204 42.4323 164.538 39.9979 166.441Z" fill="currentColor"/>
<path fill-rule="evenodd" clip-rule="evenodd" d="M199.566 156.268C199.566 153.965 200.345 152.195 201.894 150.963C203.443 149.727 205.389 149.106 207.723 149.106C210.161 149.106 212.129 149.749 213.628 151.034C215.123 152.319 215.874 154.067 215.874 156.268H199.566ZM222.724 145.412C220.962 143.736 218.822 142.408 216.309 141.442C213.793 140.48 210.959 139.996 207.811 139.996C204.513 139.996 201.59 140.53 199.046 141.597C196.499 142.665 194.35 144.124 192.594 145.962C190.845 147.797 189.522 149.945 188.643 152.394C187.757 154.843 187.316 157.491 187.316 160.334C187.316 163.175 187.773 165.835 188.68 168.312C189.591 170.789 190.936 172.95 192.717 174.803C194.497 176.65 196.7 178.096 199.325 179.139C201.95 180.186 204.963 180.704 208.368 180.704C211.203 180.704 213.743 180.356 215.993 179.649C218.24 178.947 220.177 177.994 221.794 176.793C223.406 175.598 224.723 174.201 225.743 172.611C226.763 171.022 227.433 169.312 227.749 167.486H215.527C215.101 168.635 214.332 169.61 213.221 170.404C212.107 171.196 210.433 171.593 208.205 171.593C206.644 171.593 205.317 171.379 204.231 170.947C203.142 170.525 202.272 169.929 201.625 169.172C200.974 168.414 200.498 167.53 200.195 166.521C199.888 165.509 199.735 164.441 199.735 163.305H227.827C227.987 162.237 228.093 161.43 228.146 160.878C228.199 160.334 228.224 159.682 228.224 158.922C228.224 156.24 227.749 153.738 226.798 151.419C225.84 149.094 224.485 147.095 222.724 145.412Z" fill="currentColor"/>
<path fill-rule="evenodd" clip-rule="evenodd" d="M281.719 179.653H294.138V141.049H281.719V179.653Z" fill="currentColor"/>
<path fill-rule="evenodd" clip-rule="evenodd" d="M128.057 142.481C125.917 143.875 124.381 145.486 123.455 147.314V141.053H111.036V179.653H123.455V164.595C123.455 159.849 124.487 156.502 126.552 154.547C128.611 152.591 131.405 151.61 134.926 151.61C135.689 151.61 136.371 151.657 136.966 151.747C137.563 151.843 138.295 151.989 139.168 152.197V141.053C138.139 140.609 136.947 140.389 135.598 140.389C132.713 140.389 130.201 141.087 128.057 142.481Z" fill="currentColor"/>
<path fill-rule="evenodd" clip-rule="evenodd" d="M293.532 122.694C292.79 122.002 291.939 121.462 290.975 121.068C290.009 120.68 288.957 120.481 287.818 120.481C285.544 120.481 283.644 121.226 282.124 122.713C280.603 124.2 279.842 126.035 279.842 128.223C279.842 129.297 280.043 130.3 280.459 131.237C280.866 132.175 281.438 133.003 282.164 133.72C282.89 134.438 283.729 134.999 284.68 135.403C285.634 135.806 286.683 136.008 287.818 136.008C288.957 136.008 290.009 135.806 290.975 135.403C291.939 134.999 292.79 134.438 293.532 133.72C294.273 133.003 294.84 132.175 295.237 131.237C295.635 130.3 295.835 129.297 295.835 128.223C295.835 127.155 295.635 126.14 295.237 125.175C294.84 124.212 294.273 123.384 293.532 122.694Z" fill="currentColor"/>
<path fill-rule="evenodd" clip-rule="evenodd" d="M179.698 144.493C178.612 143.218 177.195 142.162 175.449 141.327C173.703 140.495 171.481 140.076 168.784 140.076C165.69 140.076 163.03 140.65 160.808 141.796C158.587 142.941 156.935 144.559 155.849 146.645V141.054H143.43V179.651H155.849V160.253C155.849 157.28 156.475 154.914 157.733 153.154C158.987 151.4 160.915 150.516 163.509 150.516C166.046 150.516 167.821 151.4 168.825 153.154C169.829 154.914 170.333 157.152 170.333 159.862V179.651H182.752V156.733C182.752 153.974 182.555 151.608 182.154 149.656C181.76 147.7 180.94 145.98 179.698 144.493Z" fill="currentColor"/>
<path fill-rule="evenodd" clip-rule="evenodd" d="M132.917 108.335C133.381 107.161 134.013 106.118 134.817 105.206C135.624 104.296 136.591 103.573 137.727 103.054C138.863 102.53 140.13 102.272 141.528 102.272C142.955 102.272 144.235 102.53 145.368 103.054C146.504 103.573 147.477 104.296 148.281 105.206C149.085 106.118 149.717 107.161 150.183 108.335C150.643 109.505 150.875 110.759 150.875 112.091C150.875 113.444 150.643 114.723 150.183 115.921C149.717 117.12 149.085 118.156 148.281 119.029C147.477 119.901 146.497 120.606 145.352 121.143C144.201 121.673 142.93 121.943 141.528 121.943C140.13 121.943 138.863 121.673 137.727 121.143C136.591 120.606 135.624 119.901 134.817 119.029C134.013 118.156 133.381 117.113 132.917 115.903C132.454 114.689 132.226 113.416 132.226 112.091C132.226 110.759 132.454 109.505 132.917 108.335ZM125.161 126.559C126.847 128.357 128.825 129.775 131.093 130.821C133.365 131.861 135.802 132.383 138.399 132.383C141.41 132.383 143.997 131.759 146.162 130.505C148.325 129.254 149.895 127.742 150.875 125.97V131.408H163.291V92.8076H150.875V98.3206C149.792 96.4457 148.174 94.8936 146.025 93.6643C143.872 92.4444 141.331 91.8298 138.399 91.8298C135.771 91.8298 133.33 92.3544 131.074 93.3974C128.818 94.4342 126.847 95.8528 125.161 97.6377C123.474 99.4257 122.16 101.555 121.218 104.032C120.273 106.509 119.804 109.195 119.804 112.091C119.804 114.984 120.273 117.669 121.218 120.143C122.16 122.62 123.474 124.759 125.161 126.559Z" fill="currentColor"/>
<path fill-rule="evenodd" clip-rule="evenodd" d="M169.254 131.405H181.673V75.3276H169.254V131.405Z" fill="currentColor"/>
<path fill-rule="evenodd" clip-rule="evenodd" d="M102.717 109.699C101.963 111.707 100.861 113.501 99.4252 115.078C97.9796 116.655 96.2149 117.906 94.1278 118.831C92.0345 119.756 89.6722 120.219 87.025 120.219H79.9598V86.5881H87.025C89.6941 86.5881 92.069 87.0568 94.1466 87.9974C96.2243 88.9349 97.9796 90.1921 99.4252 91.7721C100.861 93.3459 101.963 95.1463 102.717 97.1672C103.471 99.1849 103.85 101.265 103.85 103.403C103.85 105.595 103.471 107.693 102.717 109.699ZM117.182 103.403C117.182 99.8306 116.519 96.3632 115.202 92.9982C113.881 89.6364 111.96 86.644 109.435 84.0271C106.913 81.4103 103.828 79.3088 100.186 77.7288C96.5403 76.1518 92.3662 75.3634 87.6665 75.3634H66.7898V131.44H87.6665C92.3662 131.44 96.5528 130.655 100.223 129.078C103.893 127.501 106.991 125.403 109.513 122.78C112.035 120.16 113.944 117.167 115.242 113.802C116.535 110.441 117.182 106.973 117.182 103.403Z" fill="currentColor"/>
<path fill-rule="evenodd" clip-rule="evenodd" d="M200.982 102.717C202.537 101.482 204.477 100.861 206.812 100.861C209.249 100.861 211.22 101.507 212.716 102.786C214.215 104.074 214.966 105.818 214.966 108.022H198.657C198.657 105.719 199.433 103.95 200.982 102.717ZM191.639 126.558C193.419 128.411 195.622 129.854 198.248 130.894C200.873 131.94 203.886 132.462 207.287 132.462C210.122 132.462 212.666 132.111 214.916 131.406C217.162 130.702 219.099 129.749 220.714 128.55C222.328 127.352 223.642 125.955 224.666 124.366C225.686 122.777 226.352 121.066 226.671 119.244H214.446C214.024 120.396 213.254 121.367 212.14 122.159C211.026 122.954 209.355 123.348 207.128 123.348C205.566 123.348 204.24 123.137 203.151 122.705C202.065 122.277 201.195 121.684 200.547 120.93C199.897 120.169 199.421 119.288 199.117 118.276C198.811 117.267 198.657 116.196 198.657 115.06H226.75C226.909 113.989 227.016 113.182 227.069 112.635C227.119 112.089 227.147 111.434 227.147 110.677C227.147 107.995 226.671 105.489 225.717 103.171C224.763 100.852 223.408 98.8527 221.646 97.1702C219.885 95.4877 217.747 94.1623 215.229 93.1969C212.716 92.2346 209.881 91.7534 206.73 91.7534C203.435 91.7534 200.513 92.2873 197.969 93.3552C195.422 94.423 193.272 95.8789 191.517 97.7166C189.765 99.5511 188.444 101.699 187.562 104.148C186.676 106.598 186.238 109.249 186.238 112.089C186.238 114.929 186.692 117.59 187.603 120.067C188.513 122.541 189.859 124.704 191.639 126.558Z" fill="currentColor"/>
<path fill-rule="evenodd" clip-rule="evenodd" d="M58.6045 33.0253C58.6045 28.4653 62.3311 24.7713 66.9276 24.7713V-0.00012207H66.4958C49.9309 -0.00012207 36.1946 12.0069 33.6382 27.7234C31.0787 12.0069 17.3424 -0.00012207 0.777507 -0.00012207H0.348834V24.7713C4.94533 24.7713 8.66883 28.4653 8.66883 33.0253C8.66883 37.5885 4.94533 41.2824 0.348834 41.2824V66.0538H0.777507C17.3424 66.0538 31.0787 54.0468 33.6382 38.3273C36.1946 54.0468 49.9309 66.0538 66.4958 66.0538H66.9276V41.2824C62.3311 41.2824 58.6045 37.5885 58.6045 33.0253Z" fill="currentColor"/>
<path fill-rule="evenodd" clip-rule="evenodd" d="M343.796 173.88H341.69V173.361H346.478V173.88H344.378V179.532H343.796V173.88Z" fill="currentColor"/>
<path fill-rule="evenodd" clip-rule="evenodd" d="M347.201 173.361H347.993L350.143 178.747H350.161L352.258 173.361H353.075V179.532H352.511V174.159H352.493C352.493 174.159 352.327 174.646 352.195 174.994L350.396 179.532H349.883L348.062 174.994C347.934 174.677 347.758 174.159 347.758 174.159H347.743V179.532H347.201V173.361Z" fill="currentColor"/>
</svg>
