<svg viewBox="0 0 150 22" fill="none" xmlns="http://www.w3.org/2000/svg">
<path d="M30.979 7.83252H33.0437V17.4147H30.979V7.83252Z" fill="currentColor"/>
<path d="M50.0499 7.83265H51.0823L52.9839 5.65488C53.0383 5.60043 53.0926 5.65488 53.0926 5.70932V7.77821C53.0926 7.83265 53.1469 7.83265 53.1469 7.83265H55.3746C55.4289 7.83265 55.4289 7.8871 55.4289 7.8871V9.73821C55.4289 9.79265 55.3746 9.79265 55.3746 9.79265H53.1469C53.0926 9.79265 53.0926 9.8471 53.0926 9.8471V14.366C53.0926 15.5638 53.8533 15.5638 55.3746 15.5093C55.4289 15.5093 55.4289 15.5093 55.4289 15.5638V17.306C55.4289 17.3604 55.4289 17.3604 55.3746 17.3604C52.2233 17.7415 50.9736 16.816 50.9736 14.366V9.73821H50.0499" fill="currentColor"/>
<path d="M68.7949 3.9668H70.8596V17.4146H68.7949V3.9668Z" fill="currentColor"/>
<path d="M79.8246 14.7467C79.8246 16.6523 78.1402 17.6867 76.0756 17.6867C74.1739 17.6867 72.7612 16.8156 72.1636 15.4545L73.9566 14.4201C74.2826 15.2912 75.0432 15.7812 76.0756 15.7812C76.9992 15.7812 77.7056 15.4545 77.7056 14.6923C77.7056 13.0045 72.5439 13.9301 72.5439 10.5001C72.5439 8.70339 74.1196 7.56006 76.0212 7.56006C77.5969 7.56006 78.9009 8.26784 79.5529 9.5745L77.8142 10.5545C77.4882 9.79228 76.7819 9.46561 76.0212 9.46561C75.2606 9.46561 74.6086 9.79228 74.6086 10.5001C74.6629 12.2423 79.8246 11.2078 79.8246 14.7467Z" fill="currentColor"/>
<path d="M90.0393 7.83252V17.4147H87.9746V16.1625C87.3226 17.1425 86.2903 17.6325 84.9863 17.6325C82.8673 17.6325 81.2916 16.1625 81.2916 13.6581V7.83252H83.3563V13.4947C83.3563 14.9647 84.1713 15.727 85.4753 15.727C86.8336 15.727 87.9203 14.9103 87.9203 12.9503V7.83252H90.0393Z" fill="currentColor"/>
<path d="M96.7223 7.66895V9.90117C95.364 9.79228 93.7883 10.4456 93.7883 12.5689V17.4145H91.7236V7.83228H93.7883V9.46561C94.3316 8.15894 95.4726 7.66895 96.7223 7.66895Z" fill="currentColor"/>
<path d="M114.326 15.7812C115.467 15.7812 116.337 15.2367 116.771 14.5834L118.13 15.7812C117.26 17.0878 116.174 17.6867 114.272 17.6867C111.121 17.6867 109.056 15.509 109.056 12.6234C109.056 9.79228 111.121 7.56006 114.109 7.56006C116.934 7.56006 118.89 9.84673 118.89 12.6234C118.89 12.8956 118.836 13.2223 118.836 13.4945H111.229C111.555 15.0189 112.751 15.7812 114.326 15.7812ZM116.826 11.8612C116.554 10.2278 115.359 9.52006 114.109 9.52006C112.533 9.52006 111.501 10.4456 111.229 11.8612H116.826Z" fill="currentColor"/>
<path d="M120.357 12.6234C120.357 9.79228 122.639 7.56006 125.41 7.56006C128.236 7.56006 130.463 9.73784 130.463 12.6234C130.463 15.4545 128.236 17.6867 125.41 17.6867C122.585 17.6867 120.357 15.4545 120.357 12.6234ZM128.399 12.6234C128.399 10.8812 127.095 9.5745 125.41 9.5745C123.726 9.5745 122.422 10.8812 122.422 12.6234C122.422 14.3656 123.726 15.6723 125.41 15.6723C127.095 15.6723 128.399 14.3656 128.399 12.6234Z" fill="currentColor"/>
<path d="M140.787 11.5347V17.4147H138.722V11.7525C138.722 10.2825 137.907 9.5203 136.603 9.5203C135.245 9.5203 134.158 10.337 134.158 12.297V17.4147H132.093V7.83252H134.158V9.08475C134.81 8.10475 135.842 7.61475 137.146 7.61475C139.265 7.61475 140.787 9.0303 140.787 11.5347Z" fill="currentColor"/>
<path d="M149.589 14.7467C149.589 16.6523 147.904 17.6867 145.84 17.6867C143.938 17.6867 142.525 16.8156 141.928 15.4545L143.721 14.4201C144.047 15.2912 144.807 15.7812 145.84 15.7812C146.763 15.7812 147.47 15.4545 147.47 14.6923C147.47 13.0045 142.308 13.9301 142.308 10.5001C142.308 8.70339 143.884 7.56006 145.785 7.56006C147.361 7.56006 148.665 8.26784 149.317 9.5745L147.578 10.5545C147.252 9.79228 146.546 9.46561 145.785 9.46561C145.025 9.46561 144.373 9.79228 144.373 10.5001C144.481 12.2423 149.589 11.2078 149.589 14.7467Z" fill="currentColor"/>
<path d="M27.067 4.02148V8.21371C26.1977 7.56037 25.1653 7.23371 24.0243 7.23371C21.199 7.23371 18.917 9.52037 18.917 12.3515C18.917 15.1826 21.199 17.4693 24.0243 17.4693C25.1653 17.4693 26.1977 17.0882 27.067 16.4893V17.4693H29.1317V4.02148H27.067ZM24.0787 15.3459C22.3943 15.3459 21.036 13.9848 21.036 12.297C21.036 10.6093 22.3943 9.24815 24.0787 9.24815C25.763 9.24815 27.1213 10.6093 27.1213 12.297C27.1213 13.9848 25.7087 15.3459 24.0787 15.3459Z" fill="currentColor"/>
<path d="M64.9373 7.83253V8.59475C64.0679 7.88697 62.9269 7.39697 61.6773 7.39697C58.8519 7.39697 56.5699 9.68364 56.5699 12.5148C56.5699 15.3459 58.8519 17.6325 61.6773 17.6325C62.9269 17.6325 64.0679 17.197 64.9373 16.4348V17.4148H66.7846V7.83253H64.9373ZM61.6773 15.5636C59.9929 15.5636 58.6346 14.2025 58.6346 12.5148C58.6346 10.827 59.9929 9.46586 61.6773 9.46586C63.3616 9.46586 64.7199 10.827 64.7199 12.5148C64.7199 14.2025 63.3073 15.5636 61.6773 15.5636Z" fill="currentColor"/>
<path d="M46.627 7.83252H48.6916V17.4147H46.627V7.83252Z" fill="currentColor"/>
<path d="M107.426 16.2714V7.83253H105.524V8.54031C104.655 7.83253 103.514 7.39697 102.319 7.39697C99.4934 7.39697 97.2114 9.68364 97.2114 12.5148C97.2114 15.3459 99.4934 17.6325 102.319 17.6325C103.46 17.6325 104.546 17.2514 105.416 16.5981V16.6525C105.416 18.3403 104.112 19.7014 102.427 19.7014C101.83 19.7014 101.232 19.5381 100.797 19.2114L99.3848 20.7359C100.2 21.3347 101.341 21.7703 102.427 21.7703C105.198 21.7703 107.426 19.4836 107.426 16.6525C107.48 16.4892 107.426 16.3803 107.426 16.2714ZM102.373 15.5636C100.689 15.5636 99.3304 14.2025 99.3304 12.5148C99.3304 10.827 100.689 9.46586 102.373 9.46586C104.057 9.46586 105.416 10.827 105.416 12.5148C105.416 14.2025 104.003 15.5636 102.373 15.5636Z" fill="currentColor"/>
<path d="M32.0113 6.03568C31.4137 6.03568 30.979 5.54569 30.979 5.00124C30.979 4.40235 31.468 3.9668 32.0113 3.9668C32.609 3.9668 33.0437 4.4568 33.0437 5.00124C33.0437 5.60013 32.609 6.03568 32.0113 6.03568Z" fill="currentColor"/>
<path d="M47.7137 6.03593H47.6594C47.1161 6.03593 46.6814 5.60037 46.6814 5.05593V5.00149C46.6814 4.45704 47.1161 4.02148 47.6594 4.02148H47.7137C48.2571 4.02148 48.6917 4.45704 48.6917 5.00149V5.05593C48.6917 5.60037 48.2571 6.03593 47.7137 6.03593Z" fill="currentColor"/>
<path d="M44.8884 15.8356V7.83228H42.9867V8.64895C42.1174 7.88673 40.9764 7.45117 39.7267 7.45117C36.9014 7.45117 34.6194 9.73784 34.6194 12.5689C34.6194 15.4001 36.9014 17.6867 39.7267 17.6867C40.9221 17.6867 42.0087 17.3056 42.8781 16.5978C42.7151 18.1223 41.4654 19.2656 39.9441 19.2656C39.3464 19.2656 38.7487 19.1023 38.3141 18.7756L36.9014 20.3001C37.7164 20.899 38.8574 21.3345 39.9441 21.3345C42.7151 21.3345 44.9427 19.0478 44.9427 16.2167C44.9427 16.0534 44.8884 15.9445 44.8884 15.8356ZM39.7267 15.5634C38.0424 15.5634 36.6841 14.2023 36.6841 12.5145C36.6841 10.8267 38.0424 9.46561 39.7267 9.46561C41.4111 9.46561 42.7694 10.8267 42.7694 12.5145C42.7694 14.2023 41.4111 15.5634 39.7267 15.5634Z" fill="currentColor"/>
<path fill-rule="evenodd" clip-rule="evenodd" d="M14.353 0.700195L8.10465 1.1902C7.99599 1.1902 7.88732 1.24464 7.77866 1.29908C7.66999 1.35353 7.61566 1.46242 7.50699 1.51686C7.45266 1.62575 7.39832 1.73464 7.34399 1.84353C7.28965 1.95242 7.28965 2.11575 7.34399 2.22464L8.21332 9.0302C8.21332 9.13908 8.21332 9.24797 8.21332 9.35686C8.21332 9.46575 8.15899 9.57464 8.10465 9.68353C8.05032 9.79242 7.94165 9.84686 7.88732 9.95575C7.77866 10.0102 7.66999 10.0646 7.56132 10.1191L0.932654 11.8069C0.769654 11.8613 0.660987 11.9158 0.552321 11.9702C0.443654 12.0791 0.334987 12.1335 0.280654 12.2424C0.226321 12.3513 0.171988 12.4602 0.117654 12.6235C0.063321 12.7869 0.063321 12.8958 0.117654 13.0046L1.80199 20.3002C1.80199 20.4091 1.85632 20.518 1.96499 20.5724C2.01932 20.6269 2.12799 20.6813 2.23665 20.7358C2.34532 20.7902 2.45399 20.7902 2.56265 20.7902C2.67132 20.7902 2.77999 20.7358 2.94299 20.6813L9.51732 17.8502C9.62599 17.7958 9.68032 17.7413 9.78899 17.6869C9.84332 17.6324 9.95199 17.5235 10.0063 17.4691C10.0607 17.4146 10.115 17.3058 10.115 17.1969C10.115 17.088 10.1693 16.9791 10.115 16.9246L9.51732 11.4802C9.51732 11.3713 9.51732 11.2624 9.51732 11.1535C9.51732 11.0446 9.57166 10.9358 9.62599 10.8269C9.68032 10.718 9.73466 10.6635 9.84332 10.6091C9.95199 10.5546 10.0063 10.5002 10.115 10.4458L14.7877 9.13908C14.842 9.13908 14.9507 9.08464 15.005 9.0302C15.0593 8.97575 15.1137 8.92131 15.168 8.81242C15.2223 8.75797 15.2767 8.64909 15.2767 8.5402C15.2767 8.43131 15.331 8.32242 15.331 8.26797L15.0593 1.51686C15.0593 1.40797 15.0593 1.29908 15.005 1.1902C14.9507 1.08131 14.8963 0.972417 14.842 0.917973C14.7877 0.863528 14.7333 0.809084 14.6247 0.75464C14.516 0.700196 14.4073 0.700195 14.353 0.700195Z" fill="currentColor"/>
</svg>
