
<svg enable-background="new 0 0 1273.4 512.7" viewBox="0 0 1273.4 512.7" xmlns="http://www.w3.org/2000/svg">
  <path d="m519 75.4c3.6-.6 7.2-1.1 10.8-1.4 0-.6 0-1.1 0-1.7-1.1-25.5-22.5-45.3-47.8-44.4-25.3 1.1-45 22.8-43.9 48.3.3 6.7 1.9 13.1 5 18.9 22.3-8.6 47.8-15.6 75.9-19.7m24.1-34.7c-5 1.1-8.1 6.1-6.9 11.1s5.8 8.3 10.8 7.2 8.1-6.1 6.9-11.1c-.8-5-5.8-8.3-10.8-7.2m-121 35c-4.2-2.8-10-1.7-12.8 2.8s-1.7 10 2.8 12.8c4.2 2.8 10 1.7 12.8-2.8 2.7-4.2 1.6-10.1-2.8-12.8m110.2-60c-4.2-2.8-10-1.7-12.8 2.8-2.8 4.4-1.7 10 2.8 12.8 4.2 2.8 10 1.7 12.8-2.8 2.5-4.5 1.4-10-2.8-12.8m-106.9 28c-4.2-2.8-10-1.7-12.8 2.8-2.8 4.4-1.7 10 2.8 12.8 4.2 2.8 10 1.7 12.8-2.8s1.4-10-2.8-12.8m78.6-42.2c-4.2-2.8-10-1.7-12.8 2.8-2.8 4.4-1.7 10 2.8 12.8 4.2 2.8 10 1.7 12.8-2.8 2.7-4.2 1.3-10-2.8-12.8m-60.8 16.1c-4.2-2.8-10-1.7-12.8 2.8s-1.7 10 2.8 12.8c4.2 2.8 10 1.7 12.8-2.8 2.7-4.2 1.6-10-2.8-12.8m30.8-3c-2.8 4.4-8.3 5.6-12.8 2.8-4.2-2.8-5.6-8.6-2.8-12.8 2.8-4.4 8.3-5.6 12.8-2.8s5.6 8.6 2.8 12.8" fill="currentColor"/>
  <path d="m750 102c-10-5.3-97.7-48.3-234.9-28.6-125.2 18-194.4 94.1-198.5 99.4-6.4 6.4-.3 11.7 4.7 8.1 30.8-22.5 96.9-63.6 204.9-79.1 117.5-16.9 225.2 8.3 225.2 8.3 3 1.1 7.5-3.6-1.4-8.1" fill="currentColor"/><g fill="currentColor">
  <path d="m789.7 134c-89.7-18.9-149.9-7.2-191.6 2.8-13.9 3.3-11.4 11.4.8 10.8 25.5-1.4 102.7.6 180.5 14.2 74.1 13.1 134.7 36.1 164.9 50.5 4.2 2.2 7.5-2.5 3.6-5.8-23.5-22.6-79.9-55.9-158.2-72.5"/>
  <path d="m183 307.5v-23.9c0-11.7-8.6-20.5-21.9-20.5h-16.7v21.4 158.8h38.3v-102.2c0-32.5 21.7-49.7 44.7-47.8 17.2 1.4 33.6 1.9 41.9-32.8-46.1-4.1-75.8 16.7-86.3 47"/>
  <path d="m749.7 440.5v-119.7c0-40-32.2-63.3-65.3-63.3-20.3 0-42.8 8.1-55.3 25v-93.9c0-11.4-8.3-20.3-21.4-20.3h-16.4v272.1h38v-112.6c0-29.7 25.3-44.7 43.3-44.7 21.1 0 39.2 16.7 39.2 39.7v117.7z"/>
  <path d="m306 322.8c1.9-8.6 4.7-16.9 9.4-24.4 6.4-10 16.7-17.8 28.6-19.2 11.4-1.4 22.8 3.6 30.3 12.2s10.8 20.3 9.7 31.4c-13.3 0-60 0-78 0m53-62.5c-22.8-1.7-45.8 5.8-63 20.5-19.7 16.9-30.5 42.5-31.9 68.3-1.4 23.9 5.6 48.3 20.5 66.6 7.8 9.7 18 17.5 29.4 22.8 20.8 9.4 46.6 9.7 68 1.9 11.4-4.2 21.9-10.6 30.5-18.9 3.9-3.6 7.5-9.7 3.9-13.9-1.9-2.5-5.8-2.8-8.9-1.9s-5.6 3.1-8.3 4.7c-15 10-35 12.5-52.2 6.7s-31.4-19.4-38.3-36.1c-5-11.9-6.4-25.3-5.6-38.3h121.3c.8-20.8-3.3-43-16.9-59.1-11.5-14.1-30.1-21.9-48.5-23.3"/>
  <path d="m546.2 340.3c-7.5-5.3-16.1-8.1-24.4-10.8-13.3-4.4-31.7-9.4-38.3-23-2.5-5-3.1-11.4-.6-16.4 6.7-14.2 27.5-13.6 40.3-10.6 8.9 2.2 15.8 8.3 24.4 11.4 2.5.8 5.8.3 7.8-1.7 3.1-3.6-.3-9.2-3.6-12.8-15-14.4-37.8-19.2-57.8-14.7-20.5 4.4-38 18.9-43 39.4-3.3 13.9-1.1 29.7 9.2 40.3 6.4 6.9 14.7 11.7 23.3 15.8 12.8 6.1 26.4 11.1 37.5 19.4 11.7 8.9 17.8 26.9 6.1 38.3-7.5 7.5-19.7 9.2-30 8.9-11.7-.3-23.3-3.3-33.6-9.4-5.6-3.3-16.7-12.2-22.8-5-3.9 4.7.3 11.7 4.7 15.8 18.3 17.8 46.4 23.9 71.1 18.9 20.8-4.2 41.7-16.1 51.4-35.5 7.2-15 5.8-31.7-1.4-45.8-5-8.6-12-16.7-20.3-22.5"/>
  <path d="m143.3 177c-14.4-14.4-36.9-19.2-56.6-15-.8 0-1.7.3-2.2.3-29.7 6.7-48.9 28.3-52.2 59.7-1.1 10.8-1.7 31.4-2.5 43.3h-29.8v19.7h30.3v158.8h39.2s0-156.3 0-158.8h46.9c0-10.8-8.6-19.4-19.4-19.4h-27.9s-1.1-43.6 4.4-59.4c2.2-6.4 5.6-12.5 10.3-16.9 10-9.7 25.5-12.2 38-6.1 5.8 2.8 11.4 6.7 17.5 8.9 2.5.8 5.8.3 7.5-1.7 3.1-4.5.1-9.8-3.5-13.4"/></g>
  <path d="m881.6 260c-25.8 0-45.3 10-58 26.1v-1.4c0-11.4-8.3-20.3-21.4-20.3h-16.4v248.2h12.8c13.9 0 25-11.1 25-25v-150.9c0-31.7 20.3-50.5 45.3-50.5s45.3 18.9 45.3 63.9-23.3 76.6-53.6 76.6c-5.6 0-15.8.8-15.8 9.2 0 8.9 9.2 8.9 9.4 9.2 3.9.6 7.8.6 13.6.6 50.8 0 90.2-45.3 90.2-101.1 0-46.8-34.2-84.6-76.4-84.6" fill="currentColor"/>
  <path d="m1019.6 322.8c1.9-8.6 4.7-16.9 9.4-24.4 6.4-10 16.7-17.8 28.6-19.2 11.4-1.4 22.8 3.6 30.3 12.2s10.8 20.3 9.7 31.4c-13.6 0-60.8 0-78 0m53-62.5c-22.8-1.7-45.8 5.8-63 20.5-19.7 16.9-30.5 42.5-31.9 68.3-1.4 23.9 5.6 48.3 20.5 66.6 7.8 9.7 18 17.5 29.4 22.8 20.8 9.4 46.6 9.7 68 1.9 11.4-4.2 21.9-10.6 30.5-18.9 3.9-3.6 7.5-9.7 3.9-13.9-1.9-2.5-5.8-2.8-8.9-1.9-3.1.8-5.6 3.1-8.3 4.7-15 10-35 12.5-52.2 6.7s-31.4-19.4-38.3-36.1c-5-11.9-6.4-25.3-5.6-38.3h121.3c.8-20.8-3.3-43-16.9-59.1-11.5-14.1-29.9-21.9-48.5-23.3" fill="currentColor"/>
  <path d="m1267 410.5c-1.7-1.9-4.4-3.1-8.1-1.9-7.2 2.2-11.7 9.2-18.3 12.5-10 5.3-25 2.5-28.6-9.4-.8-3.1-1.1-6.4-1.1-9.4l.3-117.5h52.2v-18.6h-52.5v-58.9h-6.9-1.4c-5.6.3-10 4.2-11.4 9.2 0 .6-.3 1.1-.3 1.9-5 28.6-17.8 47.2-46.9 53.6v12.8h28.3v106.9c0 6.7-.3 13.1.8 19.7 1.7 9.7 6.1 18.9 14.2 25.3 18.9 15.3 46.9 11.1 65.8-1.7 6.7-4.8 21.1-15.3 13.9-24.5" fill="currentColor"/>
  <path d="m1254.8 232.5c4.4 0 5.8-1.9 5.8-5s-1.4-5.6-5.8-5.6h-2.2v10.6zm8.6 7h-3.1l-3.6-5c-.6 0-1.1.3-1.7.3h-2.5v4.7h-2.8v-19.7h5.3c5.8 0 8.6 3.3 8.6 7.5 0 2.8-1.4 5.3-4.2 6.4zm7.2-9.7c0-8.9-6.1-14.7-14.7-14.7-8.3 0-14.7 6.1-14.7 14.7s6.1 14.7 14.7 14.7c8.3 0 14.7-6.1 14.7-14.7zm-32.2 0c0-10 7.8-17.2 17.5-17.2s17.5 7.2 17.5 17.2c0 9.7-8.1 17.2-17.5 17.2-9.7 0-17.5-7.5-17.5-17.2z" fill="currentColor"/>
</svg>
