<svg viewBox="0 0 324 79" fill="none" xmlns="http://www.w3.org/2000/svg">
<path d="M27.7328 0.234375C29.1311 0.234375 30.0633 1.17206 30.0633 2.34417V43.3679C30.0633 54.3857 23.771 60.4807 14.449 60.4807C7.45758 60.4807 2.7966 56.2611 0.699166 53.6824C1.99229e-05 52.7448 1.99229e-05 51.3382 0.932215 50.635C1.86441 49.9317 3.2627 49.9317 3.96185 50.8694C5.59319 52.9792 9.08892 56.0267 14.449 56.0267C22.6057 56.0267 25.6354 49.9317 25.6354 43.1335V2.34417C25.4023 1.17206 26.5676 0.234375 27.7328 0.234375Z" fill="white"/>
<path d="M43.347 45.4781V22.7392C43.347 21.5671 44.2792 20.6294 45.4445 20.6294H45.9106C47.0758 20.6294 48.008 21.5671 48.008 22.7392V44.7748C48.008 52.7451 52.4359 56.027 58.9613 56.027C67.3511 56.027 70.8468 47.5878 70.8468 47.5878V22.7392C70.8468 21.5671 71.779 20.6294 72.9442 20.6294H73.4103C74.5756 20.6294 75.5078 21.5671 75.5078 22.7392V57.4335C75.5078 58.6057 74.5756 59.5433 73.4103 59.5433C72.2451 59.5433 71.3129 58.6057 71.3129 57.4335V52.5107C71.3129 52.5107 67.5841 60.481 58.2622 60.481C50.3385 60.481 43.347 56.027 43.347 45.4781Z" fill="white"/>
<path d="M90.8891 22.7389V27.8962C90.8891 27.8962 95.317 19.6914 105.105 19.6914C115.825 19.6914 124.215 27.8962 124.215 40.0861C124.215 52.0416 115.825 60.4807 105.105 60.4807C96.4822 60.4807 92.2874 54.6202 91.1221 52.9792V76.8902C91.1221 78.0623 90.1899 78.7656 89.2577 78.7656H88.7916C87.6264 78.7656 86.9272 77.8279 86.9272 76.8902V22.9733C86.9272 21.8012 87.8594 20.8635 88.7916 20.8635C89.9569 20.8635 90.8891 21.8012 90.8891 22.7389ZM91.3552 47.1187C91.3552 47.1187 95.55 56.0267 105.105 56.0267C113.728 56.0267 119.554 48.9941 119.554 40.0861C119.554 31.1781 113.495 24.1454 105.105 24.1454C95.317 24.1454 91.3552 33.0534 91.3552 33.0534V47.1187Z" fill="white"/>
<path d="M136.567 4.92285C138.431 4.92285 139.829 6.5638 139.829 8.20475C139.829 9.8457 138.431 11.7211 136.567 11.7211C134.702 11.7211 133.304 10.0801 133.304 8.43917C133.304 6.79822 134.702 4.92285 136.567 4.92285ZM136.567 20.8635C137.732 20.8635 138.664 21.8012 138.664 22.9733V57.1988C138.664 58.3709 137.732 59.3086 136.567 59.3086C135.401 59.3086 134.469 58.3709 134.469 57.1988V22.9733C134.469 21.8012 135.401 20.8635 136.567 20.8635Z" fill="white"/>
<path d="M150.55 20.8633H156.842V10.5488C156.842 9.37665 157.774 8.43896 158.939 8.43896H159.172C160.338 8.43896 161.27 9.37665 161.27 10.5488V20.8633H167.562C168.727 20.8633 169.66 21.801 169.66 22.9731C169.66 24.1452 168.727 25.0829 167.562 25.0829H161.27V48.2906C161.27 52.5102 162.901 56.2609 168.028 56.2609C169.427 56.2609 170.825 55.7921 171.99 55.3232C172.922 54.8544 174.087 55.3232 174.554 56.4953C175.02 57.6675 174.554 58.8396 173.388 59.3084C171.99 60.0117 169.893 60.7149 167.795 60.7149C160.338 60.7149 156.842 55.5577 156.842 49.2283V24.8485H150.55C149.384 24.8485 148.452 23.9108 148.452 22.7387C148.452 21.801 149.384 20.8633 150.55 20.8633Z" fill="white"/>
<path d="M218.367 40.0858C218.367 40.789 218.367 41.0235 218.367 41.9611H185.274C185.507 47.8217 190.401 56.2609 200.655 56.2609C205.549 56.2609 209.744 53.9166 212.307 51.338C213.007 50.4003 214.405 50.6347 215.337 51.338C216.036 52.2757 216.036 53.4478 215.337 54.3855C211.608 58.1362 206.248 60.7149 200.655 60.7149C189.236 60.7149 181.079 51.338 181.079 40.3202C181.079 29.3024 188.536 19.9255 199.956 19.9255C209.977 19.6911 218.367 28.3647 218.367 40.0858ZM213.706 37.7416C213.473 33.2876 209.744 23.9107 199.723 23.9107C189.003 23.9107 185.507 33.2876 185.274 37.7416H213.706Z" fill="white"/>
<path d="M247.498 23.2077C247.032 24.1454 246.099 24.6143 244.934 24.3798C244.235 24.1454 243.07 24.1454 241.439 24.1454C234.913 24.1454 231.65 32.3502 231.65 32.3502V57.1988C231.65 58.3709 230.718 59.3086 229.553 59.3086C228.388 59.3086 227.456 58.3709 227.456 57.1988V22.7389C227.456 21.5668 228.388 20.6291 229.32 20.6291C230.485 20.6291 231.184 21.5668 231.184 22.7389V26.0208C231.184 26.0208 234.447 19.6914 242.371 19.6914C243.769 19.6914 244.701 19.9258 245.633 19.9258C247.265 20.3947 247.964 21.8012 247.498 23.2077Z" fill="white"/>
<path d="M323.705 1.64095C324.171 0.937685 323.705 0 323.006 0H314.15C311.353 0 308.556 1.17211 306.925 3.51632L293.641 19.457C293.175 19.9258 292.476 19.9258 292.243 19.457L279.192 3.51632C277.328 1.17211 274.531 0 271.735 0H262.879C262.18 0 261.714 0.937685 262.18 1.64095L284.786 29.3027C285.019 29.5371 285.019 30.2404 284.786 30.4748L262.18 58.1365C261.714 58.8398 262.18 59.7774 262.879 59.7774H271.735C274.531 59.7774 277.328 58.6053 278.959 56.2611L323.705 1.64095ZM301.798 32.1157L294.807 40.7893C294.574 41.0237 294.574 41.2582 294.807 41.4926L306.692 56.0267C308.557 58.1365 311.12 59.543 313.917 59.543H322.772C323.472 59.543 323.938 58.6053 323.472 57.9021L302.264 32.1157C302.497 31.8813 302.031 31.8813 301.798 32.1157Z" fill="white"/>
</svg>
