<svg viewBox="0 0 210 36" xmlns="http://www.w3.org/2000/svg">
    <path d="M38.7411359 24.6423957V7.3995173c0-.2264489.1811568-.4094917.4043677-.4094917h3.0764296c.223211 0 .4043677.1830428.4043677.4094917v17.7891404c0 2.2583469-1.2276604 3.3869062-3.6821724 3.3869062h-4.1217201c-2.4549163 0-3.6821723-1.1285593-3.6821723-3.3869062V7.3995173c0-.2264489.1811567-.4094917.4043677-.4094917h3.0764295c.223211 0 .4043677.1830428.4043677.4094917v17.2428784c0 .3644476.0675294.6101427.2025883.7346282.1350588.1265329.3825318.1883662.7428234.1883662h1.7905403c.3829362 0 .6421359-.0618333.7775991-.1883662.1346544-.1244855.2021838-.3701806.2021838-.7346282zM69.6387514 6.9898618c2.454512 0 3.6821723 1.1281498 3.6821723 3.3864967v3.3537374c0 .2260395-.1811567.4094918-.4043677.4094918h-3.109992c-.223211 0-.4043677-.1834523-.4043677-.4094918v-2.9438361c0-.3632192-.0675295-.6093237-.2021839-.7346282-.1354632-.1253045-.3833406-.1883662-.7432279-.1883662h-1.6384979c-.3598873 0-.6077647.0630617-.7428235.1883662-.1354632.1253045-.2025882.371409-.2025882.7346282v14.0271396c0 .3644477.067125.6105522.2025882.7346282.1350588.1261235.3829362.1883662.7428235.1883662h1.6384979c.3598873 0 .6077647-.0622427.7432279-.1883662.1346544-.124076.2021839-.3701805.2021839-.7346282v-2.874632c0-.2264489.1811567-.4094917.4043677-.4094917h3.109992c.223211 0 .4043677.1830428.4043677.4094917v3.2845333c0 2.2583469-1.2276603 3.3864967-3.6821723 3.3864967h-3.95229c-2.4549164 0-3.6821724-1.1281498-3.6821724-3.3864967V10.3763585c0-2.258347 1.227256-3.3864967 3.6821724-3.3864967h3.95229zm-66.1587629 0c.2236154 0 .4043677.1830428.4043677.4094917v18.1658728h7.571381l-.5297217 2.6813519c-.0380105.1916422-.2038013.3292314-.3966847.3292314H.4043678C.1807523 28.5758096 0 28.3927668 0 28.1663178V7.3993535c0-.2264489.1807524-.4094917.4043677-.4094917h3.0756208zm51.1353702 14.0942963V7.3993536c0-.226449.1811567-.4094918.4043677-.4094918h2.7383781c.2236154 0 .4043678.1830428.4043678.4094917v20.7669643c0 .226449-.1807524.4094918-.4043678.4094918h-2.949458c-.1759 0-.3311772-.1142482-.3849581-.2833683l-4.4698807-14.0160834v13.8899599c0 .226449-.1811567.4094918-.4043677.4094918h-2.7719406c-.2236154 0-.4043677-.1830428-.4043677-.4094918V7.3993535c0-.2264489.1807523-.4094917.4043677-.4094917h3.0509543c.1754956 0 .3307728.1146577.3849581.2833683l4.4019469 13.810928zM21.2980473 10.018258l-2.2280661 18.2158307c-.0327538.197375-.2013751.3415161-.3987065.3415161h-3.0493369c-.2551561 0-.4468264-.2366862-.3962804-.4901616l2.5361943-20.7669643c.0384149-.1912326.2042057-.3288218.3966847-.3288218h6.301262c.191266 0 .356248.1359512.3954717.3251364l2.5143584 20.7669643c.0529722.2542944-.1386981.493847-.3954716.493847h-3.0651073c-.1953096 0-.3627178-.1408651-.3978978-.3353737L21.2980473 10.018258zm92.4933717 11.0598806h3.614643l-1.857665-10.3322957-1.756978 10.3322957zm4.922368 7.2160635l-.767085-4.239468h-4.661956l-.702386 4.2349636c-.023454.1425031-.144764.246514-.287101.246514h-3.283466c-.183583 0-.321473-.170758-.285484-.3529819l4.173479-20.9987366c.027093-.1375892.146786-.2362767.285079-.2362767h4.762239c.137889 0 .256774.097459.285079.2338198l4.370406 20.9983271c.038011.1834523-.100283.3558483-.285079.3558483h-3.317432c-.140316 0-.260818-.1019634-.286293-.2420096zm11.590998-18.3351157v7.2533273h2.80429c.359483 0 .607765-.0626522.742824-.1883662.135059-.1253045.202588-.3701805.202588-.7354472v-5.4057005c0-.3648571-.067529-.6101427-.202588-.7358566-.135059-.1253045-.383341-.1879568-.742824-.1879568h-2.80429zm0 10.1607187v8.1214497c0 .1625682-.130206.2948341-.291144.2948341h-3.302876c-.160938 0-.291145-.1322659-.291145-.2948341V7.2429278c0-.1625683.130207-.2948342.291145-.2948342h7.54631c2.454917 0 3.682577 1.1289688 3.682577 3.3873158v6.397899c0 1.8701488-.822079 2.9651297-2.466239 3.2841237l3.376875 8.109165c.080874.1945086-.059846.4094918-.268096.4094918h-3.551157c-.120097 0-.227659-.0745275-.271331-.1879567l-3.171051-8.2283271h-1.283868zM152.00065 7.2430096v2.4209152c0 .1629777-.130207.2952435-.291145.2952435h-3.458961v18.2817589c0 .1629777-.130611.2952436-.291145.2952436h-3.30328c-.160938 0-.291145-.1322659-.291145-.2952436V9.9591683h-3.42459c-.160938 0-.291145-.1322658-.291145-.2952435V7.2430096c0-.1625682.130207-.294834.291145-.294834h10.769121c.160938 0 .291145.1322658.291145.294834zm12.756911 2.7160768h-6.127788v6.5690666h4.945417c.160939 0 .291145.1318563.291145.294834v2.2837355c0 .1625682-.130206.2952436-.291145.2952436h-4.945417v8.8392887c0 .1625682-.130611.2948341-.291145.2948341h-3.336438c-.160938 0-.291144-.1322659-.291144-.2948341V7.2429278c0-.1625683.130206-.2948342.291144-.2948342h9.755371c.160534 0 .291145.1322659.291145.2948341V9.663843c0 .1629777-.130611.2952435-.291145.2952435zm10.603007 14.6429334V10.8828179c0-.3648571-.067529-.6101427-.202588-.7358566-.135463-.124895-.383745-.1879567-.743632-.1879567h-1.790541c-.38334 0-.641731.0630617-.77679.1879567-.135059.1257139-.202588.3709995-.202588.7358566v13.7192019c0 .3652666.067529.6101427.202588.7354472.135059.1257139.39345.1883662.77679.1883662h1.790541c.359887 0 .608169-.0626523.743632-.1883662.135059-.1253045.202588-.3701806.202588-.7354472zm-3.919132-17.6535986h4.122125c2.454107 0 3.682172 1.1289688 3.682172 3.3869063v14.8137733c0 2.2583469-1.228065 3.3869062-3.682172 3.3869062h-4.122125c-2.455321 0-3.682577-1.1285593-3.682577-3.3869062V10.3353275c0-2.2579375 1.227256-3.3869063 3.682577-3.3869063zm15.390518 3.0734403v7.2533273h2.80429c.359483 0 .607765-.0626523.742824-.1883662.135059-.1253045.202588-.3701806.202588-.7354472v-5.4057005c0-.3648571-.067529-.6101427-.202588-.7358567-.135059-.1253044-.383341-.1879567-.742824-.1879567h-2.80429zm0 10.1607187v8.1214497c0 .1629777-.130206.2948341-.291145.2948341h-3.303279c-.160534 0-.290741-.1318564-.290741-.2948341V7.3057028c0-.1625682.130207-.294834.290741-.294834h7.546714c2.454917 0 3.682577 1.1289687 3.682577 3.3873156v6.397899c0 1.8701488-.82208 2.9651298-2.466239 3.2841238l3.376875 8.109165c.080874.1945086-.059846.4094918-.268096.4094918H191.5578c-.119693 0-.227659-.074118-.271331-.1875473l-3.170647-8.2287365h-1.283868zm19.249319 4.5562098V10.7456382c0-.3644477-.06753-.6097332-.202993-.7354472-.135059-.124895-.382936-.1879567-.743228-.1879567h-3.040036v15.8403691h3.040036c.360292 0 .608169-.0626522.743228-.1883662.135463-.1253045.202993-.3701805.202993-.7354472zm-7.872231-17.4959442c0-.1625682.130611-.2944245.291145-.2944245h7.817236C208.771935 6.9484212 210 8.07739 210 10.3353274v14.8137733c0 2.2583469-1.228065 3.3869062-3.682577 3.3869062h-7.817236c-.160534 0-.291145-.1322658-.291145-.2948341V7.2428459z" fill="currentColor"/>
    <path d="M93.8129094 0v2.9964144h8.2763696v29.1567584h-8.2763696v2.9960069h11.7939586c.222986 0 .404693-.1821814.404693-.4075646V.4075645c0-.2253832-.181707-.4075645-.404693-.4075645H93.8129094zM77.6879297 0c-.2237951 0-.4046927.1821813-.4046927.4075645v34.3340506c0 .2253832.1808976.4075646.4046927.4075646h11.7935539v-2.9960069H81.204709V2.9964144h8.2767746V0H77.6879297zm16.5648806 6.8324117c-.2233904 0-.4046927.1825889-.4046927.4075645v8.4162074h-4.3949624V7.2399762c0-.2249756-.1808977-.4075645-.4046927-.4075645h-3.0784972c-.2233904 0-.4046927.1825889-.4046927.4075645v21.0771993h3.8878826v-8.824587h4.3949624v8.4170225c0 .2245681.1813023.4075645.4046927.4075645h3.0789019c.2229856 0 .4046927-.1829964.4046927-.4075645V7.2399762c0-.2249756-.1817071-.4075645-.4046927-.4075645h-3.0789019z" fill="currentColor"/>
</svg>
