<svg version="1.0" xmlns="http://www.w3.org/2000/svg" viewBox="0 0 1367 330">
  <g fill="currentColor">
    <path d="M849.9 1c-19.1 2.2-31.7 7.8-43 18.9-12.2 12.2-17.2 25-17.2 44.1 0 18.1 4.8 30.5 15.7 40.8 10.7 10 20.2 14 51.2 21.6 10 2.4 20.6 5.6 23.7 7 18.4 8.8 17.9 27.2-1 34.8-5.1 2-7.5 2.3-20.8 2.3-12.6 0-16.2-.4-22.8-2.3-8.9-2.5-18-6.9-25-11.8-2.6-1.9-5.1-3.4-5.5-3.4-.9 0-21.2 34.1-21.2 35.6 0 1.2 8.7 6.9 17 11.1 24.6 12.5 62.1 16.6 88.5 9.6 3.3-.8 10.2-3.5 15.4-6 16.2-7.7 28.3-21.9 32.6-38.3 2.1-7.8 2.4-24.1.6-32-4.5-19.1-18.2-33.5-39.6-41.5-3.8-1.5-16.1-4.9-27.2-7.6-20.2-4.8-26.7-7.2-31.1-11.3-6.8-6.1-7-16-.5-22.8 10.8-11.3 46.4-9.9 67.4 2.6l5.9 3.5 1.4-2.2c.8-1.2 5.7-9.4 11-18.2l9.6-15.9-4.8-3C919.6 10 906.3 5.2 891 2.6 879.9.7 859.5-.1 849.9 1z"/>
    <path d="M236.2 3.1c-17.8 1.6-35.8 7.8-50.1 17.4-9.2 6-22.5 20.3-28.2 30.1-10.4 17.7-14.2 32.6-14.3 55.4 0 26.5 5.9 46.1 19.6 64.8 24.2 32.8 71.5 47.6 115.4 36.1 35.8-9.4 61.3-35 71.1-71.4 2.5-9.2 2.7-11.5 2.7-29 0-17.4-.3-19.8-2.6-28.7C336.1 27.1 292-1.9 236.2 3.1zm25.3 44.4c21.6 4.6 37.3 19.7 43.2 41.6 2.3 8.7 2.3 26.2 0 34.9-3 11.1-7.4 18.8-15.1 26.6-12.2 12.1-26.1 17.1-45.1 16.1-5.5-.4-12.1-1.3-14.6-2.1-25.3-8-39.9-29.3-39.9-58 0-12.2 1.9-20.7 6.7-30.5 11.2-22.5 37.8-34.3 64.8-28.6z"/>
    <path d="M1276 3.1c-48 4.2-83.4 36.5-91.5 83.3-1.9 11.3-1.9 29.9 0 40.9 2 11.6 7.4 26.4 13.2 36.1 6.5 10.8 20.3 24.7 31.3 31.4 41.1 25.2 99.9 19.9 132.6-11.8 3-2.9 5.3-5.6 5.2-5.9-.3-.7-28.4-26.9-31-29-1.6-1.2-2.4-.8-7 3.4-10.9 9.8-22.3 14.4-37.4 15.2-28.5 1.6-50.5-13-59.1-39.1-2.3-7.1-2.6-9.7-2.6-21.1 0-11.4.3-14 2.6-21.1 6.7-20.1 21.7-33.7 41.9-37.8 20.1-4.1 40.3.9 53.8 13.4 3 2.7 5.7 4.9 6.1 4.8.4-.2 8-7 16.8-15.3l16.1-14.9-4.7-4.9c-14.1-14.3-38.6-25.5-59.6-27.2-14.8-1.2-17.4-1.2-26.7-.4z"/>
    <path d="M0 106.5V208h127v-42H45V5H0v101.5z"/>
    <path d="M369 6c0 .7 61.3 177.3 69 198.8l1.2 3.2 25.5-.2 25.6-.3L525.6 107C545 51.7 561 6.2 561 5.7c0-.4-10.2-.6-22.6-.5l-22.6.3-24.6 73.3c-14.2 42.4-24.9 72.7-25.3 72-.5-.7-11.7-33.8-25-73.5L416.6 5h-23.8c-14.9 0-23.8.4-23.8 1z"/>
    <path d="M600 106.5V208h143v-42h-98V47h95V5H600v101.5z"/>
    <path d="M1000.2 104.7c-21 54.9-38.5 100.6-38.8 101.5-.6 1.7.9 1.8 22.3 1.8h22.9l7.8-21.5 7.9-21.5h80.2l7.9 21.5 7.9 21.5h24.4c19.2 0 24.4-.3 24.1-1.3-.3-.6-17.6-46.3-38.4-101.4L1090.5 5h-52l-38.3 99.7zm88.3 19.5c.7 1.7-1 1.8-26 1.8-15.2 0-26.5-.4-26.3-.9.2-.5 6.2-16.4 13.3-35.3l13-34.5 12.6 33.6c7 18.5 13 34.4 13.4 35.3z"/>
    <path d="M680 106v25h43V81h-43v25z"/>
    <path d="M463.1 240.1c-7.6 2.3-12.1 8.2-12.1 15.9 0 3.8-.2 4-3 4-2.9 0-3 .2-3 4.5s.1 4.5 3 4.5h3v41h10v-41h12v-9h-6c-5.4 0-6-.2-6-2.1 0-5.1 3.9-8.8 9.3-8.9h3.8l-.3-4.8c-.3-4.6-.4-4.7-3.8-4.9-1.9-.1-5 .3-6.9.8z"/>
    <path d="M698.5 239.9c-7.6 1.9-11.3 5.9-12.8 14-1.1 5.7-1.3 6.1-3.9 6.1-2.6 0-2.8.2-2.8 4.5s.1 4.5 3 4.5h3v41h11v-41h11v-9h-5.5c-5.5 0-5.5 0-5.5-3 0-4.4 3.9-8 8.5-8h3.6l-.3-4.8c-.3-4.4-.5-4.7-3.3-4.9-1.6-.1-4.3.2-6 .6z"/>
    <path d="M1259.8 240.3c-10.1 3.8-16.7 9.8-21.1 19.4-1.8 3.9-2.2 6.6-2.2 14.8 0 8.7.3 10.7 2.6 15.6 7.1 15.1 22.4 23 38.9 20.1 7.1-1.3 15.8-5.3 19.1-8.8l2.1-2.3-2.7-3.5c-1.5-2-2.9-3.6-3.1-3.6-.2 0-2.3 1.4-4.6 3-2.3 1.7-6.6 3.8-9.6 4.6-22 6.4-39.9-17.8-28.6-38.7 6.8-12.4 22.1-15.8 36.1-7.9l5.3 3 2.7-4.1c2.7-4.1 2.7-4.1.8-5.6-5.9-4.5-13-6.7-22.5-7-6.3-.2-10.7.1-13.2 1z"/>
    <path d="M1 275v35.3l15.8-.6c11-.3 17.2-1 20.6-2.2 15.1-5.2 22.3-17.2 21.4-35.4-.6-10.7-3.3-17.5-9.5-23.2-8-7.3-11.4-8.3-31-8.7L1 239.8V275zm28.9-24.9c10.9 2.3 17.1 10.1 17.9 22.7.7 11.5-3.4 19.9-12.2 24.4-3.2 1.7-6.4 2.3-14.3 2.6l-10.3.4V249h7c3.8 0 9.2.5 11.9 1.1z"/>
    <path d="M168 245v5h11v-10h-11v5z"/>
    <path d="M397 252v11.9l-3.6-2.4c-9.7-6.6-24-3.1-30.1 7.3-2.6 4.4-2.8 5.5-2.8 15.8 0 10.6.1 11.3 3 16 4.2 6.7 10 9.9 18 9.8 6 0 10.6-1.6 13.9-4.9 1.5-1.5 1.6-1.4 1.6 1.4 0 3 .1 3.1 5 3.1h5v-70h-10v12zm-6.2 17.6c8.4 5.5 7.9 25.4-.9 29.9-8.9 4.6-17.8-.9-19.5-12-2.1-14 10.1-24.7 20.4-17.9z"/>
    <path d="M609 275v35h41v-10h-31v-60h-10v35z"/>
    <path d="M658 245v5h11v-10h-11v5z"/>
    <path d="M803 275v35h10v-30h24v-9h-24v-22h29v-9h-39v35z"/>
    <path d="M1004 245v5h11v-10h-11v5z"/>
    <path d="M1031 253v7h-3.5c-3.5 0-3.5 0-3.5 4.5s0 4.5 3.4 4.5h3.5l.3 15.4c.3 13.9.5 15.8 2.4 18.3 3.1 4.2 7.7 6.4 14.4 7l6 .6v-9.9l-3.6-.1c-2.5-.1-4.5-.9-6.3-2.7-2.5-2.5-2.6-3.2-2.9-15.6l-.4-13h12.2v-9h-12v-14h-10v7z"/>
    <path d="M83.8 259.4c-5.5 2-8.5 4.2-11.7 8.7-2.9 3.9-5.1 11.2-5.1 16.8 0 9.6 7.2 20.5 15.8 23.8 6.7 2.6 17.3 2.3 23.4-.6 7.2-3.5 8.1-5.5 4.4-10.4-1.3-1.6-1.6-1.6-6.4.9-11.3 5.9-23 1.4-25.7-9.9l-.7-2.7H114v-4.8c0-7.5-1.8-12.3-6.4-16.8-6.1-6.1-15.3-8-23.8-5zm14.1 9c1.5.8 3.2 2.6 3.9 4.1 2.5 5.4 2.2 5.5-10.8 5.5-13.9 0-14.6-.6-8.1-7.1 3.2-3.3 4.5-3.9 8-3.9 2.3 0 5.4.6 7 1.4z"/>
    <path d="M132.5 259.3c-7.8 3.2-11.1 8-10.2 14.7.8 6.1 3.3 8.8 12.6 13.2 9.7 4.6 12.1 6.3 12.1 8.9 0 5.4-9.4 6.7-17 2.3l-4.5-2.6-2.2 2.9c-1.3 1.5-2.3 3.3-2.3 3.9 0 3 7.7 6.9 15.6 7.9 6.6.9 12.7-.9 17.1-4.9 3.2-2.9 3.7-4 4.1-9 .5-5.7.4-5.7-4-9.9-2.7-2.5-6.9-5.1-10.6-6.5-8.4-3.2-10.7-5.2-9.9-8.5 1.3-5 11-5.7 17.4-1.2 2.1 1.5 2.3 1.4 4.3-2.4 1.1-2.2 2-4.3 2-4.5 0-.3-1.9-1.5-4.2-2.7-5.1-2.6-15.8-3.5-20.3-1.6z"/>
    <path d="M201.1 260.7c-4.3 2.2-6 3.9-8.5 8.3-2.7 4.9-3.1 6.4-3.1 13.5 0 9.9 2.2 16.1 7.5 20.9 7.7 6.9 20.1 7.6 26.8 1.4l2.2-2.1v3.7c0 11.5-10.4 17.2-23.3 12.8l-5.8-1.9-1.4 3.5c-2.1 4.8-2 5.1 2.1 6.8 9.5 4 24.7 2.4 31.5-3.3 6.4-5.5 6.9-7.7 6.9-38.1V259h-5c-4.3 0-5 .3-5 2 0 1.9-.1 1.9-3.5-.2-2.2-1.2-6-2.2-9.8-2.5-5.4-.4-6.9-.1-11.6 2.4zm19.5 8.9c5.4 3.6 7 15.7 3.2 23.4-6.1 11.9-22.2 7.1-23.6-7-.2-2.7-.1-6.5.2-8.4.8-4 5.5-9.2 8.9-9.9 3.3-.7 8.7.2 11.3 1.9z"/>
    <path d="M270.6 259.4c-2.1.8-5.4 2.9-7.2 4.7l-3.4 3.3V259h-10v51h11v-15.4c0-14.3.2-15.5 2.3-18.7 4.9-7.3 13.7-10.1 18.8-6 2.3 1.9 2.4 2.3 2.7 21l.3 19.1h11.1l-.3-20.3c-.4-22-1-24.5-7-28.9-3.4-2.6-13.1-3.3-18.3-1.4z"/>
    <path d="M321.6 259.4c-5.7 2.1-10.7 6.7-13.5 12.2-3 6-3.4 17.7-.9 23.5 2.3 5.3 7.3 10.5 12.6 13.1 7.1 3.4 17.8 3.2 25.5-.5 3.1-1.6 5.7-3.5 5.7-4.3 0-1.5-2.7-7.4-3.4-7.4-.2 0-2.7 1.2-5.4 2.6-7.7 4-15.8 3.4-21.1-1.6-2.2-2.2-5.1-7.8-5.1-10 0-.6 6.3-1 18-1h18v-5.8c-.1-8.9-4.1-16.2-11.2-19.8-4.4-2.3-14.4-2.8-19.2-1zm15.1 9.4c1.2.9 2.9 3.4 3.8 5.4l1.5 3.8h-12.5c-10.1 0-12.5-.3-12.5-1.4 0-2 4.9-7.6 7.4-8.6 3.6-1.5 10-1.1 12.3.8z"/>
    <path d="M494.6 259.6c-10.9 3.5-18.6 16-17.2 27.8 2.5 21.8 29.9 31.2 46 15.8 5.5-5.3 7.6-10.3 7.6-18.5 0-10.9-4.1-18.2-12.9-23-6.4-3.6-16.3-4.4-23.5-2.1zm17.5 10c5.7 2.9 9.7 11.4 8.4 17.7-3.1 14.5-20.2 18.8-29 7.3-5-6.6-4.5-15.3 1.2-21.7 5.3-5.9 12.2-7.1 19.4-3.3z"/>
    <path d="M728.8 259.2c-4.8 1.3-11.3 7-14 12.2-1.2 2.4-2.3 6.8-2.6 10.8-.8 11.9 3.9 20.7 13.6 25.5 7.5 3.7 17.1 3.8 24.9.4 7.1-3.2 7.8-4.1 5.6-8.5-.9-2-2-3.6-2.4-3.6-.4 0-2.7 1.1-5 2.5-5.6 3.2-13.9 3.4-18.7.5-3.7-2.3-7.2-7.5-7.2-10.8V286h36.3l-.6-6.5c-1.6-16.6-13.5-24.7-29.9-20.3zm15.1 10.5c1.7 1.6 3.3 4 3.7 5.5l.6 2.8H723l1.3-3.3c3.1-7.5 13.9-10.3 19.6-5z"/>
    <path d="M966.1 259.3c-1.8.6-4.9 2.5-6.7 4.2l-3.4 3.2V259h-10v51h9.8l.4-15.3c.4-16.8 1.2-19.7 6.8-23.7 3.9-2.8 10.3-3.7 13.5-2 3.7 2 4.5 6 4.5 24.1V310h10v-19.8c0-23.6-1-26.9-8.2-30.2-4.7-2.1-11.4-2.4-16.7-.7z"/>
    <path d="M1170.7 259.4c-11.9 4.4-18.5 17.5-15.7 31 3.7 17.9 24.7 26 41.7 16.1l4.3-2.6-2-3.9c-1.1-2.2-2.2-4-2.4-4-.2 0-2.7 1.2-5.4 2.6-7.7 4-15.8 3.4-21.1-1.6-2.2-2.2-5.1-7.8-5.1-10 0-.6 6.3-1 18-1h18v-5.8c0-8.2-3.7-15.3-9.6-18.8-5.5-3.2-15-4.1-20.7-2zm16.1 10.6c1.6 1.6 3.2 4 3.4 5.5l.5 2.5h-12.3c-13.9 0-14.5-.4-9.7-6 3.2-3.8 5.5-4.9 11-4.9 3.3-.1 4.7.5 7.1 2.9z"/>
    <path d="M1319.9 258.7c-5.1.8-13.2 6.6-16.4 11.7-2.4 4-3 6.2-3.3 12.2-.5 9.1.9 13.5 6.2 19.2 9.6 10.5 25.5 11.9 37.3 3.3 5.4-3.9 8.3-8.8 9.5-16.4 1.6-9.1-.7-16.3-7.1-22.7-6.7-6.7-15-9-26.2-7.3zm11.3 9.3c2.1.6 5.1 2.7 7.1 5 5.7 6.3 6.2 15 1.2 21.6-8.8 11.5-25.9 7.2-29-7.3-1.5-7.4 3.6-16.2 11-18.8 4.9-1.7 5.1-1.7 9.7-.5z"/>
    <path d="M168 284.5V310h11v-51h-11v25.5z"/>
    <path d="M542 284.5V310h9.8l.4-14.7c.3-12.7.6-15.3 2.4-18.3 2.6-4.6 7.8-8 12-8h3.4v-10h-4.2c-4.6 0-9 2.3-12 6.2l-1.8 2.3V259h-10v25.5z"/>
    <path d="M658 284.5V310h11v-51h-11v25.5z"/>
    <path d="M850.2 278.7c.3 22.4 1.3 26 7.8 29.8 6.8 3.9 18.2 2.2 24.8-3.8l2.2-2V310h10v-51h-10v13.2c0 15.6-.9 19.7-5.5 24.2-3.7 3.8-7.9 5.1-12.5 4.1-5.2-1.2-6-4.2-6-24V259h-11.2l.4 19.7z"/>
    <path d="M909 284.5V310h11v-13.8c0-12.3.2-14.3 2.3-18.2 2.5-5.1 7.7-9 11.8-9 2.8 0 2.9-.2 2.9-5v-5h-3.7c-4.7 0-9.7 3-12.3 7.2l-2 3.3V259h-10v25.5z"/>
    <path d="M1004 284.5V310h11v-51h-11v25.5z"/>
    <path d="M1063 278.7c0 17.3.3 20.3 1.9 24 2.5 5.3 6.8 7.7 14.1 7.7 7.5.1 10.4-.9 15-5l4-3.6v8.2h10v-51h-11v14.7c0 13.5-.2 15.2-2.3 18.7-2.8 5-6.4 7.6-11.4 8.3-3.2.4-4.5.1-6.9-2l-2.9-2.5-.3-18.6-.4-18.6h-9.8v19.7z"/>
    <path d="M1122 284.5V310h9.9l.3-14.3c.3-12 .6-14.8 2.4-18.2 2.6-4.9 7.6-8.5 12-8.5h3.4v-10h-3.4c-4.9 0-8.3 1.5-11.7 5.2l-2.9 3.2V259h-10v25.5z"/>
    <path d="M1359 305.5v4.5h8v-9h-8v4.5z"/>
  </g>
</svg>
