
<svg viewBox="0 0 164 33" fill="none" xmlns="http://www.w3.org/2000/svg">
  <path fill-rule="evenodd" clip-rule="evenodd" d="M14.09 17.427V0h4.309v24.267h-6.121L4.948 6.882h-.64v17.385H0V0H6.12l7.332 17.427h.637zm14.471 6.82V0h13.714v3.83H32.87v6.498h7.035v3.557H32.87v6.531h9.405v3.831l-13.714.02v-.02zM159.294 0v17.427h-.638L151.325 0h-6.121v24.267h4.309V6.882h.638l7.331 17.385h6.121V0h-4.309zM71.087 17.427L73.724.001h4.31l-4.35 24.265h-5.399L64.791 6.882h-.608L60.69 24.266h-5.397L50.944.001h4.309l2.637 17.426h.539L61.972.001h5.034l3.543 17.426h.538zM125.555.001l-6.675 24.265h4.31l.927-3.873 7.195.02.923 3.853h4.309L129.865.001h-4.31zm-.408 16.086l2.213-9.247h.705l2.215 9.26-5.133-.013zm-27.288 1.298L101.352 0h5.392v.003l4.35 24.262h-4.306L104.146 6.84h-.524l-3.552 17.426h-5.034L91.484 6.84h-.524l-2.643 17.426H84.01L88.356.001h5.4l3.493 17.384h.609z" fill="currentColor"/>
  <path fill-rule="evenodd" clip-rule="evenodd" d="M0 32.885h18.399v-4.309H0v4.309z" fill="currentColor"/>
</svg>
