<svg xmlns="http://www.w3.org/2000/svg" viewBox="0 0 31.988123 17.965209">
  <path class="st0" d="M14.763745 17.9652084l-.6879167-.4233333 2.2225-3.3602083c-.2910417.1058333-.5820834.15875-.8466667.15875-.6614583 0-1.2170833-.238125-1.666875-.714375-.4497916-.47625-.6879166-1.0583333-.6879166-1.74625 0-.47625.1058333-.8995833.3175-1.27.2116666-.3704166.5291666-.6879166.9260416-.8995833.396875-.238125.8466667-.3439583 1.2964583-.3439583.4497917 0 .873125.1058333 1.27.3175.396875.2116666.6879167.5291666.8995833.9260416.2116667.396875.3175.8202083.3175 1.27 0 .3439583-.079375.6879167-.2116666 1.0583333-.1322917.3704167-.3704167.8202083-.7408334 1.349375zm.8995833-4.365625c.47625 0 .8995833-.15875 1.2170833-.5027083.3439583-.3439583.5027083-.7408333.5027083-1.2170833 0-.47625-.15875-.873125-.5027083-1.2170833-.3439583-.3439583-.7408333-.5027083-1.2170833-.5027083-.47625 0-.873125.15875-1.2170834.5027083-.3439583.3439583-.5027083.7408333-.5027083 1.2170833 0 .47625.15875.873125.5027083 1.2170833.3439584.3175.7408334.5027083 1.2170834.5027083z" fill="currentColor"/>
  <path class="st0" d="M19.5262449 11.4564585h-.8466667c.15875-.6879167.4497917-1.190625.873125-1.5610417.4233333-.3704166.9525-.555625 1.5345833-.555625.4233334 0 .8202084.1058334 1.190625.2910417.3704167.1852083.6614583.4497917.8466667.79375.2116666.3439583.2910416.6879166.2910416 1.031875 0 .714375-.3439583 1.27-1.0583333 1.666875.396875.15875.714375.396875.9789583.714375.3439584.4233333.5291667.9260416.5291667 1.4552083 0 .47625-.1322917.8995833-.3704167 1.3229166-.238125.4233333-.5820833.7408333-1.0054166.9789583-.4233334.238125-.8995833.3439584-1.42875.3439584-.714375 0-1.2964583-.2116667-1.7727083-.6085417-.47625-.396875-.79375-1.0054167-.9260417-1.7991666h.79375c.1322917.5291666.3439583.9260416.6085417 1.1641666.3439583.2910417.7672916.4497917 1.2964583.4497917.5820833 0 1.0847916-.1852084 1.42875-.5291667.3704166-.3439583.5291666-.7672916.5291666-1.2435416 0-.3175-.079375-.6085417-.2645833-.8995834-.1852083-.2910416-.4233333-.47625-.714375-.635-.2910416-.1322916-.7672916-.238125-1.4022916-.2645833v-.7408333c.3704166 0 .714375-.0529167 1.031875-.1852083.3175-.1322917.5291666-.2910417.6614583-.5027084.1322916-.2116666.2116666-.4233333.2116666-.6614583 0-.3439583-.1322916-.6614583-.4233333-.9260416-.2910416-.2645834-.635-.396875-1.0847916-.396875-.3439584 0-.6614584.1058333-.9260417.2910416-.1852083.1852084-.396875.5291667-.5820833 1.0054167z" fill="currentColor"/>
  <path class="st0" d="M25.2941615 16.5364584c.1852083 0 .3439583.079375.47625.2116667.1322916.1322916.2116666.2910416.2116666.5027083 0 .1852083-.079375.3439583-.2116666.47625-.1322917.1322917-.2910417.2116667-.47625.2116667-.1852084 0-.3439584-.079375-.47625-.2116667-.1322917-.1322917-.2116667-.2910417-.2116667-.47625s.079375-.3439583.2116667-.5027083c.1322916-.15875.2910416-.2116667.47625-.2116667z" fill="currentColor"/>
  <path class="st0" d="M26.7758281 9.5514585h5.2122916l-4.3920833 8.4137499-.6879166-.3439583 3.7835416-7.2760416h-3.9158333z" fill="currentColor"/>
  <g>
    <path class="st2" d="M2.9104118.2381253l-.079375-.079375v1.1377083c.0264583-.0264583.0529166-.0529167.079375-.1058333z" fill="currentColor"/>
    <path class="st2" d="M7.9904117 2.9633336v5.2652083H5.15937l.079375.079375h2.8310416V3.0427085c0-.9789583-.2910417-1.7727083-.8466667-2.2754167.47625.5027084.7672917 1.2435417.7672917 2.1960417z" fill="currentColor"/>
    <path class="st2" d="M2.8310368 3.862917v4.3656249H-.000005l.079375.079375h2.8310417v-4.365625c0-.873125.5027083-1.349375 1.190625-1.349375.2910416 0 .5291666.079375.7408333.2645834-.2116667-.2116667-.47625-.3439584-.79375-.3439584-.714375 0-1.2170833.47625-1.2170833 1.349375z" fill="currentColor"/>
    <path class="st2" d="M12.8058283 2.4077086c-1.031875 0-1.6933333.8202083-1.6933333 1.7991666v.0264584c0 .5291666.2116667 1.031875.5820833 1.3758333-.3175-.3439583-.5027083-.79375-.5027083-1.2964583v-.0529167c0-.9789583.6614583-1.7991666 1.6933333-1.7991666.4497917 0 .8466667.15875 1.1377083.4497916-.3175-.2910416-.7408333-.5027083-1.2170833-.5027083z" fill="currentColor"/>
    <path class="st2" d="M13.4672866 6.0325002v2.3547916c-.2116666.0264584-.4233333.0529167-.6614583.0529167-1.27 0-2.38125-.47625-3.175-1.2170833.79375.79375 1.9314583 1.2964583 3.254375 1.2964583.238125 0 .4497917-.0264583.6614583-.0529167v-2.460625l-.079375-.079375z" fill="currentColor"/>
    <path class="st2" d="M17.2772866 4.1804169v.0264583c0 1.7197917-1.0583333 3.2279167-2.6722917 3.8629167-.0264583.0264583-.079375.0264583-.079375.0264583l.079375.079375c1.666875-.635 2.7516667-2.1695833 2.7516667-3.9158333 0-1.1641667-.47625-2.1960416-1.27-2.9633333.7408333.7672917 1.190625 1.7727083 1.190625 2.8839583z" fill="currentColor"/>
    <path class="st2" d="M24.9237448 2.831042c.7672917-.3439584 1.6404167-.5291667 2.460625-.5291667.555625 0 .9789583.1322916 1.2435416.3704166-.2645833-.2910416-.6879166-.4497916-1.3229166-.4497916-.8202083 0-1.6933333.1852083-2.460625.5291666z" fill="currentColor"/>
    <path class="st2" d="M27.9135364 4.8154169c.3704167 0 .7408334.079375 1.031875.1852083v-.0529166c-.2910416-.1322917-.6879166-.2116667-1.11125-.2116667-.8202083 0-1.2964583.396875-1.2964583 1.0054166v.0264584c0 .2645833.1058334.5027083.2910417.635-.1322917-.1322917-.2116667-.3439584-.2116667-.555625v-.0264584c0-.6085416.47625-1.0054166 1.2964583-1.0054166z" fill="currentColor"/>
    <path class="st2" d="M30.903328 1.1112503l-.0264583-.0264584c.5820834.5820834.8202084 1.4022917.8202084 2.5135417v4.6302083h-2.8045833l.079375.079375h2.8045833V3.6777085c0-1.1377083-.2645834-1.9579167-.873125-2.5664583z" fill="currentColor"/>
    <path class="st2" d="M28.8924948 7.4083335c-.555625.6085417-1.3229167 1.0054167-2.3547917 1.0054167-.79375 0-1.508125-.238125-2.0108333-.714375.5027083.5027083 1.2435417.79375 2.0902083.79375 1.0054167 0 1.74625-.3704167 2.2754167-.9260417z" fill="currentColor"/>
    <path class="st2" d="M20.9285365 4.7625002L19.44687.2381252l-.079375-.079375.0264583.079375 1.508125 4.60375z" fill="currentColor"/>
    <path class="st2" d="M25.3999948.1587503l-3.2279166 8.0697915h-2.5664583l.079375.079375h2.5664583L25.4793698.2381253z" fill="currentColor"/>
  </g>
  <g>
    <path class="st1" d="M5.238745 3e-7c-1.1377083 0-1.8785416.635-2.4077082 1.3229166V.1852086H-.000005V8.228542h2.8310417v-4.365625c0-.873125.5027083-1.349375 1.190625-1.349375.6614583 0 1.1377083.47625 1.1377083 1.349375v4.365625h2.8310416V2.9633336C7.9904117 1.1112503 6.9585367 3e-7 5.238745 3e-7z" fill="currentColor"/>
    <path class="st1" d="M22.4631198.1587503l-1.5610416 4.683125-1.5345833-4.683125h-2.9897916l3.2279166 8.0697915h2.5664583L25.3999948.1587503z" fill="currentColor"/>
    <path class="st1" d="M12.8322866 3e-7c-2.5929166 0-4.4714582 1.9314583-4.4714582 4.206875v.0264583c0 2.301875 1.8520833 4.1804166 4.4449999 4.1804166.238125 0 .4497917-.0264584.6614583-.0529167v-2.460625c-.1852083.079375-.396875.1058334-.635.1058334-1.0054166 0-1.7197916-.8466667-1.7197916-1.825625v-.0264583c0-.9789584.6614583-1.7991667 1.6933333-1.7991667 1.0054167 0 1.7197916.8466667 1.7197916 1.825625v3.9422916c1.666875-.635 2.7516667-2.1695833 2.7516667-3.9158333V4.180417c0-2.2754166-1.8785417-4.1804166-4.445-4.1804166z" fill="currentColor"/>
    <path class="st1" d="M30.823953 1.0318753c-.635-.635-1.6139582-.9789583-3.0691666-.9789583-.7408333 0-1.349375.079375-1.905.1852083l-1.0054166 2.5135416c.7672917-.3439583 1.6404167-.5291666 2.460625-.5291666 1.0847916 0 1.6139583.47625 1.6139583 1.3229166v.1322917c-.4497917-.15875-1.190625-.3175-1.9314583-.3175-1.8785417 0-3.1485416.873125-3.1485416 2.54v.0264583c0 1.6139583 1.1641666 2.4870833 2.69875 2.4870833 1.0583332 0 1.8256249-.396875 2.3547916-1.0054167v.8466667h2.8045833V3.6247919c0-1.1641666-.2645834-1.984375-.873125-2.5929166zm-1.8785416 4.28625c0 .79375-.5820833 1.3229166-1.4022916 1.3229166-.5820833 0-1.0054167-.3175-1.0054167-.873125v-.0264584c0-.6085416.47625-1.0054166 1.2964583-1.0054166.4233334 0 .8202084.079375 1.11125.2116667z" fill="currentColor"/>
  </g>
</svg>
