<svg viewBox="0 0 106 19" fill="none" xmlns="http://www.w3.org/2000/svg">
<path fill-rule="evenodd" clip-rule="evenodd" d="M96.8859 12.8409L96.6018 14.3181H91.5448L91.7911 12.8409C92.5665 12.8409 92.6748 12.7726 92.776 12.1025L93.3251 8.46563C93.4191 7.84452 93.0425 7.63252 92.6812 7.63252C91.9522 7.63252 91.1881 8.39836 91.0523 9.28007L90.5978 12.2349C90.5333 12.6542 90.6014 12.8409 91.469 12.8409L91.2416 14.3181H86.1091L86.3742 12.8409C87.298 12.8409 87.4571 12.7064 87.5484 12.1404L88.1545 8.38994C88.1968 8.12861 88.1509 8.08701 87.946 8.08701H86.8286L87.0559 6.79926L91.6395 4.82959L91.7719 4.96195L91.5635 6.11752C92.407 5.37071 93.3334 4.84844 94.3859 4.84844C95.8632 4.84844 96.5828 6.08722 96.5828 7.40528C96.5828 7.71467 96.5602 7.9697 96.4879 8.40912L95.8821 12.1025C95.7802 12.7233 95.8876 12.8409 96.8859 12.8409Z" fill="white"/>
<path fill-rule="evenodd" clip-rule="evenodd" d="M78.3435 5.28422L77.4723 7.14034C77.115 6.98145 76.6661 6.93176 76.4304 6.93176H75.3889L74.688 11.2308C74.5624 12.0022 74.7106 12.1403 75.1048 12.1403C75.5374 12.1403 75.9811 11.9162 76.7716 11.193L77.4533 12.5378C76.5149 13.5377 75.3163 14.5833 73.798 14.5833C72.1813 14.5833 71.4682 13.6616 71.4682 12.197C71.4682 11.888 71.516 11.4669 71.563 11.174L72.2448 6.93176L71.0515 6.95095L71.3356 5.32206L72.472 5.34089L72.7371 3.61749L75.8622 2.34839L76.0706 2.5568L75.6352 5.30305L78.3435 5.28422Z" fill="white"/>
<path fill-rule="evenodd" clip-rule="evenodd" d="M72.283 0.643872C71.9243 1.85755 71.5116 3.64193 71.3171 4.86764H69.499C69.6665 4.26393 69.7205 3.88729 69.7261 3.5607C69.7399 2.77296 68.8435 2.27276 67.5105 2.27276C66.1439 2.27276 65.2337 2.96882 65.2186 3.84479C65.2043 4.67161 65.5192 5.01812 66.5635 5.75777L68.3814 7.04553C70.0681 8.24 71.0858 9.35882 71.0519 11.2879C70.9963 14.4964 68.3197 16.1176 64.8397 16.1176C64.0257 16.1176 63.4443 15.9095 62.889 15.7764C62.4153 15.6633 61.9413 15.5115 61.4496 15.5115C61.182 15.5115 60.7053 15.6003 60.3889 15.7956L60.1048 15.6441C59.888 14.0887 59.5276 12.3806 59.2525 11.0795L61.1465 10.6249C61.6451 12.9751 62.6413 14.0534 65.0102 14.0534C66.5622 14.0534 67.3944 13.3001 67.4158 12.0832C67.4358 10.9208 66.833 10.4378 65.73 9.71572C65.2411 9.39559 64.7491 9.081 64.2907 8.76892C63.8292 8.45506 63.3765 8.12738 63.0025 7.74625C62.2487 6.97754 61.7657 5.95111 61.7904 4.5265C61.834 2.01377 64.0883 0.227417 67.1505 0.227417C68.43 0.227417 69.4256 0.545588 70.5784 0.606034C70.962 0.626111 71.6063 0.538052 72.0181 0.435457L72.283 0.643872Z" fill="white"/>
<path fill-rule="evenodd" clip-rule="evenodd" d="M39.6685 2.17826C39.6685 3.36646 38.3789 4.41317 37.0363 4.41317C36.3493 4.41317 35.5587 4.12459 35.5587 3.16291C35.5587 1.73813 37.0106 0.776611 38.2105 0.776611C39.0022 0.776611 39.6685 1.30749 39.6685 2.17826Z" fill="white"/>
<path fill-rule="evenodd" clip-rule="evenodd" d="M39.3653 4.96213L38.21 11.9696C38.0805 12.7554 38.0644 12.8409 39.1949 12.8409L38.9675 14.3181H33.6834L33.9106 12.8409C34.7784 12.8409 35.0314 12.6311 35.1039 12.1592L35.6911 8.33309C35.7257 8.10691 35.7266 8.08701 35.5017 8.08701H34.2894L34.5167 6.79926L39.2327 4.82959L39.3653 4.96213Z" fill="white"/>
<path fill-rule="evenodd" clip-rule="evenodd" d="M34.6683 0.568211L32.8122 11.913C32.6737 12.759 32.7677 12.841 33.6076 12.841L33.3804 14.3181H28.2287L28.4559 12.841C29.3615 12.841 29.5843 12.6658 29.6871 12.0265L30.975 4.0152C31.0181 3.74796 30.9863 3.71228 30.7856 3.71228H29.5924L29.8196 2.40534L34.5358 0.435669L34.6683 0.568211Z" fill="white"/>
<path fill-rule="evenodd" clip-rule="evenodd" d="M102.89 7.72718C102.865 6.88817 102.522 6.64785 102.037 6.64785C101.481 6.64785 100.687 7.33136 100.39 8.84456L102.89 7.72718ZM105.901 8.18148L100.143 10.8332C100.26 11.8177 100.812 12.4811 101.715 12.4811C102.657 12.4811 102.984 11.9472 102.984 11.7045C102.984 11.5608 102.935 11.4676 102.89 11.4014C102.819 11.2974 102.757 11.2357 102.757 11.0983C102.757 11 102.781 10.9362 102.833 10.871C103.076 10.5672 103.597 10.3217 104.121 10.3217C104.796 10.3217 105.39 10.8273 105.39 11.5906C105.39 13.2588 103.759 14.6021 101.204 14.6021C98.689 14.6021 96.8859 13.0748 96.8859 10.1893C96.8859 7.60164 99.0787 4.81055 101.962 4.81055C104.375 4.81055 105.535 6.02298 105.901 8.18148Z" fill="white"/>
<path fill-rule="evenodd" clip-rule="evenodd" d="M83.401 8.16283C83.401 7.11864 83.0563 6.64767 82.435 6.64767C81.5335 6.64767 80.56 8.55418 80.56 11.2687C80.56 12.3084 80.9115 12.7652 81.526 12.7652C82.4803 12.7652 83.401 10.5597 83.401 8.16283ZM86.6773 8.92024C86.6773 11.7651 84.6301 14.6215 81.3744 14.6215C78.9027 14.6215 77.3401 13.2525 77.3401 10.3786C77.3401 7.37691 79.5337 4.77271 82.5865 4.77271C84.9664 4.77271 86.6773 6.27101 86.6773 8.92024Z" fill="white"/>
<path fill-rule="evenodd" clip-rule="evenodd" d="M55.3315 15.7767C55.3315 15.562 55.1315 15.4166 54.6684 15.4166C54.14 15.4166 53.3593 15.4926 52.8126 15.4926C51.8981 15.4926 51.1211 15.357 50.4071 15.0001C50.0356 15.2919 49.8202 15.6223 49.8202 16.0987C49.8202 16.7131 50.6218 17.216 51.5056 17.216C53.8502 17.216 55.3315 16.3614 55.3315 15.7767ZM55.6156 7.49976C55.6156 6.83705 55.4131 6.51512 54.9904 6.51512C54.0217 6.51512 53.6083 8.30434 53.6083 9.3749C53.6083 10.1196 53.7612 10.4356 54.2708 10.4356C55.1233 10.4356 55.6156 8.48442 55.6156 7.49976ZM61.5059 5.94692C61.5059 6.55296 60.9718 7.29172 60.4644 7.29172C60.2931 7.29172 60.2314 7.16939 60.1422 7.04547C60.1003 6.987 60.0364 6.91902 59.9148 6.87489C59.8373 6.84674 59.76 6.83705 59.6877 6.83705C59.1385 6.83705 58.7598 7.4587 58.7598 8.01127C58.7598 8.13377 58.7784 8.2595 58.7784 8.38989C58.7784 8.98606 58.5955 9.55317 58.2861 10.0754C57.586 11.2588 56.0828 12.197 54.4414 12.197C53.8021 12.197 53.2 12.1371 52.7179 11.9508C52.6422 12.0264 52.5664 12.1879 52.5664 12.3294C52.5664 12.7164 52.8695 12.803 53.343 12.803C54.3237 12.803 55.449 12.6513 56.3542 12.6513C57.9076 12.6513 59.0246 13.4195 59.0246 14.8484C59.0246 17.392 54.9012 18.9396 51.2784 18.9396C49.1241 18.9396 47.0549 18.3212 47.0549 16.4963C47.0549 15.5925 47.5745 14.8911 48.7593 14.318H44.479L44.7252 12.8409C45.5835 12.8219 45.6663 12.7589 45.7479 12.2158L46.3161 8.42773C46.3857 7.96428 46.0745 7.63248 45.6722 7.63248C44.9279 7.63248 44.1694 8.46863 44.0623 9.14748L43.5696 12.2727C43.5083 12.6639 43.5921 12.8409 44.4031 12.8409L44.176 14.318H39.2704L39.5167 12.8409C40.3669 12.8409 40.3927 12.7168 40.4637 12.2727L41.0886 8.37088C41.1309 8.10831 41.0868 8.08697 40.8994 8.08697H39.6871L39.9333 6.78038L44.6115 4.82955L44.7631 4.96191L44.5737 6.09847C45.5139 5.28028 46.4849 4.82955 47.339 4.82955C48.9299 4.82955 49.5738 5.92791 49.5738 7.51877C49.5738 7.65742 49.5386 8.00841 49.5171 8.14364L48.8732 12.178C48.7947 12.6696 49.1363 12.8097 49.6116 12.8409C49.847 11.9434 50.5135 11.4724 51.2972 11.1552C50.8409 10.6653 50.4071 9.99528 50.4071 8.84456C50.4071 6.29235 52.709 4.73486 55.0474 4.73486C56.1166 4.73486 57.4338 5.09465 58.1724 6.21218C58.7027 5.28422 59.4415 4.73486 60.2368 4.73486C60.9431 4.73486 61.5059 5.18933 61.5059 5.94692Z" fill="white"/>
<mask id="mask0" mask-type="alpha" maskUnits="userSpaceOnUse" x="0" y="0" width="30" height="19">
<path d="M0 0H29.2323V18.9207H0V0Z" fill="black"/>
</mask>
<g mask="url(#mask0)">
<path fill-rule="evenodd" clip-rule="evenodd" d="M20.7855 8.16295C20.7855 7.11876 20.4406 6.64779 19.8193 6.64779C18.9182 6.64779 17.9443 8.5543 17.9443 11.2688C17.9443 12.3085 18.2958 12.7653 18.9105 12.7653C19.8646 12.7653 20.7855 10.5598 20.7855 8.16295ZM24.0618 8.92036C24.0618 11.7653 22.015 14.6216 18.7587 14.6216C16.2874 14.6216 14.7054 13.1766 14.7054 10.303C14.7054 7.37004 16.918 4.77283 19.971 4.77283C22.3511 4.77283 24.0618 6.27113 24.0618 8.92036Z" fill="white"/>
<path fill-rule="evenodd" clip-rule="evenodd" d="M12.3945 4.26143C12.3945 2.7362 11.3583 1.78026 9.98912 1.78026C9.40191 1.78026 8.8337 1.83711 8.56861 1.87495L7.62161 7.70843C7.79415 7.72061 8.09619 7.70843 8.24667 7.70843C10.5039 7.70843 12.3945 6.2327 12.3945 4.26143ZM29.232 0.625048L27.338 12.1781C27.2607 12.6496 27.2564 12.841 28.1524 12.841L27.9252 14.3185H26.372C27.4137 14.6783 28.0577 15.3299 28.0577 16.1366C28.0577 17.6817 26.54 18.9207 22.5463 18.9207C15.1702 18.9207 10.2974 15.0951 8.62547 9.43165L7.31868 9.48851L6.75047 13.0494C6.6416 13.7307 6.65488 13.9517 7.86787 14.034L8.70116 14.0909L8.36038 15.8335C7.15941 15.7592 5.82122 15.697 4.49649 15.7008C3.28583 15.7043 2.0185 15.765 0.822184 15.8335L1.10629 14.0909C1.41747 14.0722 1.63593 14.0715 1.84506 14.053C2.04952 14.0355 2.22063 13.9958 2.39425 13.9395C2.72965 13.8305 3.00406 13.6133 3.07598 13.1821L4.89431 2.2916C4.27821 2.40836 3.7509 2.56565 3.39811 2.70859C2.99976 2.86965 2.54581 3.26692 2.54581 3.56088C2.54581 3.68858 2.5693 3.78166 2.62149 3.86363C2.69234 3.97483 2.77305 4.0654 2.77305 4.20458C2.77305 4.30627 2.73252 4.36403 2.67835 4.43181C2.42205 4.75178 1.82963 5.00001 1.27685 5.00001C0.644262 5.00001 -0.0111084 4.49944 -0.0111084 3.69325C-0.0111084 1.66117 2.52626 0.851029 4.15571 0.530345C5.79055 0.208415 8.08973 0 9.68601 0C13.4401 0 16.1635 1.16813 16.1635 4.12907C16.1635 6.56326 14.3159 8.13349 12.3376 8.80678C13.8417 13.5022 17.5212 17.0267 22.2433 17.0267C24.034 17.0267 24.6673 16.2598 24.6673 15.5112C24.6673 14.7322 24.0584 14.3185 23.4931 14.3185H22.7547L23.0386 12.841C23.5618 12.841 24.1445 12.7947 24.2319 12.2538L25.5765 3.92047C25.6011 3.76964 25.5422 3.71226 25.3871 3.71226H24.1372L24.3832 2.38666L29.0804 0.473498L29.232 0.625048Z" fill="white"/>
</g>
</svg>
