<svg class="navigation__logo-image navigation__logo-image--md" viewBox="0 0 599 83" fill="none" xmlns="http://www.w3.org/2000/svg">
<path fill-rule="evenodd" clip-rule="evenodd" d="M153.462 76.775h4.028V.248h-4.028v76.527zm20.808 0V37.331h15.167v-3.88H174.27V14.689c0-6.973 2.856-10.654 8.266-10.654 1.975 0 3.837.366 5.246 1.039l1.655.791V1.554l-.684-.3C186.782.361 184.982 0 182.536 0c-3.578 0-6.475 1.082-8.609 3.212-2.421 2.417-3.701 6.274-3.701 11.143v62.42h4.044zm163.248 0V54.371c0-7.495 5.827-17.943 15.318-17.943h1.571v-3.951l-1.318-.01c-6.646.205-12.139 3.476-15.571 9.249v-8.265h-4.041v43.324h4.041zm163.661 0V52.406c0-12.299-7.043-19.939-18.38-19.939-8.582 0-13.312 5.127-15.319 8.081v-7.097h-4.041v43.324h4.041V52.896c0-9.238 6.656-16.468 15.158-16.468 9.082 0 14.506 6.031 14.506 16.145v24.202h4.035zM139.255 55.027v.168c0 10.605-7.859 18.606-18.28 18.606-10.337 0-18.437-8.179-18.437-18.606v-.168c0-10.599 7.856-18.599 18.278-18.599 10.341 0 18.439 8.171 18.439 18.599zm4.121.092v-.178c0-12.81-9.663-22.474-22.477-22.474-12.817 0-22.483 9.733-22.483 22.652v.161c0 12.807 9.666 22.47 22.483 22.47 12.814 0 22.477-9.734 22.477-22.631zm176.585-.092v.168c0 10.605-7.861 18.606-18.274 18.606-10.346 0-18.45-8.179-18.45-18.606v-.168c0-10.599 7.859-18.599 18.279-18.599 10.336 0 18.445 8.171 18.445 18.599zm4.116.092v-.178c0-12.81-9.665-22.474-22.48-22.474-12.815 0-22.478 9.733-22.478 22.652v.161c0 12.807 9.663 22.47 22.478 22.47 12.815 0 22.48-9.734 22.48-22.631zm71.745-.092v.168c0 10.427-7.807 18.606-17.783 18.606-10.213 0-17.616-7.862-17.616-18.682v-.178c0-10.728 7.403-18.513 17.616-18.513 9.976 0 17.783 8.171 17.783 18.599zm-6.829 19.758a20.214 20.214 0 0 0 6.754-6.565v8.555h4.035V.248h-4.035v41.759a20.303 20.303 0 0 0-6.754-6.576c-3.271-1.936-7.086-2.964-11.035-2.964-12.349 0-21.657 9.695-21.657 22.56v.168c0 12.854 9.308 22.555 21.657 22.555 3.965 0 7.78-1.028 11.035-2.965zm61.42-19.758v.168c0 10.605-7.855 18.606-18.278 18.606-10.341 0-18.44-8.179-18.44-18.606v-.168c0-10.599 7.857-18.599 18.28-18.599 10.34 0 18.438 8.171 18.438 18.599zm4.11.092v-.178c0-12.81-9.657-22.474-22.473-22.474-12.812 0-22.481 9.733-22.481 22.652v.161c0 12.807 9.669 22.47 22.481 22.47 12.816 0 22.473-9.734 22.473-22.631zM251.21 75.28a35.22 35.22 0 0 0 10.791-6.78c3.172-2.927 5.665-6.301 7.414-10.033 1.832-3.908 2.76-8.039 2.76-12.295v-2.154h-31.196v4.305h26.806c-1.246 13.894-14.431 25.138-29.551 25.138-8.351 0-16.209-3.248-22.122-9.147-5.905-5.919-9.159-13.78-9.159-22.125s3.254-16.2 9.159-22.119c5.915-5.897 13.771-9.153 22.122-9.153a31.29 31.29 0 0 1 25.669 13.403l.646.952 3.529-2.464-.657-.957a35.886 35.886 0 0 0-12.722-11.203 35.825 35.825 0 0 0-16.465-4.024c-9.5 0-18.437 3.696-25.157 10.405-6.721 6.732-10.423 15.664-10.423 25.16s3.702 18.434 10.423 25.159c6.731 6.721 15.663 10.423 25.157 10.423 4.431 0 8.794-.84 12.976-2.491zM76.154 80.876l27.933-73.267h-4.283L76.235 69.345 52.024 4.154 28 69.244 4.304 7.609H0l28.102 73.192 23.939-64.869 24.113 64.944zM586.746 81.306v-4.267a.267.267 0 0 0-.258-.268h-27.225a.831.831 0 0 1-.84-.824v-.635c0-.377.211-.877.479-1.134l.943-.948c.263-.258.758-.474 1.134-.474h4.277c.226 0 .577-.14.738-.307l1.813-1.807c.15-.162.296-.511.296-.737v-4.962c0-.23-.146-.575-.296-.721l-6.059-6.058a.278.278 0 0 0-.215-.085.364.364 0 0 0-.21.069l-1.646 1.394c-.173.134-.317.452-.317.678l-.011 8.473c0 .378-.2.857-.463 1.132l-6.49 6.488c-.262.253-.757.458-1.128.458h-2.691a.83.83 0 0 1-.834-.824v-.635c0-.377.214-.877.489-1.134l5.02-4.763c.167-.161.313-.5.313-.722V53.268c0-.22-.14-.575-.307-.738l-3.126-3.12a1.793 1.793 0 0 1-.474-1.14V15.824c0-.23-.139-.581-.296-.732l-2.75-2.739a1.802 1.802 0 0 1-.467-1.139V7.995c0-.376.209-.876.479-1.124l.408-.415a.856.856 0 0 1 .587-.237c.226 0 .441.087.598.249l2.921 2.921c.065.059.134.097.205.097a.147.147 0 0 0 .106-.044c.13-.128.248-.457.248-.672l-.006-4.562c0-.388.243-.872.539-1.114L555.394.63c.291-.227.792-.404 1.152-.404h1.36c.458 0 .834.377.834.834v5.671c0 .227.146.575.302.737l6.919 6.915c.269.257.469.748.469 1.14v3.638c0 .231.151.574.306.716l4.504 4.437c.274.285.473.765.473 1.147v.501a.828.828 0 0 1-.833.823h-1.415a.263.263 0 0 0-.259.264v.639c0 .216.14.561.306.722l8.713 8.732c.263.243.477.748.477 1.13v.571c0 .231.141.575.308.731l13.719 13.521c.275.27.475.753.475 1.131v.64c0 .227.145.571.301.721l2.017 2.034c.259.247.468.748.468 1.13v.495c0 .231.13.565.297.726l1.807 1.824c.269.281.468.764.468 1.13v8.2c0 .382-.209.878-.468 1.141l-9.453 9.518c-.338.329-.695.496-1.028.496-.506 0-.867-.399-.867-.975z" fill="currentColor"></path>
</svg>
