
<svg viewBox="0 0 72 32" fill="none" xmlns="http://www.w3.org/2000/svg">
<path d="M68.4339 10.7009V9.91246H69.1236C69.4529 9.91246 69.6579 10.0564 69.6579 10.2942C69.6579 10.5633 69.4156 10.7009 69.0925 10.7009H68.4339ZM69.9189 10.2817C69.9189 9.9062 69.5896 9.67466 69.136 9.67466H68.1853V11.771H68.4339V10.9262H69.049L69.7201 11.771H70.0432L69.3348 10.8887C69.6828 10.8261 69.9189 10.6258 69.9189 10.2817ZM68.9869 12.6972C67.8871 12.6972 67.0669 11.8461 67.0669 10.7886C67.0669 9.73098 67.8995 8.8674 68.9993 8.8674C70.0991 8.8674 70.9193 9.71846 70.9193 10.776C70.9193 11.8273 70.0867 12.6972 68.9869 12.6972ZM68.9931 8.7047C67.8125 8.7047 66.8867 9.64963 66.8867 10.7823C66.8867 11.915 67.8063 12.8536 68.9807 12.8536C70.1612 12.8536 71.087 11.9087 71.087 10.776C71.0933 9.64337 70.1737 8.7047 68.9931 8.7047Z" fill="currentColor"/>
<path fill-rule="evenodd" clip-rule="evenodd" d="M47.2842 20.0376H44.6745L43.7922 17.0089L41.7542 20.0376H39.0762L42.4749 15.3192L41.1266 11.1453H43.6369L44.3825 13.9988L46.2465 11.1453H48.9494L45.6997 15.5508L47.2842 20.0376ZM55.051 20.0376H52.6899L53.4417 16.4144H51.354L50.5898 20.0376H48.2286L50.0927 11.1515H52.4538L51.7765 14.4494H53.8767L54.554 11.1515H56.9213L55.051 20.0376ZM61.5317 11.0139C62.5694 11.0139 63.3771 11.3142 63.9487 11.9212C64.5204 12.5282 64.8062 13.3668 64.8062 14.4369C64.8062 15.5696 64.5763 16.6021 64.1165 17.5345C63.6567 18.4607 63.0354 19.149 62.2463 19.5933L63.6816 22.159H61.0284L60.0529 20.1628H59.9783C58.9407 20.1628 58.1329 19.8624 57.5613 19.2554C56.9896 18.6484 56.7038 17.8099 56.7038 16.7398C56.7038 15.6634 56.9089 14.6809 57.3252 13.7861C57.7353 12.8912 58.3069 12.2028 59.0277 11.7272C59.7546 11.2517 60.5873 11.0139 61.5317 11.0139ZM61.3329 13.0038C60.9166 13.0038 60.5375 13.1728 60.1958 13.5107C59.8541 13.8486 59.5807 14.3055 59.3881 14.8874C59.1954 15.4694 59.096 16.0952 59.096 16.7648C59.096 17.2279 59.1892 17.5783 59.3818 17.8161C59.5745 18.0476 59.8416 18.1665 60.1958 18.1665C60.6059 18.1665 60.9787 18.0038 61.3204 17.6722C61.6622 17.3468 61.9294 16.89 62.1282 16.308C62.327 15.726 62.4264 15.094 62.4264 14.4119C62.4264 13.9488 62.3332 13.5983 62.1406 13.3605C61.948 13.1227 61.687 13.0038 61.3329 13.0038Z" fill="currentColor"/>
<path fill-rule="evenodd" clip-rule="evenodd" d="M24.0772 14.8937L8.86664 0.000101566L1.72113 7.05267L9.7241 14.95L0 25.1628L6.94667 31.9087L24.0772 14.8937Z" fill="currentColor"/>
<path fill-rule="evenodd" clip-rule="evenodd" d="M17.9023 23.0225L24.8739 29.9061L32.0194 22.8536L25.0479 15.97L17.9023 23.0225Z" fill="currentColor"/>
<path fill-rule="evenodd" clip-rule="evenodd" d="M17.957 6.82728L25.1025 13.8798L32.0181 7.05257L24.8726 0L17.957 6.82728Z" fill="currentColor"/>
</svg>
