<svg xmlns="http://www.w3.org/2000/svg" viewBox="0 0 65.838 20.249" fill="currentColor"><path d="M.004 19.949c-.084-.218 2.58-2.995 9.708-10.125C15.114 4.421 19.643 0 19.775 0c.133 0 .293.135.357.3.083.218-2.58 2.995-9.708 10.124C5.02 15.828.493 20.25.36 20.25c-.132 0-.293-.135-.356-.3zm15.546-3.686c-2.19-2.192-3.982-4.133-3.982-4.312a.32.32 0 01.33-.327c.18 0 2.133 1.806 4.339 4.013 2.87 2.873 3.977 4.098 3.894 4.312-.063.165-.223.3-.357.3-.133 0-2.034-1.794-4.224-3.986zm9.203 3.686c-.083-.216 1.274-1.69 4.832-5.25 2.721-2.722 5.074-4.946 5.23-4.942.155.004 2.505 2.19 5.22 4.859 3.368 3.308 4.919 4.956 4.875 5.18-.035.18-.177.366-.317.412-.14.047-.688-.368-1.22-.922-.532-.553-2.678-2.69-4.769-4.748l-3.8-3.742-4.73 4.726c-2.6 2.6-4.836 4.727-4.968 4.727-.131 0-.29-.135-.353-.3zm26.089.074c-.054-.14-.075-1.939-.047-3.998.05-3.603.066-3.745.426-3.745.363 0 .375.125.375 3.935 0 3.6-.028 3.94-.328 3.998-.181.035-.373-.05-.426-.19zm-26.06-3.932c-.052-.137-.072-3.792-.045-8.123.048-7.733.055-7.874.424-7.874s.375.125.375 8.06c0 7.531-.022 8.063-.33 8.122-.18.035-.37-.049-.423-.185zm19.335-.076c-.063-.163-.114-3.739-.114-7.945 0-6.468.042-7.684.273-7.876.15-.124.361-.172.469-.105.13.08.196 2.781.196 8.172 0 7.774-.013 8.05-.355 8.05-.196 0-.407-.133-.47-.296zm10.452-3.363c-.07-.182-.01-.386.14-.481.144-.091 1.57-.168 3.168-.17 2.647-.005 2.99-.045 3.848-.444.54-.252 1.312-.85 1.814-1.41.519-.577 1.003-1.36 1.192-1.929.22-.662.29-1.313.226-2.107-.057-.708-.276-1.508-.57-2.084-.262-.513-.758-1.199-1.103-1.523-.344-.324-1.006-.788-1.47-1.03-.81-.425-1.03-.445-5.48-.502L51.697.914l-.05 4.37c-.049 4.23-.063 4.372-.426 4.372-.365 0-.375-.125-.375-4.781V.094l4.675-.05c3.816-.041 4.862.004 5.694.246.56.163 1.326.49 1.7.726.376.237 1.004.787 1.398 1.222.393.436.895 1.186 1.115 1.667.312.681.403 1.251.409 2.563.007 1.473-.057 1.822-.51 2.742-.284.58-.94 1.451-1.459 1.935-.517.485-1.339 1.064-1.825 1.288-.778.359-1.276.416-4.119.471-2.894.057-3.247.03-3.355-.252zM3.993 4.705C1.053 1.764-.078.514.004.3.067.135.228 0 .361 0c.133 0 2.088 1.848 4.345 4.106 2.94 2.942 4.07 4.192 3.989 4.406-.064.165-.224.3-.357.3-.133 0-2.089-1.848-4.345-4.107z"/></svg>
